<svg width="290" height="627" viewBox="0 0 290 627" fill="none" xmlns="http://www.w3.org/2000/svg">
<rect width="290" height="627" fill="black"/>
<path d="M108.82 419L106.945 413.82H99.8438L97.9688 419H96.2695L102.598 402.09H104.191L110.508 419H108.82ZM103.359 404.07L100.324 412.438H106.465L103.43 404.07H103.359ZM117.832 406.613C119.379 406.613 120.629 407.191 121.582 408.348C122.543 409.496 123.023 411.016 123.023 412.906C123.023 414.797 122.547 416.32 121.594 417.477C120.648 418.625 119.406 419.199 117.867 419.199C116.906 419.199 116.055 418.953 115.312 418.461C114.578 417.961 114.047 417.305 113.719 416.492H113.672V423.031H112.125V406.812H113.59V409.391H113.637C113.98 408.562 114.523 407.895 115.266 407.387C116.008 406.871 116.863 406.613 117.832 406.613ZM117.562 417.828C118.742 417.828 119.684 417.383 120.387 416.492C121.09 415.594 121.441 414.398 121.441 412.906C121.441 411.422 121.086 410.23 120.375 409.332C119.672 408.434 118.734 407.984 117.562 407.984C116.406 407.984 115.469 408.441 114.75 409.355C114.031 410.262 113.672 411.445 113.672 412.906C113.672 414.375 114.031 415.562 114.75 416.469C115.469 417.375 116.406 417.828 117.562 417.828ZM130.816 406.613C132.363 406.613 133.613 407.191 134.566 408.348C135.527 409.496 136.008 411.016 136.008 412.906C136.008 414.797 135.531 416.32 134.578 417.477C133.633 418.625 132.391 419.199 130.852 419.199C129.891 419.199 129.039 418.953 128.297 418.461C127.562 417.961 127.031 417.305 126.703 416.492H126.656V423.031H125.109V406.812H126.574V409.391H126.621C126.965 408.562 127.508 407.895 128.25 407.387C128.992 406.871 129.848 406.613 130.816 406.613ZM130.547 417.828C131.727 417.828 132.668 417.383 133.371 416.492C134.074 415.594 134.426 414.398 134.426 412.906C134.426 411.422 134.07 410.23 133.359 409.332C132.656 408.434 131.719 407.984 130.547 407.984C129.391 407.984 128.453 408.441 127.734 409.355C127.016 410.262 126.656 411.445 126.656 412.906C126.656 414.375 127.016 415.562 127.734 416.469C128.453 417.375 129.391 417.828 130.547 417.828ZM142.441 414.406H144.047C144.133 415.422 144.613 416.246 145.488 416.879C146.363 417.504 147.461 417.816 148.781 417.816C150.047 417.816 151.086 417.508 151.898 416.891C152.719 416.273 153.129 415.488 153.129 414.535C153.129 413.746 152.844 413.105 152.273 412.613C151.703 412.113 150.789 411.703 149.531 411.383L147.434 410.844C145.863 410.445 144.715 409.898 143.988 409.203C143.27 408.508 142.91 407.605 142.91 406.496C142.91 405.137 143.457 404.02 144.551 403.145C145.645 402.262 147.027 401.82 148.699 401.82C150.34 401.82 151.703 402.258 152.789 403.133C153.883 404 154.453 405.105 154.5 406.449H152.895C152.816 405.496 152.391 404.73 151.617 404.152C150.844 403.566 149.855 403.273 148.652 403.273C147.473 403.273 146.496 403.57 145.723 404.164C144.957 404.75 144.574 405.508 144.574 406.438C144.574 407.164 144.852 407.758 145.406 408.219C145.961 408.672 146.863 409.059 148.113 409.379L149.941 409.848C151.645 410.277 152.875 410.844 153.633 411.547C154.391 412.25 154.77 413.188 154.77 414.359C154.77 415.844 154.215 417.035 153.105 417.934C151.996 418.824 150.508 419.27 148.641 419.27C146.875 419.27 145.422 418.824 144.281 417.934C143.141 417.035 142.527 415.859 142.441 414.406ZM157.723 403.766H159.27V406.812H161.672V408.102H159.27V415.93C159.27 416.555 159.398 417.012 159.656 417.301C159.914 417.582 160.324 417.723 160.887 417.723C161.324 417.723 161.605 417.707 161.73 417.676V419C161.512 419.047 161.129 419.07 160.582 419.07C159.559 419.07 158.824 418.836 158.379 418.367C157.941 417.891 157.723 417.102 157.723 416V408.102H155.906V406.812H157.723V403.766ZM172.43 417.5C171.414 418.633 170.07 419.199 168.398 419.199C166.727 419.199 165.383 418.633 164.367 417.5C163.352 416.359 162.844 414.828 162.844 412.906C162.844 410.984 163.352 409.457 164.367 408.324C165.391 407.184 166.734 406.613 168.398 406.613C170.07 406.613 171.414 407.184 172.43 408.324C173.445 409.457 173.953 410.984 173.953 412.906C173.953 414.828 173.445 416.359 172.43 417.5ZM165.504 416.516C166.223 417.391 167.188 417.828 168.398 417.828C169.609 417.828 170.574 417.391 171.293 416.516C172.02 415.641 172.383 414.438 172.383 412.906C172.383 411.375 172.02 410.172 171.293 409.297C170.574 408.422 169.609 407.984 168.398 407.984C167.188 407.984 166.223 408.422 165.504 409.297C164.785 410.172 164.426 411.375 164.426 412.906C164.426 414.438 164.785 415.641 165.504 416.516ZM176.016 419V406.812H177.48V408.98H177.516C177.742 408.238 178.125 407.66 178.664 407.246C179.203 406.824 179.848 406.613 180.598 406.613C180.895 406.613 181.215 406.656 181.559 406.742V408.266C181.309 408.148 180.922 408.09 180.398 408.09C179.539 408.09 178.852 408.395 178.336 409.004C177.82 409.613 177.562 410.414 177.562 411.406V419H176.016ZM187.348 407.973C186.262 407.973 185.367 408.352 184.664 409.109C183.969 409.859 183.59 410.84 183.527 412.051H191.051C191.035 410.84 190.688 409.859 190.008 409.109C189.328 408.352 188.441 407.973 187.348 407.973ZM190.957 415.543H192.492C192.305 416.613 191.75 417.492 190.828 418.18C189.914 418.859 188.793 419.199 187.465 419.199C185.754 419.199 184.402 418.641 183.41 417.523C182.418 416.398 181.922 414.871 181.922 412.941C181.922 411.043 182.418 409.516 183.41 408.359C184.402 407.195 185.723 406.613 187.371 406.613C188.98 406.613 190.262 407.16 191.215 408.254C192.168 409.348 192.645 410.805 192.645 412.625V413.281H183.516V413.375C183.516 414.75 183.875 415.84 184.594 416.645C185.312 417.441 186.281 417.84 187.5 417.84C188.398 417.84 189.156 417.629 189.773 417.207C190.391 416.785 190.785 416.23 190.957 415.543Z" fill="white"/>
<mask id="mask0" mask-type="alpha" maskUnits="userSpaceOnUse" x="53" y="202" width="183" height="183">
<path fill-rule="evenodd" clip-rule="evenodd" d="M172.199 202C190.57 202 199.754 202 209.643 205.126C220.44 209.056 228.944 217.56 232.874 228.357C236 238.245 236 247.431 236 265.801V321.199C236 339.57 236 348.754 232.874 358.643C228.944 369.44 220.44 377.944 209.643 381.872C199.754 385 190.57 385 172.199 385H116.801C98.4298 385 89.2447 385 79.3566 381.872C68.5596 377.944 60.0562 369.44 56.1262 358.643C53 348.754 53 339.57 53 321.199V265.801C53 247.431 53 238.245 56.1262 228.357C60.0562 217.56 68.5596 209.056 79.3566 205.126C89.2447 202 98.4298 202 116.801 202H172.199Z" fill="white"/>
</mask>
<g mask="url(#mask0)">
<path fill-rule="evenodd" clip-rule="evenodd" d="M172.199 202C190.57 202 199.754 202 209.643 205.126C220.44 209.056 228.944 217.56 232.874 228.357C236 238.245 236 247.431 236 265.801V321.199C236 339.57 236 348.754 232.874 358.643C228.944 369.44 220.44 377.944 209.643 381.872C199.754 385 190.57 385 172.199 385H116.801C98.4298 385 89.2447 385 79.3566 381.872C68.5596 377.944 60.0562 369.44 56.1262 358.643C53 348.754 53 339.57 53 321.199V265.801C53 247.431 53 238.245 56.1262 228.357C60.0562 217.56 68.5596 209.056 79.3566 205.126C89.2447 202 98.4298 202 116.801 202H172.199Z" fill="url(#paint0_linear)"/>
<path fill-rule="evenodd" clip-rule="evenodd" d="M154.491 308.969C155.021 308.969 155.55 309.096 156.001 309.375C160.41 312.085 163.372 317.067 163.372 322.777C163.372 323.964 163.23 325.112 162.985 326.222C162.926 326.492 162.678 326.682 162.402 326.682H133.901H86.2567C81.078 326.682 76.9362 322.236 77.4419 316.954C77.8815 312.35 82.0135 308.969 86.6384 308.969H106.814L134.236 261.706L126.779 248.854C124.18 244.376 125.946 238.564 130.769 236.348C134.972 234.417 139.971 236.293 142.291 240.295L144.476 244.058L146.851 239.963C149.449 235.49 155.364 234.132 159.681 237.216C163.449 239.909 164.301 245.187 161.977 249.192L127.292 308.969H141.478H154.491ZM202.793 308.969H182.138L157.286 266.632C156.889 265.949 155.914 265.964 155.514 266.643C152.108 272.442 150.574 279.395 150.574 286.609C150.574 287.619 150.619 288.616 150.698 289.606C150.719 289.859 150.796 290.104 150.925 290.326L165.93 316.331L185.109 349.384C186.751 352.215 189.722 353.798 192.777 353.798C194.598 353.798 196.45 353.236 198.065 352.038C201.727 349.325 202.555 344.159 200.267 340.215L192.415 326.682H203.175C208.354 326.682 212.494 322.236 211.99 316.954C211.55 312.35 207.42 308.969 202.793 308.969ZM94.203 330.705L88.6812 340.219C86.3946 344.162 87.2255 349.328 90.889 352.042C92.5041 353.238 94.3544 353.799 96.174 353.799C99.2288 353.799 102.2 352.216 103.842 349.385L112.155 335.059C112.414 334.613 112.329 334.033 111.937 333.697C108.631 330.863 104.546 329.18 100.116 329.18C98.4172 329.18 96.7731 329.438 95.1998 329.905C94.7763 330.03 94.4236 330.325 94.203 330.705Z" fill="white"/>
</g>
<defs>
<linearGradient id="paint0_linear" x1="53" y1="202" x2="53" y2="385" gradientUnits="userSpaceOnUse">
<stop stop-color="#19E6FF"/>
<stop offset="1" stop-color="#1E51EE"/>
</linearGradient>
</defs>
</svg>
