<svg width="145" height="37" viewBox="0 0 145 37" fill="none" xmlns="http://www.w3.org/2000/svg">
<path d="M22.9903 17.1936C22.9518 13.1091 26.49 11.122 26.6518 11.0295C24.648 8.23768 21.5421 7.85623 20.4507 7.82582C17.8422 7.56349 15.3119 9.31741 13.9831 9.31741C12.6277 9.31741 10.5815 7.85116 8.37609 7.89425C5.53813 7.93607 2.88318 9.50624 1.42707 11.9445C-1.57799 16.9161 0.663202 24.222 3.54228 28.2406C4.98248 30.2087 6.66536 32.4061 8.8681 32.3288C11.0231 32.2439 11.8281 31.0159 14.4286 31.0159C17.0054 31.0159 17.7613 32.3288 20.0078 32.2794C22.3206 32.2439 23.7767 30.3024 25.1665 28.3166C26.8308 26.0608 27.4992 23.8393 27.5257 23.7252C27.4713 23.7075 23.034 22.0891 22.9903 17.1936Z" fill="white"/>
<path d="M18.7452 5.18194C19.9043 3.7968 20.6973 1.91234 20.4772 0C18.7996 0.0709682 16.7016 1.10888 15.4935 2.46361C14.4246 3.65739 13.4698 5.61409 13.7165 7.45419C15.6009 7.58852 17.5358 6.54554 18.7452 5.18194Z" fill="white"/>
<path d="M54.1454 32.0452H51.1337L49.484 27.0914H43.7497L42.1782 32.0452H39.2461L44.9273 15.1802H48.4363L54.1454 32.0452ZM48.9867 25.0131L47.4948 20.6092C47.3369 20.1594 47.0412 19.0999 46.6049 17.4321H46.5519C46.3781 18.1494 46.0983 19.2089 45.7137 20.6092L44.2483 25.0131H48.9867Z" fill="white"/>
<path d="M68.7559 25.8148C68.7559 27.8831 68.1711 29.5179 67.0014 30.718C65.9538 31.7863 64.6528 32.3198 63.0999 32.3198C61.4236 32.3198 60.2195 31.7445 59.4861 30.5938H59.4331V36.9999H56.6057V23.8873C56.6057 22.5871 56.5699 21.2526 56.501 19.8839H58.9875L59.1453 21.8115H59.1984C60.1413 20.3592 61.5722 19.6343 63.4924 19.6343C64.9936 19.6343 66.2469 20.2008 67.2494 21.335C68.2547 22.4705 68.7559 23.9633 68.7559 25.8148ZM65.8755 25.9137C65.8755 24.73 65.597 23.7542 65.0374 22.9863C64.4261 22.1853 63.6052 21.7849 62.5761 21.7849C61.8785 21.7849 61.2446 22.0079 60.6783 22.4477C60.1108 22.8912 59.7394 23.4704 59.5657 24.1876C59.4782 24.5222 59.4344 24.7959 59.4344 25.0114V27.039C59.4344 27.9236 59.7182 28.67 60.2858 29.2796C60.8534 29.8892 61.5907 30.1933 62.4978 30.1933C63.5627 30.1933 64.3916 29.8005 64.9844 29.0173C65.5785 28.2328 65.8755 27.1987 65.8755 25.9137Z" fill="white"/>
<path d="M83.3913 25.8148C83.3913 27.8831 82.8065 29.5179 81.6355 30.718C80.5892 31.7863 79.2882 32.3198 77.7353 32.3198C76.059 32.3198 74.8549 31.7445 74.1229 30.5938H74.0698V36.9999H71.2425V23.8873C71.2425 22.5871 71.2067 21.2526 71.1377 19.8839H73.6242L73.782 21.8115H73.8351C74.7766 20.3592 76.2076 19.6343 78.1292 19.6343C79.629 19.6343 80.8823 20.2008 81.8875 21.335C82.8887 22.4705 83.3913 23.9633 83.3913 25.8148ZM80.5109 25.9137C80.5109 24.73 80.2311 23.7542 79.6715 22.9863C79.0601 22.1853 78.2419 21.7849 77.2115 21.7849C76.5126 21.7849 75.88 22.0079 75.3124 22.4477C74.7448 22.8912 74.3748 23.4704 74.2011 24.1876C74.1149 24.5222 74.0698 24.7959 74.0698 25.0114V27.039C74.0698 27.9236 74.3536 28.67 74.9185 29.2796C75.4861 29.8879 76.2235 30.1933 77.1332 30.1933C78.1981 30.1933 79.027 29.8005 79.6198 29.0173C80.2139 28.2328 80.5109 27.1987 80.5109 25.9137Z" fill="white"/>
<path d="M99.7553 27.3155C99.7553 28.7501 99.2342 29.9173 98.1878 30.8183C97.0381 31.803 95.4374 32.2947 93.3805 32.2947C91.4815 32.2947 89.9591 31.9449 88.8066 31.2441L89.4618 28.9922C90.703 29.7094 92.065 30.0694 93.549 30.0694C94.6139 30.0694 95.4427 29.8387 96.0381 29.3799C96.6309 28.9212 96.9267 28.3053 96.9267 27.5373C96.9267 26.853 96.6826 26.2764 96.1933 25.8087C95.7066 25.3411 94.8937 24.9064 93.7585 24.5047C90.6686 23.4034 89.1249 21.7902 89.1249 19.6687C89.1249 18.2823 89.666 17.1455 90.7495 16.261C91.8289 15.3751 93.2691 14.9329 95.0701 14.9329C96.676 14.9329 98.0101 15.2003 99.075 15.7338L98.3682 17.9363C97.3736 17.4193 96.249 17.1608 94.9905 17.1608C93.9959 17.1608 93.2188 17.3952 92.6618 17.8616C92.191 18.2785 91.9549 18.7867 91.9549 19.3886C91.9549 20.0552 92.2241 20.6065 92.7652 21.0399C93.236 21.4404 94.0914 21.8738 95.3326 22.3414C96.8511 22.9256 97.9664 23.6087 98.6838 24.3919C99.3986 25.1726 99.7553 26.1496 99.7553 27.3155Z" fill="white"/>
<path d="M109.105 21.912H105.988V27.8163C105.988 29.318 106.537 30.0683 107.638 30.0683C108.143 30.0683 108.562 30.0264 108.894 29.9428L108.972 31.9945C108.415 32.1935 107.682 32.2936 106.773 32.2936C105.657 32.2936 104.784 31.9679 104.154 31.3178C103.527 30.6664 103.211 29.574 103.211 28.0393V21.9095H101.354V19.8818H103.211V17.6552L105.988 16.8542V19.8818H109.105V21.912Z" fill="white"/>
<path d="M123.166 25.8642C123.166 27.7335 122.606 29.2682 121.489 30.4683C120.318 31.7039 118.764 32.3198 116.827 32.3198C114.959 32.3198 113.473 31.728 112.364 30.5443C111.256 29.3607 110.701 27.8665 110.701 26.0657C110.701 24.1813 111.271 22.6377 112.416 21.4376C113.558 20.2362 115.099 19.6355 117.036 19.6355C118.903 19.6355 120.406 20.2273 121.54 21.4122C122.625 22.5617 123.166 24.0457 123.166 25.8642ZM120.232 25.9517C120.232 24.8301 119.982 23.8682 119.474 23.066C118.881 22.0953 118.033 21.6112 116.935 21.6112C115.799 21.6112 114.936 22.0966 114.343 23.066C113.835 23.8695 113.584 24.8466 113.584 26.0024C113.584 27.1239 113.835 28.0858 114.343 28.8867C114.954 29.8574 115.808 30.3416 116.91 30.3416C117.99 30.3416 118.837 29.8473 119.448 28.8614C119.97 28.044 120.232 27.0719 120.232 25.9517Z" fill="white"/>
<path d="M132.356 22.2601C132.076 22.2107 131.778 22.1853 131.465 22.1853C130.471 22.1853 129.701 22.544 129.16 23.2625C128.69 23.8962 128.453 24.6971 128.453 25.664V32.0448H125.627L125.654 23.7137C125.654 22.3121 125.618 21.0359 125.548 19.8852H128.011L128.114 22.2119H128.192C128.491 21.4123 128.961 20.7685 129.606 20.2857C130.236 19.851 130.916 19.6343 131.649 19.6343C131.911 19.6343 132.147 19.652 132.356 19.6837V22.2601Z" fill="white"/>
<path d="M145 25.3891C145 25.8732 144.967 26.2813 144.896 26.6146H136.414C136.447 27.816 136.857 28.7348 137.645 29.3684C138.36 29.9349 139.284 30.2188 140.419 30.2188C141.675 30.2188 142.821 30.0274 143.851 29.6434L144.294 31.519C143.09 32.0209 141.669 32.2705 140.028 32.2705C138.055 32.2705 136.506 31.7154 135.379 30.6066C134.254 29.4977 133.69 28.0086 133.69 26.1406C133.69 24.3069 134.214 22.7798 135.263 21.5619C136.361 20.2617 137.845 19.6116 139.712 19.6116C141.547 19.6116 142.935 20.2617 143.878 21.5619C144.625 22.5948 145 23.8722 145 25.3891ZM142.304 24.6883C142.322 23.8874 142.138 23.1955 141.755 22.6112C141.265 21.8597 140.513 21.4846 139.502 21.4846C138.577 21.4846 137.825 21.8509 137.251 22.5859C136.78 23.1701 136.501 23.8709 136.414 24.6871H142.304V24.6883Z" fill="white"/>
<path d="M49.3833 11.0588H47.9126V8.96239H42.036V11.0588H40.5408L40.4918 7.77951H41.2087C41.5642 7.45158 41.8481 6.97531 42.0605 6.35068C42.2729 5.72216 42.4098 5.01165 42.4711 4.21916L42.7039 0.436279H48.3293V7.77951H49.4629L49.3833 11.0588ZM42.9613 7.77951H46.7851V1.63087H44.1807L44.0337 4.03177C43.9234 5.63627 43.5659 6.88552 42.9613 7.77951Z" fill="white"/>
<path d="M50.8319 5.73582C50.8319 5.1151 50.9606 4.55684 51.218 4.06105C51.4753 3.56135 51.8369 3.17877 52.3026 2.9133C52.7683 2.64393 53.3035 2.50925 53.9081 2.50925C54.8027 2.50925 55.5279 2.78447 56.0835 3.33492C56.6431 3.88537 56.9454 4.6154 56.9904 5.52501L56.9965 5.85879C56.9965 6.48342 56.8699 7.04167 56.6166 7.53356C56.3674 8.02546 56.0079 8.40609 55.5381 8.67546C55.0724 8.94482 54.5331 9.07951 53.9203 9.07951C52.9848 9.07951 52.2352 8.78281 51.6714 8.18942C51.1117 7.59212 50.8319 6.79768 50.8319 5.80609V5.73582ZM52.321 5.85879C52.321 6.51074 52.4619 7.02215 52.7438 7.39302C53.0257 7.75999 53.4178 7.94347 53.9203 7.94347C54.4228 7.94347 54.813 7.75609 55.0907 7.38131C55.3726 7.00654 55.5136 6.45804 55.5136 5.73582C55.5136 5.09558 55.3685 4.58807 55.0785 4.2133C54.7925 3.83853 54.4024 3.65114 53.9081 3.65114C53.4219 3.65114 53.0359 3.83657 52.7499 4.20744C52.4639 4.57441 52.321 5.12486 52.321 5.85879Z" fill="white"/>
<path d="M61.6071 7.94347C61.9788 7.94347 62.2873 7.84002 62.5324 7.63311C62.7775 7.42621 62.9082 7.1705 62.9246 6.866H64.3278C64.3115 7.26029 64.1828 7.62921 63.9418 7.97275C63.7008 8.31239 63.3739 8.58176 62.9613 8.78086C62.5487 8.97996 62.1034 9.07951 61.6255 9.07951C60.6981 9.07951 59.9628 8.79257 59.4195 8.2187C58.8761 7.64482 58.6044 6.85233 58.6044 5.84123V5.69483C58.6044 4.73057 58.8741 3.95955 59.4133 3.38177C59.9526 2.80009 60.6879 2.50925 61.6193 2.50925C62.4078 2.50925 63.0492 2.72982 63.5435 3.17096C64.0419 3.6082 64.3033 4.18402 64.3278 4.89843H62.9246C62.9082 4.53537 62.7775 4.23672 62.5324 4.00249C62.2914 3.76826 61.9829 3.65114 61.6071 3.65114C61.125 3.65114 60.7533 3.81901 60.4918 4.15474C60.2304 4.48657 60.0976 4.99213 60.0935 5.67141V5.89978C60.0935 6.58687 60.2222 7.10023 60.4796 7.43987C60.741 7.77561 61.1169 7.94347 61.6071 7.94347Z" fill="white"/>
<path d="M71.2976 3.75654H69.1468V8.96239H67.6577V3.75654H65.5314V2.62637H71.2976V3.75654Z" fill="white"/>
<path d="M75.3138 6.92456L76.662 2.62637H78.2491L75.6141 9.92275C75.2097 10.9885 74.5233 11.5214 73.5551 11.5214C73.3386 11.5214 73.0996 11.4863 72.8382 11.416V10.3151L73.1201 10.3327C73.4959 10.3327 73.7778 10.2663 73.9657 10.1336C74.1577 10.0047 74.3089 9.78611 74.4192 9.47771L74.6336 8.93311L72.3051 2.62637H73.9106L75.3138 6.92456Z" fill="white"/>
<path d="M85.3598 8.96239H83.8707V3.77411H81.2848V8.96239H79.7957V2.62637H85.3598V8.96239Z" fill="white"/>
<path d="M93.1875 8.96239H91.6984V6.40339H89.1186V8.96239H87.6296V2.62637H89.1186V5.26735H91.6984V2.62637H93.1875V8.96239Z" fill="white"/>
<path d="M95.1264 5.73582C95.1264 5.1151 95.255 4.55684 95.5124 4.06105C95.7698 3.56135 96.1313 3.17877 96.597 2.9133C97.0627 2.64393 97.5979 2.50925 98.2025 2.50925C99.0972 2.50925 99.8223 2.78447 100.378 3.33492C100.938 3.88537 101.24 4.6154 101.285 5.52501L101.291 5.85879C101.291 6.48342 101.164 7.04167 100.911 7.53356C100.662 8.02546 100.302 8.40609 99.8325 8.67546C99.3668 8.94482 98.8276 9.07951 98.2148 9.07951C97.2793 9.07951 96.5296 8.78281 95.9659 8.18942C95.4062 7.59212 95.1264 6.79768 95.1264 5.80609V5.73582ZM96.6154 5.85879C96.6154 6.51074 96.7564 7.02215 97.0382 7.39302C97.3201 7.75999 97.7123 7.94347 98.2148 7.94347C98.7173 7.94347 99.1074 7.75609 99.3852 7.38131C99.6671 7.00654 99.808 6.45804 99.808 5.73582C99.808 5.09558 99.663 4.58807 99.3729 4.2133C99.087 3.83853 98.6968 3.65114 98.2025 3.65114C97.7164 3.65114 97.3303 3.83657 97.0444 4.20744C96.7584 4.57441 96.6154 5.12486 96.6154 5.85879Z" fill="white"/>
<path d="M107.044 8.96239V2.62637H109.734C110.641 2.62637 111.331 2.77862 111.805 3.08312C112.279 3.38372 112.516 3.81705 112.516 4.38312C112.516 4.67591 112.42 4.93942 112.228 5.17366C112.04 5.40399 111.76 5.58162 111.388 5.70654C111.821 5.79243 112.165 5.96615 112.418 6.22771C112.671 6.48927 112.798 6.79768 112.798 7.15294C112.798 7.74242 112.569 8.19137 112.111 8.49978C111.658 8.80819 111.004 8.96239 110.151 8.96239H107.044ZM108.533 6.26285V7.83807H110.163C110.927 7.83807 111.309 7.57651 111.309 7.05339C111.309 6.52636 110.921 6.26285 110.144 6.26285H108.533ZM108.533 5.24393H109.758C110.604 5.24393 111.027 5.00579 111.027 4.52952C111.027 4.02982 110.627 3.77216 109.826 3.75654H108.533V5.24393Z" fill="white"/>
</svg>
