<svg width="145" height="33" viewBox="0 0 145 33" fill="none" xmlns="http://www.w3.org/2000/svg">
<path d="M72.8067 18.1629C71.7557 18.1677 70.7297 18.4737 69.8583 19.0422C68.9868 19.6107 68.3089 20.4163 67.9101 21.3573C67.5113 22.2983 67.4096 23.3325 67.6176 24.3294C67.8257 25.3263 68.3343 26.2413 69.0792 26.9587C69.8241 27.6762 70.772 28.1641 71.8031 28.3607C72.8343 28.5574 73.9026 28.454 74.8731 28.0637C75.8436 27.6734 76.6729 27.0137 77.2563 26.1677C77.8397 25.3217 78.1511 24.3275 78.1511 23.3104C78.1613 22.6297 78.0299 21.9539 77.7646 21.3233C77.4993 20.6927 77.1056 20.1203 76.6069 19.64C76.1083 19.1597 75.5148 18.7814 74.862 18.5277C74.2091 18.2739 73.5101 18.1499 72.8067 18.1629ZM72.8067 26.4353C72.1603 26.479 71.5153 26.3336 70.9555 26.0179C70.3957 25.7022 69.947 25.2308 69.6677 24.6651C69.3883 24.0993 69.2914 23.4653 69.3894 22.8455C69.4873 22.2257 69.7757 21.6488 70.2171 21.1897C70.6584 20.7306 71.2322 20.4106 71.8639 20.2713C72.4957 20.132 73.1561 20.1798 73.7594 20.4086C74.3627 20.6373 74.8809 21.0364 75.2467 21.5539C75.6125 22.0714 75.809 22.6834 75.8106 23.3104C75.8307 23.7077 75.7685 24.1049 75.6275 24.4785C75.4865 24.8522 75.2697 25.1947 74.9897 25.4859C74.7097 25.7772 74.3723 26.0112 73.9974 26.1742C73.6225 26.3373 73.2176 26.426 72.8067 26.4353ZM61.1541 18.1629C60.1026 18.1653 59.0754 18.4693 58.2022 19.0363C57.3291 19.6034 56.6493 20.4082 56.2486 21.349C55.8479 22.2897 55.7443 23.3244 55.951 24.3221C56.1576 25.3198 56.6653 26.2358 57.4097 26.9545C58.1541 27.6732 59.1019 28.1623 60.1335 28.3599C61.165 28.5575 62.2339 28.4549 63.2051 28.0649C64.1764 27.675 65.0064 27.0152 65.5904 26.169C66.1743 25.3227 66.486 24.328 66.486 23.3104C66.4962 22.6297 66.3648 21.9539 66.0995 21.3233C65.8342 20.6927 65.4405 20.1203 64.9418 19.64C64.4432 19.1597 63.8497 18.7814 63.1969 18.5277C62.544 18.2739 61.845 18.1499 61.1416 18.1629H61.1541ZM61.1541 26.4353C60.5074 26.4815 59.8614 26.3382 59.3 26.0241C58.7386 25.7101 58.288 25.2397 58.0067 24.6743C57.7255 24.109 57.6266 23.4747 57.723 22.8542C57.8195 22.2337 58.1067 21.6557 58.5474 21.1954C58.988 20.735 59.5617 20.4137 60.1937 20.2733C60.8257 20.1329 61.4867 20.1799 62.0908 20.4081C62.6948 20.6363 63.2138 21.0352 63.5803 21.5529C63.9468 22.0705 64.1437 22.683 64.1455 23.3104C64.1656 23.7077 64.1034 24.1049 63.9624 24.4785C63.8214 24.8522 63.6046 25.1947 63.3246 25.4859C63.0446 25.7772 62.7072 26.0112 62.3323 26.1742C61.9574 26.3373 61.5525 26.426 61.1416 26.4353H61.1541ZM47.2737 19.7496V21.9297H52.6806C52.5959 22.9565 52.1548 23.9255 51.429 24.6791C50.8881 25.2123 50.2378 25.63 49.5199 25.9053C48.8021 26.1807 48.0327 26.3076 47.2611 26.2778C45.6678 26.2778 44.1397 25.6653 43.013 24.575C41.8863 23.4848 41.2534 22.0061 41.2534 20.4642C41.2534 18.9223 41.8863 17.4436 43.013 16.3533C44.1397 15.263 45.6678 14.6505 47.2611 14.6505C48.7853 14.6265 50.2572 15.1884 51.3539 16.213L52.9435 14.6748C52.2031 13.9493 51.3198 13.375 50.3459 12.986C49.372 12.5969 48.3273 12.401 47.2737 12.4099C46.161 12.368 45.051 12.5439 44.0102 12.927C42.9694 13.3101 42.0193 13.8927 41.2168 14.6396C40.4142 15.3866 39.7757 16.2827 39.3396 17.2742C38.9035 18.2657 38.6787 19.3321 38.6787 20.4097C38.6787 21.4872 38.9035 22.5537 39.3396 23.5452C39.7757 24.5366 40.4142 25.4327 41.2168 26.1797C42.0193 26.9267 42.9694 27.5092 44.0102 27.8924C45.051 28.2755 46.161 28.4514 47.2737 28.4095C48.345 28.4563 49.4142 28.2806 50.4095 27.8941C51.4048 27.5076 52.303 26.9193 53.0436 26.1688C54.3549 24.7747 55.055 22.942 54.9961 21.0577C55.0002 20.5986 54.9583 20.1403 54.871 19.689L47.2737 19.7496ZM103.985 21.4452C103.658 20.5159 103.048 19.7045 102.234 19.1184C101.421 18.5322 100.442 18.1991 99.4287 18.1629C98.744 18.1616 98.0664 18.2963 97.4376 18.5584C96.8089 18.8206 96.2424 19.2048 95.7731 19.6872C95.3039 20.1697 94.9419 20.7401 94.7096 21.3633C94.4772 21.9865 94.3794 22.6492 94.4222 23.3104C94.407 23.9874 94.5329 24.6603 94.7925 25.2891C95.052 25.9179 95.4399 26.4896 95.9329 26.9701C96.4259 27.4506 97.014 27.83 97.6619 28.0856C98.3098 28.3412 99.0044 28.4679 99.704 28.4579C100.58 28.4625 101.443 28.2569 102.216 27.8595C102.989 27.4621 103.648 26.8854 104.135 26.1809L102.32 24.9697C102.049 25.4067 101.666 25.7682 101.207 26.0187C100.748 26.2692 100.231 26.4002 99.704 26.3989C99.1618 26.4189 98.626 26.2806 98.1662 26.002C97.7064 25.7233 97.3438 25.3172 97.1257 24.8365L104.247 21.9903L103.985 21.4452ZM96.7251 23.1651C96.6998 22.7905 96.7519 22.4147 96.8785 22.0598C97.0051 21.7049 97.2035 21.3781 97.4623 21.0983C97.7211 20.8186 98.0349 20.5917 98.3855 20.4308C98.736 20.2699 99.1162 20.1783 99.5037 20.1614C99.9075 20.1356 100.31 20.2252 100.662 20.419C101.013 20.6128 101.298 20.9023 101.481 21.2514L96.7251 23.1651ZM90.9427 28.1551H93.2832V13.0155H90.9427V28.1551ZM87.1127 19.3136H87.0251C86.6723 18.9319 86.2402 18.6267 85.7571 18.418C85.2739 18.2093 84.7506 18.1017 84.2215 18.1024C82.8537 18.1666 81.5638 18.7376 80.6193 19.697C79.6747 20.6564 79.1478 21.9308 79.1478 23.2559C79.1478 24.5811 79.6747 25.8554 80.6193 26.8149C81.5638 27.7743 82.8537 28.3453 84.2215 28.4095C84.7519 28.4181 85.2778 28.3141 85.7621 28.1049C86.2465 27.8956 86.6776 27.5862 87.0251 27.1983H87.1002V27.9371C87.1002 29.9113 86.0113 30.9651 84.259 30.9651C83.6754 30.9518 83.1091 30.7709 82.6321 30.4452C82.1551 30.1195 81.7891 29.6638 81.5806 29.1362L79.5404 29.9598C79.9244 30.8638 80.5788 31.6361 81.4195 32.1778C82.2602 32.7194 83.249 33.0057 84.259 32.9998C87.0001 32.9998 89.2655 31.4374 89.2655 27.6343V18.4657H87.1127V19.3136ZM84.4342 26.4353C83.6269 26.3664 82.8755 26.0074 82.3281 25.429C81.7807 24.8506 81.4771 24.0947 81.4771 23.3104C81.4771 22.5261 81.7807 21.7703 82.3281 21.1919C82.8755 20.6135 83.6269 20.2545 84.4342 20.1856C84.8345 20.2055 85.2267 20.3027 85.5876 20.4715C85.9484 20.6403 86.2708 20.8773 86.5355 21.1685C86.8003 21.4597 87.0022 21.7992 87.1292 22.1671C87.2563 22.5349 87.306 22.9237 87.2754 23.3104C87.3096 23.6989 87.2619 24.0899 87.1354 24.46C87.0089 24.8301 86.8062 25.1715 86.5394 25.4636C86.2727 25.7557 85.9475 25.9925 85.5835 26.1595C85.2195 26.3265 84.8243 26.4203 84.4217 26.4353H84.4342ZM114.949 13.0155H109.354V28.1551H111.695V22.4142H114.961C115.628 22.4605 116.298 22.3734 116.929 22.1583C117.56 21.9431 118.138 21.6045 118.627 21.1636C119.117 20.7227 119.507 20.1889 119.774 19.5956C120.041 19.0022 120.179 18.362 120.179 17.7148C120.179 17.0676 120.041 16.4274 119.774 15.8341C119.507 15.2407 119.117 14.7069 118.627 14.266C118.138 13.8251 117.56 13.4865 116.929 13.2713C116.298 13.0562 115.628 12.9691 114.961 13.0155H114.949ZM114.949 20.2825H111.682V15.1229H114.999C115.711 15.1229 116.394 15.3966 116.897 15.8838C117.401 16.371 117.684 17.0318 117.684 17.7209C117.684 18.4099 117.401 19.0707 116.897 19.5579C116.394 20.0451 115.711 20.3188 114.999 20.3188L114.949 20.2825ZM129.38 18.1024C128.528 18.0531 127.679 18.2458 126.939 18.6568C126.199 19.0677 125.598 19.6791 125.212 20.4157L127.29 21.2514C127.495 20.8861 127.805 20.5863 128.183 20.3884C128.56 20.1906 128.989 20.1033 129.417 20.1372C129.715 20.1036 130.016 20.1276 130.303 20.2078C130.59 20.288 130.859 20.4228 131.092 20.6043C131.325 20.7858 131.518 21.0104 131.66 21.265C131.803 21.5196 131.891 21.7991 131.921 22.0872V22.2446C131.169 21.8594 130.331 21.6598 129.48 21.6632C127.24 21.6632 124.974 22.8744 124.974 25.0666C124.996 25.5341 125.115 25.9925 125.323 26.4147C125.532 26.837 125.825 27.2146 126.187 27.5251C126.549 27.8356 126.971 28.0728 127.429 28.2226C127.888 28.3724 128.372 28.4319 128.854 28.3974C129.444 28.4383 130.034 28.325 130.562 28.0693C131.091 27.8135 131.538 27.4248 131.858 26.944H131.933V28.1551H134.186V22.3294C134.186 19.6769 132.108 18.1387 129.442 18.1387L129.38 18.1024ZM129.092 26.3989C128.329 26.3989 127.265 26.0235 127.265 25.1151C127.265 23.9039 128.591 23.5042 129.768 23.5042C130.511 23.4865 131.246 23.6622 131.896 24.0129C131.817 24.6687 131.497 25.2749 130.993 25.72C130.49 26.1652 129.837 26.4192 129.155 26.4353L129.092 26.3989ZM142.397 18.4657L139.718 25.0303H139.643L136.865 18.4657H134.361L138.529 27.6464L136.151 32.7455H138.592L145 18.4657H142.397ZM121.357 28.1551H123.698V13.0155H121.357V28.1551Z" fill="white"/>
<path d="M40.2275 9.10315H39.3013V6.6808H40.0898C40.4493 6.31211 40.7209 5.87155 40.8852 5.39021C41.0496 4.90888 41.1028 4.3985 41.041 3.8951V0.29791H46.0475V6.66869H46.8861V9.09104H45.9599V7.56496H40.2275V9.10315ZM41.9672 3.93143C42.0256 4.90841 41.7769 5.8796 41.2538 6.71713H45.0087V1.19418H41.9672V3.93143ZM54.3708 6.62024C53.6391 7.32435 52.6491 7.71959 51.6172 7.71959C50.5853 7.71959 49.5954 7.32435 48.8636 6.62024C48.1524 5.89175 47.7562 4.92755 47.7562 3.92538C47.7562 2.92321 48.1524 1.95901 48.8636 1.23051C49.2243 0.878963 49.6533 0.599947 50.1259 0.409544C50.5985 0.219142 51.1053 0.121117 51.6172 0.121117C52.1291 0.121117 52.636 0.219142 53.1086 0.409544C53.5811 0.599947 54.0101 0.878963 54.3708 1.23051C55.0848 1.95762 55.4829 2.92234 55.4829 3.92538C55.4829 4.92842 55.0848 5.89314 54.3708 6.62024ZM49.5771 6.01465C50.1189 6.53682 50.8525 6.82998 51.6172 6.82998C52.3819 6.82998 53.1155 6.53682 53.6574 6.01465C54.1921 5.44421 54.4883 4.70161 54.4883 3.93143C54.4883 3.16126 54.1921 2.41865 53.6574 1.84821C53.1155 1.32605 52.3819 1.03288 51.6172 1.03288C50.8525 1.03288 50.1189 1.32605 49.5771 1.84821C49.0423 2.41865 48.7461 3.16126 48.7461 3.93143C48.7461 4.70161 49.0423 5.44421 49.5771 6.01465ZM60.341 7.72241C59.8243 7.73235 59.3109 7.64099 58.8316 7.45384C58.3524 7.26669 57.9172 6.98762 57.5524 6.63343C57.1875 6.27924 56.9005 5.85725 56.7087 5.39289C56.5168 4.92853 56.424 4.4314 56.4359 3.93143C56.424 3.43146 56.5168 2.93433 56.7087 2.46997C56.9005 2.00561 57.1875 1.58363 57.5524 1.22944C57.9172 0.87525 58.3524 0.596175 58.8316 0.409025C59.3109 0.221874 59.8243 0.130519 60.341 0.140458C60.8647 0.127909 61.3846 0.230369 61.8615 0.440144C62.3384 0.649919 62.76 0.961554 63.0946 1.35163L62.4187 1.98144C62.1715 1.67774 61.8527 1.4357 61.4891 1.27556C61.1255 1.11543 60.7275 1.04184 60.3285 1.06095C59.9443 1.05129 59.5621 1.11715 59.205 1.25455C58.8478 1.39195 58.5232 1.59803 58.2508 1.86033C57.7081 2.43418 57.4072 3.18385 57.4072 3.96171C57.4072 4.73957 57.7081 5.48925 58.2508 6.0631C58.5232 6.3254 58.8478 6.53148 59.205 6.66888C59.5621 6.80628 59.9443 6.87214 60.3285 6.86248C60.769 6.85867 61.2032 6.75995 61.5994 6.5735C61.9956 6.38704 62.3439 6.11753 62.619 5.78453L63.2948 6.43856C62.9542 6.8384 62.5269 7.16091 62.0432 7.38328C61.5089 7.61744 60.9274 7.73329 60.341 7.72241ZM67.2249 7.56496H66.2612V1.19418H64.1585V0.29791H69.3151V1.19418H67.2249V7.56496ZM75.9487 0.29791L73.1075 6.42645C72.9938 6.78898 72.7665 7.10839 72.4571 7.34054C72.1477 7.57269 71.7715 7.70613 71.3803 7.72241C71.1216 7.71923 70.8662 7.66568 70.6293 7.56496L70.8796 6.70502C71.0317 6.79074 71.2043 6.83665 71.3803 6.83825C71.5643 6.85166 71.748 6.80933 71.906 6.71713C72.0568 6.59361 72.173 6.43533 72.2439 6.25689L72.5193 5.67553L70.016 0.310022H71.155L73.0074 4.47646L74.8097 0.29791H75.9487ZM77.0376 7.56496V0.29791H82.4697V7.56496H81.5059V1.19418H78.0014V7.56496H77.0376ZM84.1844 7.56496V0.29791H85.1481V3.41063H88.903V0.29791H89.8667V7.56496H88.903V4.28267H85.1481V7.56496H84.1844ZM97.7394 6.62024C97.0077 7.32435 96.0178 7.71959 94.9858 7.71959C93.9539 7.71959 92.964 7.32435 92.2323 6.62024C91.5211 5.89175 91.1248 4.92755 91.1248 3.92538C91.1248 2.92321 91.5211 1.95901 92.2323 1.23051C92.5929 0.878963 93.0219 0.599947 93.4945 0.409544C93.9671 0.219142 94.4739 0.121117 94.9858 0.121117C95.4978 0.121117 96.0046 0.219142 96.4772 0.409544C96.9498 0.599947 97.3788 0.878963 97.7394 1.23051C98.4534 1.95762 98.8516 2.92234 98.8516 3.92538C98.8516 4.92842 98.4534 5.89314 97.7394 6.62024ZM92.9457 6.01465C93.4876 6.53682 94.2211 6.82998 94.9858 6.82998C95.7506 6.82998 96.4841 6.53682 97.026 6.01465C97.5607 5.44421 97.8569 4.70161 97.8569 3.93143C97.8569 3.16126 97.5607 2.41865 97.026 1.84821C96.4841 1.32605 95.7506 1.03288 94.9858 1.03288C94.2211 1.03288 93.4876 1.32605 92.9457 1.84821C92.411 2.41865 92.1148 3.16126 92.1148 3.93143C92.1148 4.70161 92.411 5.44421 92.9457 6.01465ZM102.783 7.56496V0.29791H105.499C106.063 0.287603 106.61 0.487013 107.026 0.855049C107.236 1.03069 107.402 1.24866 107.515 1.49353C107.627 1.7384 107.683 2.0042 107.677 2.27212C107.683 2.59498 107.587 2.91188 107.402 3.1805C107.218 3.44143 106.962 3.64708 106.663 3.77398C107.027 3.89028 107.345 4.10976 107.577 4.40379C107.818 4.70053 107.946 5.06822 107.94 5.4454C107.947 5.72462 107.889 6.00176 107.772 6.25715C107.656 6.51253 107.482 6.73988 107.264 6.92303C106.828 7.31205 106.255 7.52447 105.662 7.51651L102.783 7.56496ZM103.747 3.41063H105.499C105.663 3.41724 105.826 3.38924 105.978 3.32858C106.129 3.26791 106.265 3.17605 106.376 3.05939C106.486 2.96215 106.576 2.84431 106.639 2.7129C106.701 2.58149 106.736 2.4392 106.741 2.29452C106.745 2.14984 106.72 2.00573 106.666 1.87078C106.612 1.73584 106.53 1.61283 106.426 1.50908C106.321 1.3946 106.192 1.30378 106.047 1.24308C105.902 1.18238 105.745 1.15328 105.587 1.15784H103.797L103.747 3.41063ZM103.747 6.66869H105.687C105.857 6.67419 106.025 6.64339 106.181 6.57848C106.337 6.51358 106.476 6.41617 106.588 6.29322C106.809 6.07173 106.934 5.77727 106.939 5.46963C106.939 5.1484 106.807 4.84033 106.572 4.61319C106.338 4.38606 106.019 4.25845 105.687 4.25845H103.785L103.747 6.66869Z" fill="white"/>
<path fill-rule="evenodd" clip-rule="evenodd" d="M51.6172 0.242235C51.1218 0.242235 50.6313 0.337098 50.174 0.521358C49.7171 0.705425 49.3024 0.97507 48.9536 1.31478C48.265 2.02066 47.8814 2.95464 47.8814 3.92538C47.8814 4.89599 48.2649 5.82984 48.9533 6.53569C49.6614 7.2164 50.619 7.59847 51.6172 7.59847C52.6154 7.59847 53.5731 7.21636 54.2813 6.53558C54.9724 5.83113 55.3578 4.8968 55.3578 3.92538C55.3578 2.95383 54.9723 2.01939 54.281 1.3149C53.9322 0.975136 53.5174 0.705448 53.0605 0.521358C52.6031 0.337098 52.1126 0.242235 51.6172 0.242235ZM50.0778 0.297731C50.5656 0.101187 51.0888 0 51.6172 0C52.1456 0 52.6688 0.101187 53.1567 0.297731C53.6445 0.494275 54.0873 0.782292 54.4596 1.14518L54.4615 1.14706C55.1977 1.89668 55.6081 2.89128 55.6081 3.92538C55.6081 4.95947 55.1976 5.95406 54.4615 6.70367L54.4591 6.70616C53.7039 7.43284 52.6822 7.84071 51.6172 7.84071C50.5522 7.84071 49.5305 7.4328 48.7754 6.70612L48.7726 6.70346C48.0395 5.95248 47.6311 4.95848 47.6311 3.92538C47.6311 2.89227 48.0395 1.89832 48.7727 1.14734L48.7748 1.14516C49.1471 0.782266 49.5899 0.494275 50.0778 0.297731ZM94.9859 0.242235C94.4905 0.242235 94 0.337098 93.5426 0.521358C93.0858 0.705415 92.6711 0.975038 92.3223 1.31472C91.6336 2.02061 91.25 2.95461 91.25 3.92538C91.25 4.89599 91.6335 5.82985 92.3219 6.5357C93.0301 7.2164 93.9877 7.59847 94.9859 7.59847C95.9841 7.59847 96.9418 7.21633 97.65 6.5355C98.3411 5.83106 98.7264 4.89676 98.7264 3.92538C98.7264 2.95385 98.341 2.01942 97.6497 1.31494C97.3008 0.975154 96.886 0.705454 96.4291 0.521358C95.9717 0.337098 95.4813 0.242235 94.9859 0.242235ZM93.4464 0.297731C93.9342 0.101187 94.4574 0 94.9859 0C95.5143 0 96.0375 0.101187 96.5253 0.297731C97.0131 0.494275 97.456 0.782292 97.8282 1.14518L97.8302 1.14706C98.5663 1.8967 98.9767 2.89128 98.9767 3.92538C98.9767 4.95947 98.5663 5.95406 97.8301 6.70367L97.8277 6.70616C97.0726 7.43284 96.0508 7.84071 94.9859 7.84071C93.9209 7.84071 92.8992 7.4328 92.144 6.70612L92.1413 6.70346C91.4081 5.95248 90.9997 4.95848 90.9997 3.92538C90.9997 2.89227 91.4082 1.89832 92.1413 1.14734L92.1434 1.14516C92.5157 0.782267 92.9586 0.494276 93.4464 0.297731ZM61.8097 0.550406C61.35 0.348204 60.8489 0.249443 60.3441 0.261538L60.3385 0.261672C59.8387 0.252058 59.342 0.340307 58.8785 0.521341C58.4149 0.702376 57.9939 0.97233 57.641 1.31495C57.2881 1.65756 57.0105 2.06575 56.8249 2.51494C56.6393 2.96412 56.5495 3.44501 56.5611 3.92864L56.5612 3.93423C56.5497 4.41786 56.6393 4.89874 56.8249 5.34793C57.0105 5.79711 57.2881 6.2053 57.641 6.54792C57.9939 6.89054 58.4149 7.16049 58.8785 7.34153C59.342 7.52256 59.8387 7.61093 60.3385 7.60132L60.341 7.72241L60.3434 7.60131C60.9108 7.61185 61.4735 7.49983 61.9905 7.27342C62.423 7.07442 62.8088 6.7925 63.1246 6.44516L62.6271 5.96372C62.3558 6.26331 62.0251 6.50781 61.6541 6.68242C61.2415 6.87659 60.7894 6.97946 60.3307 6.98358C59.9299 6.99352 59.5312 6.92475 59.1587 6.78143C58.7859 6.63797 58.447 6.42281 58.1625 6.14896L58.1584 6.14496C57.5946 5.54878 57.282 4.76984 57.282 3.96171C57.282 3.15358 57.5947 2.37474 58.1585 1.77856L58.1624 1.77437C58.4469 1.50052 58.7859 1.28545 59.1587 1.142C59.5301 0.999108 59.9275 0.930324 60.327 0.939757C60.7444 0.920494 61.1606 0.997813 61.541 1.16533C61.8809 1.31501 62.1834 1.53284 62.4288 1.80384L62.9226 1.34378C62.6131 1.00747 62.2341 0.737092 61.8097 0.550406ZM60.3411 7.84355C59.8083 7.85348 59.2789 7.75913 58.7848 7.56616C58.2899 7.37289 57.8405 7.0847 57.4637 6.71893C57.087 6.35317 56.7906 5.9174 56.5924 5.43786C56.3947 4.95919 56.2989 4.4468 56.3108 3.93143C56.2989 3.41607 56.3947 2.90368 56.5924 2.42501C56.7906 1.94547 57.087 1.5097 57.4637 1.14393C57.8405 0.778169 58.2899 0.489975 58.7848 0.296708C59.2788 0.103778 59.8081 0.00942974 60.3407 0.0193116C60.8824 0.00674072 61.42 0.112908 61.9133 0.329883C62.4074 0.547231 62.8442 0.870116 63.1909 1.27428L63.2651 1.36084L62.4059 2.16149L62.3204 2.05639C62.0855 1.76787 61.7827 1.53793 61.4373 1.3858C61.0918 1.23367 60.7138 1.16376 60.3347 1.18192L60.3252 1.18237C59.958 1.17313 59.5926 1.23575 59.2512 1.36709C58.9107 1.49809 58.6012 1.6944 58.3412 1.94419C57.8209 2.49544 57.5323 3.21506 57.5323 3.96171C57.5323 4.70836 57.8209 5.42799 58.3412 5.97924C58.6012 6.22903 58.9107 6.42533 59.2512 6.55633C59.5926 6.68768 59.958 6.75064 60.3252 6.7414L60.3274 6.74136C60.7493 6.73772 61.1652 6.64317 61.5446 6.46458C61.9241 6.28599 62.2577 6.02785 62.5212 5.7089L62.6085 5.60317L63.4637 6.43072L63.3914 6.51561C63.0391 6.92914 62.5972 7.26269 62.0969 7.49268L62.0949 7.49363C61.5444 7.73489 60.9452 7.85441 60.3411 7.84355ZM106.942 0.944489C106.549 0.597364 106.034 0.409285 105.502 0.419005L105.499 0.419027H102.909V7.44171L105.66 7.39541L105.664 7.3954C106.225 7.40293 106.767 7.20199 107.179 6.83401L107.182 6.83156C107.386 6.66007 107.549 6.44724 107.658 6.20813C107.767 5.96901 107.821 5.70951 107.815 5.44808L107.815 5.44359C107.82 5.09414 107.702 4.75349 107.479 4.47857L107.478 4.47734C107.261 4.20265 106.963 3.99761 106.624 3.88896L106.315 3.78984L106.613 3.66308C106.89 3.5454 107.128 3.35475 107.298 3.11288C107.469 2.86485 107.558 2.5723 107.552 2.27426V2.26975C107.557 2.01957 107.505 1.77138 107.4 1.54272C107.295 1.31406 107.14 1.11053 106.944 0.946523L106.942 0.944489ZM107.11 0.764627C106.67 0.376567 106.093 0.166213 105.498 0.176792H102.658V7.6882L105.66 7.63761L105.662 7.63764C106.286 7.64552 106.889 7.42211 107.348 7.01328C107.579 6.81866 107.763 6.57727 107.887 6.30617C108.011 6.03521 108.072 5.74122 108.065 5.445L108.065 5.44721L107.94 5.4454L108.065 5.44272L108.065 5.445C108.071 5.04111 107.934 4.64747 107.676 4.3296C107.485 4.08744 107.238 3.89278 106.958 3.7597C107.174 3.6281 107.36 3.45443 107.505 3.24871L107.506 3.24771C107.705 2.9592 107.808 2.61894 107.802 2.27221L107.802 2.2745L107.677 2.27212L107.802 2.26999L107.802 2.27221C107.808 1.98732 107.749 1.70474 107.629 1.44434C107.509 1.18374 107.332 0.951715 107.11 0.764627ZM40.9159 0.176792H46.1727V6.54757H47.0113V9.21215H45.8347V7.68607H40.3526V9.22427H39.1761V6.55968H40.0352C40.3641 6.21177 40.6134 5.8003 40.7664 5.35221C40.925 4.88771 40.9763 4.39517 40.9167 3.90937L40.9159 3.90226V0.176792ZM41.1662 0.419027V3.888C41.2287 4.40667 41.1734 4.93233 41.0041 5.42821C40.834 5.92638 40.5529 6.38235 40.1808 6.76393L40.1438 6.80192H39.4264V8.98203H40.1023V7.44384H46.0851V8.96992H46.7609V6.78981H45.9223V0.419027H41.1662ZM64.0333 0.176792H69.4403V1.3153H67.3501V7.68607H66.136V1.3153H64.0333V0.176792ZM64.2836 0.419027V1.07306H66.3863V7.44384H67.0998V1.07306H69.19V0.419027H64.2836ZM74.7263 0.176792H76.142L73.2249 6.46912C73.1029 6.85257 72.8616 7.19033 72.5338 7.43626C72.2039 7.68378 71.8027 7.82605 71.3857 7.84341L71.3787 7.8437C71.1032 7.84032 70.8312 7.78311 70.579 7.67584L70.4793 7.63348L70.803 6.52167L70.9426 6.60036C71.076 6.67549 71.2272 6.71574 71.3815 6.71714L71.3897 6.71721C71.5445 6.7285 71.699 6.69413 71.8328 6.61832C71.9638 6.50889 72.0649 6.36981 72.1271 6.21341L72.1299 6.20633L72.3818 5.67515L69.8222 0.188904H71.2374L73.0057 4.16607L74.7263 0.176792ZM74.8931 0.419027L73.0092 4.78685L71.0726 0.431139H70.2099L72.6568 5.6759L72.3593 6.30401C72.2807 6.49994 72.1526 6.67375 71.9868 6.80958L71.9792 6.81584L71.9706 6.82085C71.7916 6.92534 71.5835 6.97369 71.375 6.95932C71.232 6.95752 71.091 6.92967 70.9594 6.87769L70.7802 7.49337C70.9716 7.5618 71.1739 7.59836 71.3784 7.60125C71.7424 7.5854 72.0924 7.46091 72.3804 7.24482C72.6694 7.02805 72.8816 6.7298 72.9878 6.39127L72.9901 6.3839L75.7554 0.419027H74.8931ZM76.9125 0.176792H82.5948V7.68607H81.3807V1.3153H78.1265V7.68607H76.9125V0.176792ZM77.1628 0.419027V7.44384H77.8762V1.07306H81.6311V7.44384H82.3445V0.419027H77.1628ZM84.0592 0.176792H85.2733V3.28951H88.7778V0.176792H89.9919V7.68607H88.7778V4.40379H85.2733V7.68607H84.0592V0.176792ZM84.3095 0.419027V7.44384H85.023V4.16156H89.0281V7.44384H89.7416V0.419027H89.0281V3.53175H85.023V0.419027H84.3095ZM49.4888 1.76239C50.0541 1.21762 50.8194 0.911765 51.6172 0.911765C52.415 0.911765 53.1804 1.21762 53.7457 1.76239L53.7502 1.76673C54.3058 2.35946 54.6135 3.13118 54.6135 3.93143C54.6135 4.73169 54.3057 5.50331 53.7501 6.09603L53.7458 6.10059C53.1805 6.64536 52.415 6.9511 51.6172 6.9511C50.8194 6.9511 50.0541 6.64524 49.4888 6.10047L49.5771 6.01465L49.4844 6.09603C48.9287 5.50331 48.621 4.73169 48.621 3.93143C48.621 3.13117 48.9287 2.35956 49.4844 1.76684L49.4888 1.76239ZM49.6676 5.931C50.1858 6.4292 50.8867 6.70887 51.6172 6.70887C52.3478 6.70887 53.0486 6.4292 53.5668 5.931C54.0793 5.38314 54.3631 4.6705 54.3631 3.93143C54.3631 3.19237 54.0793 2.47973 53.5668 1.93187C53.0486 1.43367 52.3478 1.154 51.6172 1.154C50.8867 1.154 50.1858 1.43367 49.6676 1.93187C49.1551 2.47973 48.8713 3.19237 48.8713 3.93143C48.8713 4.6705 49.1551 5.38314 49.6676 5.931ZM92.8574 1.76239C93.4227 1.21762 94.188 0.911765 94.9859 0.911765C95.7837 0.911765 96.549 1.21762 97.1143 1.76239L97.1188 1.76673C97.6744 2.35946 97.9821 3.13117 97.9821 3.93143C97.9821 4.73169 97.6743 5.50331 97.1187 6.09603L97.1144 6.10059C96.5491 6.64536 95.7837 6.9511 94.9859 6.9511C94.188 6.9511 93.4227 6.64524 92.8574 6.10047L92.9457 6.01465L92.853 6.09603C92.2974 5.50331 91.9896 4.73169 91.9896 3.93143C91.9896 3.13117 92.2974 2.35956 92.853 1.76684L92.8574 1.76239ZM93.0363 5.93101C93.5545 6.42921 94.2553 6.70887 94.9859 6.70887C95.7164 6.70887 96.4172 6.42921 96.9354 5.93101C97.4479 5.38315 97.7318 4.6705 97.7318 3.93143C97.7318 3.19237 97.4479 2.47971 96.9354 1.93186C96.4172 1.43366 95.7164 1.154 94.9859 1.154C94.2553 1.154 93.5545 1.43366 93.0363 1.93186C92.5238 2.47971 92.2399 3.19237 92.2399 3.93143C92.2399 4.6705 92.5238 5.38315 93.0363 5.93101ZM105.585 1.03672C105.761 1.03192 105.935 1.06441 106.097 1.13193C106.257 1.19931 106.401 1.29995 106.518 1.42676C106.633 1.54171 106.723 1.67778 106.782 1.82695C106.843 1.97706 106.871 2.13736 106.866 2.2983C106.861 2.45924 106.822 2.61752 106.752 2.7637C106.683 2.90821 106.585 3.03797 106.464 3.14542C106.341 3.27312 106.192 3.37377 106.025 3.44047C105.858 3.50754 105.678 3.53868 105.497 3.53175H103.619L103.675 1.03672H105.585ZM105.997 1.35423C105.869 1.30059 105.73 1.27487 105.591 1.27891L105.587 1.27896H103.92L103.875 3.28951H105.505C105.65 3.29539 105.795 3.2706 105.93 3.21668C106.064 3.16276 106.185 3.0811 106.283 2.9774L106.287 2.97336L106.292 2.96967C106.39 2.88335 106.469 2.77875 106.525 2.66211C106.581 2.54547 106.611 2.41917 106.616 2.29074C106.62 2.16231 106.597 2.03439 106.549 1.91461C106.501 1.79483 106.429 1.68564 106.336 1.59355L106.332 1.5894C106.239 1.48822 106.125 1.40787 105.997 1.35423ZM41.8421 1.07306H45.1338V6.83825H41.0319L41.1467 6.65449C41.6567 5.83789 41.8992 4.89098 41.8423 3.93843L41.8419 3.93143L41.8421 1.07306ZM42.0924 1.3153V3.92796C42.1473 4.8575 41.9309 5.7818 41.4702 6.59602H44.8835V1.3153H42.0924ZM103.661 4.13733H105.687C106.052 4.13733 106.403 4.2777 106.661 4.52755C106.919 4.7774 107.064 5.11628 107.064 5.46963L107.064 5.47133C107.059 5.80891 106.922 6.13205 106.68 6.37549C106.556 6.51084 106.403 6.61812 106.231 6.68973C106.059 6.76141 105.872 6.79558 105.685 6.78981H103.62L103.661 4.13733ZM103.908 4.37957L103.874 6.54757H105.691C105.842 6.55248 105.993 6.52509 106.132 6.46724C106.271 6.40939 106.394 6.32257 106.495 6.21299L106.498 6.20908C106.697 6.00993 106.809 5.74532 106.814 5.46874C106.813 5.17996 106.695 4.90306 106.484 4.69884C106.272 4.49441 105.986 4.37957 105.687 4.37957H103.908Z" fill="white"/>
<path d="M0.588042 0.952216C0.180096 1.42592 -0.0258112 2.03234 0.012296 2.64786V29.4391C-0.0258112 30.0546 0.180096 30.661 0.588042 31.1347L0.675655 31.2195L16.1832 16.2251V15.8739L0.675655 0.867432L0.588042 0.952216Z" fill="url(#paint0_linear)"/>
<path d="M21.3147 21.2268L16.1831 16.2246V15.8734L21.3147 10.8591L21.4274 10.9197L27.5728 14.2989C29.3251 15.2557 29.3251 16.8302 27.5728 17.7992L21.4524 21.1662L21.3147 21.2268Z" fill="url(#paint1_linear)"/>
<path d="M21.4649 21.1541L16.1831 16.043L0.587891 31.1342C0.945056 31.438 1.40068 31.6116 1.87603 31.6248C2.35138 31.6381 2.81659 31.4903 3.19126 31.2069L21.4774 21.1541" fill="url(#paint2_linear)"/>
<path d="M21.4647 10.9327L3.1785 0.879971C2.80383 0.596573 2.33863 0.448734 1.86328 0.462003C1.38793 0.475272 0.9323 0.648816 0.575134 0.952643L16.1828 16.0439L21.4647 10.9327Z" fill="url(#paint3_linear)"/>
<path opacity="0.2" d="M21.3147 21.0457L3.17874 31.0378C2.81739 31.2993 2.37831 31.4406 1.92712 31.4406C1.47594 31.4406 1.03686 31.2993 0.675504 31.0378L0.587891 31.1226L0.675504 31.2074C1.03604 31.4707 1.47543 31.6132 1.92712 31.6132C2.37882 31.6132 2.81821 31.4707 3.17874 31.2074L21.4649 21.1547L21.3147 21.0457Z" fill="#191918"/>
<path opacity="0.12" d="M0.588042 30.9646C0.180096 30.4909 -0.0258112 29.8845 0.012296 29.269V29.4507C-0.0258112 30.0662 0.180096 30.6726 0.588042 31.1463L0.675655 31.0615L0.588042 30.9646ZM27.573 17.6175L21.3149 21.0451L21.4275 21.1541L27.573 17.7871C27.9217 17.6285 28.221 17.3838 28.4407 17.0776C28.6605 16.7714 28.7929 16.4145 28.8246 16.043C28.7542 16.3805 28.6048 16.698 28.3878 16.9709C28.1708 17.2439 27.8921 17.4651 27.573 17.6175Z" fill="#191918"/>
<path opacity="0.25" d="M3.17911 1.04937L27.5732 14.4692C27.8923 14.6216 28.171 14.8428 28.388 15.1157C28.605 15.3887 28.7544 15.7061 28.8248 16.0437C28.7931 15.6722 28.6607 15.3153 28.441 15.0091C28.2212 14.7028 27.9219 14.4581 27.5732 14.2996L3.17911 0.879803C1.42685 -0.0770254 0 0.722351 0 2.66023V2.84191C0.0375486 0.891915 1.43936 0.0925407 3.17911 1.04937Z" fill="white"/>
<defs>
<linearGradient id="paint0_linear" x1="14.8064" y1="2.36929" x2="-5.50611" y2="23.3601" gradientUnits="userSpaceOnUse">
<stop stop-color="#00A0FF"/>
<stop offset="0.01" stop-color="#00A1FF"/>
<stop offset="0.26" stop-color="#00BEFF"/>
<stop offset="0.51" stop-color="#00D2FF"/>
<stop offset="0.76" stop-color="#00DFFF"/>
<stop offset="1" stop-color="#00E3FF"/>
</linearGradient>
<linearGradient id="paint1_linear" x1="29.8633" y1="16.043" x2="-0.413373" y2="16.043" gradientUnits="userSpaceOnUse">
<stop stop-color="#FFE000"/>
<stop offset="0.41" stop-color="#FFBD00"/>
<stop offset="0.78" stop-color="#FFA500"/>
<stop offset="1" stop-color="#FF9C00"/>
</linearGradient>
<linearGradient id="paint2_linear" x1="18.5987" y1="18.8287" x2="-8.95317" y2="47.2881" gradientUnits="userSpaceOnUse">
<stop stop-color="#FF3A44"/>
<stop offset="1" stop-color="#C31162"/>
</linearGradient>
<linearGradient id="paint3_linear" x1="-3.34244" y1="-7.9616" x2="8.95646" y2="4.748" gradientUnits="userSpaceOnUse">
<stop stop-color="#32A071"/>
<stop offset="0.07" stop-color="#2DA771"/>
<stop offset="0.48" stop-color="#15CF74"/>
<stop offset="0.8" stop-color="#06E775"/>
<stop offset="1" stop-color="#00F076"/>
</linearGradient>
</defs>
</svg>
