<svg width="30" height="43" viewBox="0 0 30 43" fill="none" xmlns="http://www.w3.org/2000/svg">
<path d="M15 43C6.72894 43 0 36.431 0 28.3565C0 19.3144 13.2348 2.24053 13.7991 1.5185L14.9829 0L16.1895 1.50175C16.7537 2.20518 30 18.8175 30 28.3565C30 36.431 23.2711 43 15 43ZM15.0153 4.88116C11.7747 9.27477 3.01945 21.7615 3.01945 28.3565C3.01945 34.8046 8.39306 40.0523 15 40.0523C21.605 40.0523 26.9806 34.8064 26.9806 28.3565C26.9806 21.3818 18.2673 9.18916 15.0153 4.88116Z" fill="#4CE188"/>
<path d="M22.1521 19.2529C23.3358 23.1739 24.2546 27.6717 23.475 30.6156C22.8631 32.9269 21.4372 34.8269 19.5768 36.0997C22.947 34.8399 25.3469 31.6503 25.3469 27.9229C25.3469 25.4535 23.8639 22.1932 22.1521 19.2529Z" fill="#4CE188"/>
</svg>
