<svg width="236" height="354" viewBox="0 0 236 354" fill="none" xmlns="http://www.w3.org/2000/svg">
<path d="M209.466 91.2207C209.753 83.0824 207.586 70.4478 207.586 70.4478L205.236 76.0926C205.236 76.0926 202.878 81.8351 201.006 85.3501C199.113 88.9043 197.901 90.8308 195.601 94.156C192.991 97.931 191.484 100.055 188.316 103.414C185.919 105.955 184.447 107.278 181.737 109.51C177.387 113.093 174.787 114.634 169.987 117.639C164.884 120.833 161.661 121.986 156.357 124.864C150.924 127.813 147.589 129.424 142.258 132.541C137.909 135.084 135.329 136.437 131.213 139.315C127.354 142.013 125.093 143.702 121.344 146.54C118.214 148.909 116.791 150.307 113.824 152.862C111.118 155.193 109.625 156.546 107.244 159.184C105.056 161.61 103.838 163.007 102.074 165.732C99.7763 169.284 97.5944 171.569 95.9521 175.442C94.5171 178.825 93.6897 180.73 92.6622 184.248C91.5 188.227 91.5949 190.502 91.4874 194.634C91.364 199.373 91.9407 202.289 93.3674 206.827C94.8521 211.549 95.5887 214.473 98.0671 218.794C100.119 222.371 101.98 224.163 104.882 227.148C107.701 230.048 109.961 231.779 113.577 233.696C116.531 235.263 118.619 236.038 121.814 237.083C126.723 238.689 129.347 239.251 134.503 239.793C139.037 240.269 141.924 239.822 146.408 239.128L146.488 239.115C150.471 238.498 152.677 237.768 156.357 236.18C160.724 234.296 163.109 233.092 166.92 230.309C169.614 228.342 171.241 226.86 173.5 224.439C176.065 221.689 176.799 219.756 178.682 216.536C179.988 214.301 181.737 210.665 181.737 210.665C181.737 210.665 176.003 214.467 172.102 216.536C168.796 218.289 166.912 219.249 163.407 220.6C159.744 222.012 157.667 222.918 153.773 223.536C149.336 224.239 146.723 224.213 142.258 223.536C139.127 223.061 136.853 222.63 134.503 221.503C131.63 220.127 129.928 218.747 127.688 216.536C124.715 213.601 124.148 212.289 122.988 209.085C121.615 205.292 121.435 202.698 121.814 198.698C122.053 196.164 122.585 194.779 123.459 192.376C124.677 189.026 125.758 187.273 127.688 184.248C130.049 180.549 131.75 178.694 134.738 175.442C137.487 172.45 139.107 170.815 142.258 168.216C147.279 164.075 150.784 162.613 156.357 159.184C162.429 155.45 165.984 153.59 172.102 149.927C177.633 146.615 180.592 144.807 185.484 140.669C191.025 135.984 194.043 133.138 197.951 127.122C202.89 119.519 205.397 114.835 207.586 106.123C209.018 100.425 209.259 97.0797 209.466 91.2207Z" fill="#077D36"/>
<path d="M176.792 23.0309C189.716 12.6444 196.531 0 196.531 0C196.531 0 193.024 12.833 189.011 20.3214C184.675 28.414 174.912 39.288 174.912 39.288C174.912 39.288 165.771 48.0262 159.402 53.0614C153.166 57.992 149.371 60.4038 142.718 64.8027C133.342 71.0017 127.598 73.7623 118.044 79.705C110.373 84.4761 105.748 86.728 98.5394 92.1236C92.4371 96.6914 89.1806 99.4894 83.7349 104.768C79.4802 108.892 75.3274 112.671 73.3926 115.38C70.6744 119.187 68.9278 121.396 66.8129 125.541C64.5093 130.056 63.5833 133.201 62.1717 137.995L62.1156 138.185C60.8504 142.482 60.2357 149.475 60.2357 149.475C60.2357 149.475 58.5124 140.01 58.5907 133.895C58.6949 125.764 59.6185 121.119 62.1156 113.348C64.4662 106.034 67.1524 101.99 71.7477 95.7363C75.9397 90.0317 83.7349 82.8661 83.7349 82.8661C83.7349 82.8661 101.33 69.9213 113.109 62.3189C123.614 55.5382 128.853 52.384 140.603 45.836C152.353 39.288 163.867 33.4174 176.792 23.0309Z" fill="#077D36"/>
<path d="M180.19 56.9139C192.56 45.9212 198.71 32.9661 198.71 32.9661C198.71 32.9661 195.873 45.9511 192.254 53.6224C188.342 61.9127 179.156 73.2409 179.156 73.2409C179.156 73.2409 170.48 82.4061 164.38 87.7401C158.408 92.9634 154.743 95.5539 148.326 100.266C139.283 106.907 133.69 109.939 124.456 116.332C117.042 121.465 112.54 123.935 105.62 129.669C99.7624 134.524 96.6551 137.474 91.4901 143.007C87.4547 147.33 84.9039 149.607 81.7374 154.553C79.2201 158.485 78.3061 160.966 76.4089 165.208C74.3152 169.888 72.8191 172.454 71.6317 177.419C70.591 181.77 70.3399 188.785 70.3399 188.785C70.3399 188.785 68.1277 179.414 67.8886 173.303C67.5707 165.176 68.2522 160.493 70.343 152.612C72.3111 145.195 73.6015 140.858 77.8666 134.392C81.7574 128.493 90.3537 121.133 90.3537 121.133C90.3537 121.133 107.256 107.361 118.625 99.2038C128.766 91.9283 133.834 88.527 145.23 81.4243C156.625 74.3216 167.821 67.9067 180.19 56.9139Z" fill="#077D36"/>
<path d="M205.987 108.962C218.328 128.119 223.848 150.743 221.683 173.3C219.519 195.857 209.792 217.076 194.023 233.64C178.255 250.204 157.332 261.18 134.526 264.854C111.72 268.527 88.3145 264.691 67.9681 253.943C47.6216 243.196 31.4804 226.144 22.0668 205.452C12.6533 184.76 10.4979 161.594 15.9375 139.574C21.377 117.554 34.105 97.9204 52.1324 83.7423C70.1598 69.5643 92.4708 61.6402 115.579 61.2085L115.922 78.8645C96.7949 79.2218 78.3273 85.7808 63.4055 97.5165C48.4836 109.252 37.9482 125.503 33.4457 143.73C28.9433 161.957 30.7274 181.132 38.5192 198.26C46.3111 215.387 59.6717 229.502 76.5131 238.397C93.3545 247.293 112.728 250.469 131.605 247.428C150.483 244.388 167.801 235.302 180.853 221.591C193.906 207.881 201.957 190.317 203.748 171.646C205.54 152.975 200.971 134.248 190.756 118.392L205.987 108.962Z" fill="#077D36"/>
<path d="M25.0126 354C20.0872 354 15.3695 353.455 10.8596 352.366C6.34958 351.277 2.72972 349.89 0 348.207L5.87484 338.923C8.72325 340.656 11.9277 341.993 15.4882 342.934C19.0487 343.874 22.6982 344.345 26.4368 344.345C30.4127 344.345 33.5578 343.8 35.8721 342.711C38.1865 341.622 39.3436 340.136 39.3436 338.255C39.3436 336.72 38.4238 335.556 36.5842 334.764C34.7446 333.922 31.8072 333.031 27.772 332.09C23.7367 331.1 20.4433 330.159 17.8916 329.268C15.3399 328.327 13.1145 326.941 11.2156 325.109C9.37601 323.277 8.45621 320.851 8.45621 317.83C8.45621 314.315 9.61338 311.22 11.9277 308.546C14.3014 305.873 17.6245 303.818 21.8971 302.382C26.2291 300.946 31.2435 300.228 36.9403 300.228C41.1536 300.228 45.1295 300.624 48.868 301.416C52.6065 302.159 55.811 303.248 58.4814 304.684L53.0516 313.894C50.7373 312.557 48.1262 311.567 45.2185 310.923C42.3107 310.23 39.2843 309.883 36.1392 309.883C32.0446 309.883 28.8105 310.477 26.4368 311.666C24.0631 312.854 22.8763 314.389 22.8763 316.271C22.8763 317.409 23.3807 318.375 24.3895 319.167C25.3983 319.91 26.6742 320.529 28.217 321.024C29.7599 321.469 31.9259 322.014 34.715 322.658C38.6909 323.549 41.9547 324.465 44.5064 325.406C47.0581 326.297 49.224 327.634 51.0043 329.416C52.8439 331.149 53.7637 333.452 53.7637 336.324C53.7637 339.889 52.5769 343.008 50.2032 345.682C47.8295 348.306 44.4767 350.361 40.1447 351.846C35.8128 353.282 30.7687 354 25.0126 354Z" fill="white"/>
<path d="M81.1065 338.997C80.9878 339.393 80.9284 339.938 80.9284 340.631C80.9284 343.206 82.6197 344.493 86.0022 344.493C87.8418 344.493 89.711 344.023 91.61 343.082L93.6572 351.326C90.5715 352.911 86.5956 353.703 81.7295 353.703C77.2196 353.703 73.5997 352.713 70.87 350.732C68.1403 348.752 66.7754 346.028 66.7754 342.562C66.7754 341.572 66.9238 340.408 67.2205 339.072L71.048 322.955H63.66L65.7963 314.042H73.1843L75.4987 304.313H89.3846L87.0703 314.042H98.998L96.8617 322.955H84.934L81.1065 338.997Z" fill="white"/>
<path d="M154.493 330.159C154.493 331.991 154.226 334.021 153.692 336.249H117.019C117.494 341.696 121.618 344.419 129.392 344.419C131.825 344.419 134.139 344.097 136.335 343.454C138.59 342.81 140.548 341.894 142.209 340.706L147.995 348.355C145.325 350.138 142.269 351.475 138.827 352.366C135.385 353.257 131.765 353.703 127.967 353.703C123.042 353.703 118.71 352.985 114.971 351.549C111.292 350.064 108.444 347.959 106.426 345.236C104.468 342.513 103.489 339.369 103.489 335.804C103.489 331.397 104.676 327.436 107.049 323.92C109.482 320.355 112.835 317.583 117.108 315.602C121.38 313.572 126.246 312.557 131.706 312.557C136.335 312.557 140.34 313.275 143.723 314.711C147.164 316.147 149.805 318.202 151.645 320.875C153.544 323.549 154.493 326.644 154.493 330.159ZM131.083 321.247C127.819 321.247 125.06 321.989 122.805 323.475C120.55 324.911 118.947 326.916 117.998 329.491H141.764C141.764 326.916 140.785 324.911 138.827 323.475C136.928 321.989 134.347 321.247 131.083 321.247Z" fill="white"/>
<path d="M174.647 298H188.533L175.359 353.109H161.473L174.647 298Z" fill="white"/>
<path d="M208.762 353.703C204.608 353.703 200.662 353.332 196.923 352.589C193.244 351.797 190.366 350.782 188.289 349.544L193.63 341.151C195.707 342.29 198.229 343.206 201.196 343.899C204.222 344.592 207.249 344.939 210.275 344.939C213.42 344.939 215.764 344.617 217.307 343.973C218.85 343.28 219.622 342.315 219.622 341.077C219.622 340.087 218.939 339.369 217.574 338.923C216.21 338.477 214.014 338.007 210.987 337.512C207.546 336.967 204.697 336.373 202.442 335.729C200.247 335.086 198.318 334.046 196.656 332.61C195.054 331.125 194.253 329.119 194.253 326.594C194.253 322.187 196.449 318.746 200.84 316.271C205.291 313.795 211.106 312.557 218.286 312.557C221.61 312.557 224.844 312.854 227.989 313.448C231.134 314.042 233.804 314.859 236 315.899L231.015 324.366C227.099 322.336 222.381 321.321 216.862 321.321C213.836 321.321 211.522 321.692 209.919 322.435C208.376 323.178 207.605 324.118 207.605 325.257C207.605 326.297 208.287 327.065 209.652 327.56C211.017 328.005 213.302 328.5 216.506 329.045C219.889 329.59 222.648 330.184 224.784 330.828C226.98 331.422 228.879 332.437 230.481 333.873C232.083 335.309 232.885 337.264 232.885 339.74C232.885 344.196 230.63 347.637 226.12 350.064C221.669 352.49 215.883 353.703 208.762 353.703Z" fill="white"/>
</svg>
