<svg width="48" height="48" viewBox="0 0 48 48" fill="none" xmlns="http://www.w3.org/2000/svg">
<path fill-rule="evenodd" clip-rule="evenodd" d="M24 4.00012C20.0444 4.00012 16.1776 5.1731 12.8886 7.37073C9.59962 9.56836 7.03617 12.6919 5.52242 16.3465C4.00867 20.001 3.6126 24.0223 4.3843 27.9019C5.15601 31.7815 7.06082 35.3452 9.85787 38.1423C12.6549 40.9393 16.2186 42.8441 20.0982 43.6158C23.9778 44.3875 27.9992 43.9915 31.6537 42.4777C35.3082 40.964 38.4318 38.4005 40.6294 35.1115C42.827 31.8225 44 27.9557 44 24.0001H24V4.00012Z" stroke="#309CA5" stroke-width="2.5" stroke-linecap="round" stroke-linejoin="round"/>
<path fill-rule="evenodd" clip-rule="evenodd" d="M30 18.0003H43.08C42.114 14.928 40.4203 12.1345 38.1431 9.85723C35.8658 7.57996 33.0723 5.8863 30 4.92029V18.0003Z" stroke="#309CA5" stroke-width="2.5" stroke-linecap="round" stroke-linejoin="round"/>
</svg>
