<svg width="1441" height="678" viewBox="0 0 1441 678" fill="none" xmlns="http://www.w3.org/2000/svg">
<g opacity="0.15">
<path d="M1 527.801H20.7189" stroke="#5E5E5E" stroke-width="0.6319" stroke-miterlimit="10"/>
<path d="M60.7839 527.801H1401.25" stroke="#5E5E5E" stroke-width="0.6319" stroke-miterlimit="10" stroke-dasharray="7.69 7.69"/>
<path d="M1421.23 527.801H1441" stroke="#5E5E5E" stroke-width="0.6319" stroke-miterlimit="10"/>
<path d="M1 382.486H20.7189" stroke="#5E5E5E" stroke-width="0.6319" stroke-miterlimit="10"/>
<path d="M60.7839 382.486H1401.25" stroke="#5E5E5E" stroke-width="0.6319" stroke-miterlimit="10" stroke-dasharray="7.69 7.69"/>
<path d="M1421.23 382.486H1441" stroke="#5E5E5E" stroke-width="0.6319" stroke-miterlimit="10"/>
<path d="M1 237.171H20.7189" stroke="#5E5E5E" stroke-width="0.6319" stroke-miterlimit="10"/>
<path d="M60.7839 237.171H1401.25" stroke="#5E5E5E" stroke-width="0.6319" stroke-miterlimit="10" stroke-dasharray="7.69 7.69"/>
<path d="M1421.23 237.171H1441" stroke="#5E5E5E" stroke-width="0.6319" stroke-miterlimit="10"/>
<path d="M1 91.7966H20.7189" stroke="#5E5E5E" stroke-width="0.6319" stroke-miterlimit="10"/>
<path d="M60.7839 91.7966H1401.25" stroke="#5E5E5E" stroke-width="0.6319" stroke-miterlimit="10" stroke-dasharray="7.69 7.69"/>
<path d="M1421.23 91.7966H1441" stroke="#5E5E5E" stroke-width="0.6319" stroke-miterlimit="10"/>
<path d="M1441 294.025V673.175H1V266.147C45.2483 256.047 94.256 257.941 133.745 219.226C203.848 150.529 219.669 14.8179 365.663 36.8052C408.11 43.2226 446.184 62.3694 479.628 84.7776C518.088 110.552 553.332 138.746 584.203 170.097C610.701 197.029 634.239 227.537 675.915 240.056C721.836 253.838 771.872 236.374 812.776 212.809C845.834 193.662 876.062 170.202 902.302 143.586C922.626 122.966 940.762 100.137 964.687 83.1996C1018.58 44.9059 1099.75 44.0642 1154.67 81.2007C1205.35 115.497 1229.66 174.094 1272.88 216.281C1317.13 259.414 1377.07 282.453 1441 294.025Z" fill="url(#paint0_linear)"/>
<path d="M1441 197.576V673.175H1V313.638C59.5261 296.047 133.848 357.624 217.528 252.441C265.259 192.444 384.314 202.843 447.342 160.813C490.304 132.056 515.515 89.2888 554.49 57.0555C645.816 -18.6823 812.648 -18.7876 905.775 55.3701C953.882 93.713 981.409 145.75 1016.91 192.52C1052.41 239.184 1102.71 284.269 1169.08 292.59C1268.64 305.126 1348.9 233.391 1441 197.576Z" fill="url(#paint1_linear)"/>
<path d="M1437.76 677H1V61.1978" stroke="#9BA9B7" stroke-width="0.6319" stroke-miterlimit="10"/>
</g>
<defs>
<linearGradient id="paint0_linear" x1="721" y1="34.4236" x2="721" y2="673.175" gradientUnits="userSpaceOnUse">
<stop stop-color="#007089"/>
<stop offset="1" stop-color="#076C83" stop-opacity="0"/>
</linearGradient>
<linearGradient id="paint1_linear" x1="721" y1="0" x2="721" y2="673.175" gradientUnits="userSpaceOnUse">
<stop stop-color="#01C0EA"/>
<stop offset="1" stop-color="#024B5B" stop-opacity="0"/>
</linearGradient>
</defs>
</svg>
