<svg width="48" height="48" viewBox="0 0 48 48" fill="none" xmlns="http://www.w3.org/2000/svg">
<path d="M6 41.9995L7.58 36.2395C10.2 26.7795 17.1 21.9995 24 21.9995" stroke="#309CA5" stroke-width="2.5" stroke-linecap="round" stroke-linejoin="round"/>
<path d="M24 21.9597C29.5228 21.9597 34 17.4826 34 11.9597C34 6.43687 29.5228 1.95972 24 1.95972C18.4772 1.95972 14 6.43687 14 11.9597C14 17.4826 18.4772 21.9597 24 21.9597Z" stroke="#309CA5" stroke-width="2.5" stroke-linecap="round" stroke-linejoin="bevel"/>
<path d="M34 45.9994C39.5228 45.9994 44 41.5223 44 35.9994C44 30.4766 39.5228 25.9995 34 25.9995C28.4772 25.9995 24 30.4766 24 35.9994C24 41.5223 28.4772 45.9994 34 45.9994Z" stroke="#309CA5" stroke-width="2.5" stroke-linecap="round" stroke-linejoin="round"/>
<path d="M29.74 36.2993L32.64 40.1593L39.06 33.1393" stroke="#309CA5" stroke-width="2.5" stroke-linecap="round" stroke-linejoin="round"/>
</svg>
