<svg width="48" height="48" viewBox="0 0 48 48" fill="none" xmlns="http://www.w3.org/2000/svg">
<path d="M40 12H8C5.79086 12 4 13.7909 4 16V40C4 42.2091 5.79086 44 8 44H40C42.2091 44 44 42.2091 44 40V16C44 13.7909 42.2091 12 40 12Z" stroke="#309CA5" stroke-width="2.5" stroke-linecap="round" stroke-linejoin="round"/>
<path d="M36 12V9.31996C36.0022 8.69953 35.8601 8.0871 35.5848 7.53108C35.3096 6.97506 34.9087 6.49069 34.414 6.11626C33.9193 5.74184 33.3443 5.48762 32.7344 5.37372C32.1245 5.25981 31.4965 5.28933 30.9 5.45996L5.76001 12.68" stroke="#309CA5" stroke-width="2.5" stroke-linecap="round" stroke-linejoin="round"/>
<path d="M44 23.2799H36.36C35.2037 23.2799 34.0947 23.7393 33.277 24.5569C32.4594 25.3746 32 26.4836 32 27.6399C32.0053 28.7946 32.4663 29.9006 33.2828 30.7171C34.0993 31.5336 35.2053 31.9946 36.36 31.9999H44" stroke="#309CA5" stroke-width="2.5" stroke-linecap="round" stroke-linejoin="round"/>
</svg>
