<svg width="375" height="586" viewBox="0 0 375 586" fill="none" xmlns="http://www.w3.org/2000/svg">
<g opacity="0.9">
<path opacity="0.8" d="M-24.2305 339.199C-24.1277 336.673 -23.3788 334.237 -22.0607 332.155L189.482 -1.6551C191.335 -4.58242 194.113 -6.53713 197.306 -7.16036C200.498 -7.7836 203.721 -7.00455 206.378 -4.96487L509.805 227.88C513.233 230.51 515.172 234.83 514.988 239.429C514.885 241.955 514.136 244.392 512.818 246.474L301.275 580.284C299.422 583.211 296.645 585.166 293.452 585.789C290.259 586.417 287.037 585.633 284.379 583.593L-19.0435 350.743C-22.4715 348.113 -24.4102 343.798 -24.2305 339.199ZM514.021 239.373C514.188 235.142 512.403 231.167 509.249 228.749L205.822 -4.09611C203.378 -5.97527 200.413 -6.69294 197.477 -6.11691C194.541 -5.54089 191.986 -3.742 190.283 -1.05075L-21.2647 332.759C-22.4801 334.676 -23.1691 336.914 -23.259 339.237C-23.4259 343.472 -21.6413 347.443 -18.4914 349.865L284.936 582.706C287.384 584.585 290.345 585.298 293.285 584.726C296.221 584.15 298.776 582.352 300.484 579.66L512.027 245.85C513.242 243.938 513.931 241.696 514.021 239.373Z" fill="#562929"/>
<path opacity="0.8" d="M-25.844 326.281C-25.7455 323.76 -24.9837 321.338 -23.6399 319.274L186.311 -3.20851C188.151 -6.03668 190.886 -7.9064 194.006 -8.47298C197.126 -9.03955 200.263 -8.2369 202.835 -6.20666L495.965 224.882C499.23 227.455 501.075 231.634 500.904 236.053C500.801 238.575 500.044 241.001 498.7 243.065L288.749 565.547C284.948 571.388 277.532 572.734 272.225 568.55L-20.9095 337.457C-24.1749 334.884 -26.0237 330.705 -25.844 326.281ZM499.928 236.006C500.091 231.946 498.396 228.112 495.396 225.746L202.266 -5.3379C199.907 -7.19817 197.027 -7.93945 194.164 -7.42008C191.297 -6.90072 188.789 -5.18209 187.098 -2.58527L-22.8525 319.898C-24.085 321.791 -24.7826 324.015 -24.8768 326.328C-25.0394 330.389 -23.3446 334.223 -20.3446 336.583L272.786 567.677C277.66 571.516 284.465 570.283 287.953 564.924L497.904 242.441C499.136 240.548 499.838 238.324 499.928 236.006Z" fill="#562929"/>
<path opacity="0.8" d="M-27.466 313.368C-27.3675 310.847 -26.5929 308.434 -25.2234 306.394L183.135 -4.75706C186.914 -10.3992 194.16 -11.6032 199.287 -7.44831L482.12 221.884C485.227 224.401 486.978 228.438 486.811 232.682C486.712 235.204 485.938 237.616 484.572 239.656L276.214 550.807C274.382 553.541 271.694 555.326 268.643 555.831C265.591 556.341 262.544 555.51 260.062 553.498L-22.7797 324.166C-25.8825 321.649 -27.6371 317.613 -27.466 313.368ZM485.835 232.64C485.989 228.754 484.384 225.052 481.543 222.748L198.709 -6.58428C194.014 -10.3945 187.377 -9.28497 183.914 -4.11966L-24.4445 307.032C-25.6985 308.901 -26.4089 311.111 -26.4988 313.42C-26.6528 317.306 -25.048 321.003 -22.202 323.307L260.627 552.644C262.904 554.49 265.694 555.245 268.489 554.783C271.283 554.32 273.744 552.682 275.422 550.179L483.781 239.028C485.035 237.158 485.745 234.949 485.835 232.64Z" fill="#562929"/>
<path opacity="0.8" d="M-29.0878 300.455C-28.9894 297.933 -28.2019 295.535 -26.8068 293.514L179.956 -6.30573C181.775 -8.94032 184.415 -10.6401 187.394 -11.0886C190.372 -11.5371 193.334 -10.6826 195.731 -8.68064L468.267 218.9C471.212 221.36 472.872 225.255 472.709 229.321C472.607 231.842 471.824 234.24 470.428 236.261L263.661 536.086C259.908 541.525 252.83 542.596 247.887 538.465L-24.6456 310.875C-27.59 308.42 -29.2505 304.525 -29.0878 300.455ZM471.747 229.273C471.892 225.557 470.373 221.997 467.685 219.75L195.149 -7.83077C192.957 -9.65799 190.253 -10.4418 187.531 -10.031C184.809 -9.62022 182.395 -8.06684 180.735 -5.65888L-26.0364 294.166C-27.3075 296.012 -28.0308 298.202 -28.1206 300.507C-28.2661 304.222 -26.7511 307.782 -24.0592 310.03L248.477 537.611C252.997 541.383 259.463 540.41 262.891 535.439L469.658 235.614C470.933 233.768 471.652 231.577 471.747 229.273Z" fill="#562929"/>
<path opacity="0.8" d="M-30.7141 287.541C-30.6114 285.02 -29.8111 282.631 -28.3945 280.634L176.78 -7.85443C178.586 -10.3946 181.184 -12.0093 184.09 -12.3965C187 -12.7884 189.872 -11.9055 192.183 -9.91772L454.418 215.907C457.204 218.305 458.775 222.059 458.621 225.949C458.522 228.471 457.718 230.86 456.301 232.857L251.126 521.35C249.32 523.89 246.723 525.505 243.812 525.892C240.902 526.284 238.031 525.405 235.724 523.418L-26.5158 297.589C-29.2976 295.19 -30.8682 291.436 -30.7141 287.541ZM457.654 225.902C457.795 222.352 456.361 218.928 453.823 216.742L191.588 -9.08202C189.482 -10.8951 186.863 -11.6977 184.214 -11.3389C181.561 -10.9848 179.194 -9.51167 177.546 -7.19814L-27.6285 281.299C-28.9209 283.117 -29.6528 285.294 -29.7426 287.593C-29.8839 291.139 -28.4502 294.562 -25.9124 296.753L236.327 522.577C238.433 524.39 241.052 525.188 243.701 524.834C246.355 524.48 248.721 523.007 250.369 520.693L455.544 232.201C456.832 230.378 457.564 228.201 457.654 225.902Z" fill="#562929"/>
<path opacity="0.8" d="M-32.3447 274.628C-32.2463 272.102 -31.4246 269.727 -29.978 267.758L173.605 -9.4078C177.307 -14.4504 184.051 -15.2341 188.635 -11.1595L440.578 212.913C443.205 215.246 444.682 218.862 444.536 222.578C444.438 225.104 443.621 227.479 442.174 229.448L238.587 506.609C236.794 509.055 234.239 510.58 231.401 510.911C228.56 511.241 225.774 510.339 223.557 508.361L-28.3817 284.298C-31.0094 281.96 -32.4902 278.349 -32.3447 274.628ZM443.569 222.536C443.702 219.155 442.358 215.869 439.97 213.744L188.027 -10.3285C183.859 -14.0349 177.73 -13.3219 174.362 -8.73735L-29.2248 268.433C-30.5387 270.223 -31.2833 272.381 -31.3732 274.675C-31.5059 278.056 -30.1621 281.342 -27.774 283.467L224.169 507.539C226.189 509.338 228.722 510.16 231.299 509.858C233.879 509.555 236.203 508.167 237.829 505.948L441.417 228.782C442.735 226.993 443.479 224.83 443.569 222.536Z" fill="#562929"/>
<path opacity="0.8" d="M-33.9711 261.715C-33.8726 259.189 -33.0381 256.828 -31.5616 254.878L170.429 -10.9564C172.214 -13.303 174.717 -14.7431 177.486 -15.0169C180.255 -15.2908 182.956 -14.3559 185.087 -12.3965L426.733 209.92C429.241 212.229 430.598 215.614 430.456 219.212C430.358 221.742 429.523 224.103 428.043 226.049L226.052 491.883C222.371 496.727 215.798 497.369 211.394 493.323L-30.2521 271.007C-32.7599 268.698 -34.1166 265.312 -33.9711 261.715ZM429.485 219.169C429.613 215.907 428.385 212.838 426.112 210.746L184.466 -11.5749C182.532 -13.3549 180.084 -14.1954 177.576 -13.9499C175.064 -13.7043 172.796 -12.3965 171.178 -10.2671L-30.817 255.563C-32.1565 257.328 -32.914 259.467 -33.0039 261.757C-33.1323 265.02 -31.8997 268.093 -29.6272 270.18L212.019 492.501C216.012 496.175 221.969 495.589 225.307 491.198L427.298 225.364C428.638 223.603 429.395 221.459 429.485 219.169Z" fill="#562929"/>
<path opacity="0.8" d="M-35.6058 248.801C-35.5074 246.271 -34.6515 243.919 -33.1407 241.998L167.254 -12.5051C169.026 -14.7525 171.486 -16.1076 174.183 -16.3201C176.883 -16.5325 179.494 -15.5741 181.535 -13.6241L412.88 206.936C415.234 209.179 416.5 212.427 416.368 215.85C416.265 218.381 415.418 220.732 413.907 222.654L213.504 477.156C211.736 479.409 209.271 480.764 206.575 480.976C203.879 481.184 201.264 480.23 199.223 478.28L-32.1179 257.716C-34.4717 255.473 -35.7428 252.224 -35.6058 248.801ZM415.405 215.803C415.529 212.706 414.378 209.769 412.255 207.743L180.906 -12.8214C179.057 -14.5873 176.699 -15.4513 174.255 -15.2577C171.816 -15.0642 169.59 -13.8413 167.99 -11.8063L-32.4089 242.697C-33.7741 244.434 -34.5445 246.559 -34.6343 248.849C-34.7584 251.946 -33.6072 254.883 -31.4845 256.908L199.86 477.473C201.709 479.234 204.072 480.098 206.511 479.909C208.95 479.72 211.172 478.493 212.776 476.462L413.175 221.955C414.545 220.217 415.315 218.088 415.405 215.803Z" fill="#562929"/>
<path opacity="0.8" d="M-37.2407 235.888C-37.1422 233.386 -36.2478 230.982 -34.7242 229.117L164.083 -14.0585C165.841 -16.2115 168.259 -17.4816 170.887 -17.6327C173.515 -17.7838 176.04 -16.8017 177.996 -14.8659L399.044 203.942C401.239 206.114 402.425 209.226 402.296 212.479C402.198 214.981 401.303 217.385 399.78 219.25L200.973 462.425C199.214 464.574 196.8 465.844 194.168 466C191.541 466.151 189.016 465.169 187.06 463.233L-33.9881 244.42C-36.1836 242.248 -37.3691 239.136 -37.2407 235.888ZM401.325 212.432C401.44 209.5 400.37 206.695 398.393 204.736L177.341 -14.0727C175.578 -15.8196 173.305 -16.7025 170.934 -16.5656C168.568 -16.4287 166.389 -15.2861 164.802 -13.3455L-34.0053 229.835C-35.379 231.516 -36.1836 233.683 -36.2735 235.935C-36.389 238.867 -35.3191 241.672 -33.3419 243.631L187.71 462.44C189.474 464.182 191.746 465.069 194.117 464.933C196.484 464.796 198.662 463.653 200.25 461.713L399.057 218.537C400.43 216.856 401.239 214.689 401.325 212.432Z" fill="#562929"/>
<path opacity="0.8" d="M-38.884 222.975C-38.7855 220.468 -37.8697 218.074 -36.3076 216.237L160.907 -15.6071C162.653 -17.661 165.024 -18.8461 167.583 -18.9358C170.138 -19.0302 172.578 -18.0198 174.444 -16.0981L385.199 200.954C387.245 203.06 388.345 206.029 388.225 209.112C388.126 211.62 387.211 214.013 385.649 215.85L188.434 447.694C184.826 451.934 178.753 452.156 174.897 448.185L-35.8582 231.134C-37.9039 229.028 -39.0038 226.053 -38.884 222.975ZM387.253 209.065C387.36 206.298 386.372 203.626 384.536 201.733L173.78 -15.3191C172.103 -17.0472 169.912 -17.9537 167.613 -17.8687C165.315 -17.7837 163.184 -16.7214 161.613 -14.8753L-35.5972 216.969C-37.0009 218.617 -37.8226 220.765 -37.9125 223.022C-38.0195 225.789 -37.0309 228.461 -35.1949 230.354L175.561 447.406C179.023 450.976 184.484 450.778 187.723 446.967L384.938 215.118C386.342 213.47 387.164 211.322 387.253 209.065Z" fill="#562929"/>
<path opacity="0.8" d="M-40.5274 210.057C-40.429 207.54 -39.4917 205.161 -37.8911 203.357L157.732 -17.1605C161.318 -21.2021 167.22 -21.2776 170.891 -17.3351L371.35 197.965C373.242 200 374.265 202.833 374.149 205.746C374.051 208.263 373.113 210.647 371.513 212.451L175.89 432.968C172.308 437.01 166.402 437.09 162.73 433.143L-37.7285 217.838C-39.6201 215.803 -40.6387 212.97 -40.5274 210.057ZM373.182 205.699C373.285 203.093 372.373 200.552 370.678 198.73L170.224 -16.5703C166.933 -20.1019 161.643 -20.0311 158.433 -16.4145L-37.1935 204.103C-38.6272 205.718 -39.466 207.852 -39.5559 210.104C-39.6586 212.715 -38.7471 215.25 -37.048 217.073L163.406 432.373C166.697 435.905 171.987 435.834 175.197 432.217L370.82 211.7C372.253 210.085 373.092 207.951 373.182 205.699Z" fill="#562929"/>
<path opacity="0.8" d="M-42.175 197.144C-42.0723 194.613 -41.1136 192.247 -39.4702 190.472L154.56 -18.7138C158.121 -22.5524 163.86 -22.4863 167.348 -18.5675L357.51 194.981C359.256 196.94 360.193 199.636 360.086 202.38C359.988 204.91 359.025 207.281 357.382 209.051L163.351 418.237C159.79 422.076 154.051 422.009 150.563 418.091L-39.5986 204.547C-41.3447 202.587 -42.282 199.887 -42.175 197.144ZM359.115 202.332C359.213 199.882 358.374 197.479 356.817 195.727L166.659 -17.8215C163.543 -21.3201 158.421 -21.3768 155.245 -17.949L-38.7898 191.237C-40.2577 192.819 -41.1136 194.934 -41.2035 197.191C-41.2976 199.636 -40.4588 202.044 -38.901 203.796L151.257 417.345C154.372 420.843 159.495 420.9 162.675 417.467L356.705 208.282C358.169 206.705 359.025 204.589 359.115 202.332Z" fill="#562929"/>
<path opacity="0.8" d="M-43.827 184.23C-43.7243 181.685 -42.74 179.334 -41.0495 177.596L151.389 -20.2625C153.105 -22.0236 155.339 -22.949 157.684 -22.8593C160.03 -22.7743 162.2 -21.6837 163.804 -19.7998L343.665 191.992C345.291 193.905 346.126 196.397 346.023 199.013C345.921 201.558 344.936 203.914 343.246 205.652L150.807 403.506C147.272 407.141 141.7 406.934 138.396 403.043L-41.4689 191.251C-43.0909 189.339 -43.9297 186.846 -43.827 184.23ZM345.056 198.966C345.146 196.638 344.406 194.424 342.959 192.719L163.094 -19.068C161.673 -20.7441 159.739 -21.712 157.655 -21.7923C155.57 -21.8725 153.58 -21.051 152.057 -19.4835L-40.3862 178.371C-41.8926 179.919 -42.7657 182.011 -42.8555 184.277C-42.9454 186.6 -42.205 188.82 -40.7585 190.519L139.107 402.311C142.047 405.772 146.998 405.956 150.148 402.722L342.587 204.863C344.089 203.324 344.962 201.228 345.056 198.966Z" fill="#562929"/>
<path opacity="0.8" d="M-45.4832 171.317C-45.3805 168.758 -44.3662 166.411 -42.6244 164.712L148.218 -21.8159C151.732 -25.2484 157.132 -24.899 160.257 -21.0321L329.825 189.004C331.301 190.836 332.067 193.192 331.969 195.642C331.866 198.201 330.852 200.548 329.114 202.247L138.263 388.78C134.75 392.212 129.349 391.858 126.225 387.991L-43.3391 177.955C-44.8199 176.123 -45.5817 173.767 -45.4832 171.317ZM330.997 195.595C331.083 193.423 330.407 191.336 329.097 189.712L159.529 -20.3239C156.76 -23.7517 151.975 -24.0633 148.86 -21.0226L-41.9825 165.51C-43.5231 167.016 -44.4219 169.093 -44.5117 171.364C-44.5973 173.531 -43.9212 175.623 -42.6116 177.247L126.952 387.283C129.721 390.711 134.502 391.022 137.622 387.977L328.468 201.45C330.009 199.943 330.908 197.866 330.997 195.595Z" fill="#562929"/>
<path opacity="0.8" d="M-47.1481 158.404C-47.0454 155.859 -45.9755 153.465 -44.208 151.831L145.047 -23.3693C146.741 -24.9368 148.885 -25.6828 151.085 -25.475C153.289 -25.2673 155.284 -24.1247 156.709 -22.2644L315.976 186.02C317.315 187.771 318.004 189.995 317.914 192.276C317.816 194.816 316.742 197.214 314.974 198.853L125.72 374.048C122.228 377.283 116.998 376.782 114.058 372.944L-45.2094 164.66C-46.5489 162.908 -47.238 160.689 -47.1481 158.404ZM316.947 192.228C317.029 190.212 316.421 188.248 315.24 186.704L155.968 -21.5751C154.714 -23.2182 152.951 -24.2238 151.008 -24.408C149.061 -24.5921 147.169 -23.9358 145.676 -22.5524L-43.5831 152.648C-45.1452 154.093 -46.0867 156.208 -46.1766 158.451C-46.2579 160.467 -45.6502 162.426 -44.469 163.975L114.802 372.259C117.396 375.649 122.014 376.088 125.095 373.236L314.35 198.041C315.912 196.591 316.857 194.471 316.947 192.228Z" fill="#562929"/>
<path opacity="0.8" d="M-48.8171 145.486C-48.7187 142.922 -47.6102 140.537 -45.7828 138.946L141.88 -24.9226C143.562 -26.391 145.659 -27.0473 147.79 -26.7782C149.921 -26.509 151.83 -25.3428 153.165 -23.492L302.14 183.036C303.342 184.702 303.959 186.789 303.873 188.909C303.77 191.473 302.666 193.857 300.843 195.448L113.176 359.322C109.71 362.349 104.647 361.707 101.891 357.892L-47.0838 151.364C-48.2821 149.697 -48.8984 147.61 -48.8171 145.486ZM302.902 188.862C302.974 186.997 302.435 185.16 301.378 183.697L152.403 -22.8263C151.231 -24.4505 149.553 -25.4798 147.679 -25.7158C145.804 -25.9519 143.96 -25.3759 142.483 -24.0869L-45.1794 139.782C-46.7843 141.184 -47.7557 143.276 -47.8456 145.533C-47.9184 147.398 -47.3791 149.23 -46.3221 150.698L102.648 357.226C105.07 360.583 109.521 361.149 112.573 358.482L300.235 194.613C301.84 193.215 302.812 191.119 302.902 188.862Z" fill="#562929"/>
<path opacity="0.8" d="M-50.4905 132.572C-50.3878 129.98 -49.2451 127.61 -47.3578 126.061L138.708 -26.476C142.154 -29.2995 147.049 -28.511 149.617 -24.7196L288.291 180.052C289.361 181.629 289.908 183.583 289.827 185.543C289.724 188.135 288.582 190.505 286.694 192.054L100.632 344.596C97.1873 347.419 92.2914 346.631 89.7236 342.844L-48.9541 138.068C-50.024 136.486 -50.5675 134.536 -50.4905 132.572ZM288.86 185.5C288.928 183.782 288.449 182.072 287.516 180.689L148.838 -24.0822C146.592 -27.4014 142.308 -28.0908 139.286 -25.6167L-46.78 126.921C-48.432 128.276 -49.4334 130.353 -49.5233 132.62C-49.5918 134.338 -49.1124 136.043 -48.1752 137.431L90.5025 342.202C92.7493 345.521 97.0333 346.211 100.05 343.737L286.121 191.194C287.773 189.844 288.77 187.767 288.86 185.5Z" fill="#562929"/>
<path opacity="0.8" d="M-52.1723 119.654C-52.0696 117.039 -50.8884 114.673 -48.9326 113.181L135.542 -28.0294C138.965 -30.6498 143.69 -29.715 146.074 -25.9472L274.455 177.072C275.409 178.583 275.876 180.349 275.803 182.181C275.7 184.801 274.519 187.162 272.567 188.659L88.0846 329.869C84.6609 332.49 79.9361 331.555 77.5566 327.787L-50.8242 124.768C-51.7786 123.257 -52.2451 121.491 -52.1723 119.654ZM274.831 182.134C274.895 180.538 274.489 178.994 273.659 177.681L145.278 -25.3381C143.202 -28.6243 139.085 -29.4364 136.098 -27.1512L-48.3805 114.059C-50.0838 115.362 -51.111 117.421 -51.2008 119.701C-51.265 121.297 -50.8585 122.837 -50.0239 124.154L78.3527 327.173C80.4283 330.46 84.5453 331.272 87.5325 328.987L272.011 187.776C273.71 186.478 274.741 184.414 274.831 182.134Z" fill="#562929"/>
<path opacity="0.8" d="M-53.8628 106.741C-53.7601 104.125 -52.5062 101.717 -50.5076 100.301L132.375 -29.5827C135.777 -32.0001 140.33 -30.9189 142.526 -27.1748L260.606 174.088C261.436 175.505 261.843 177.139 261.774 178.815C261.671 181.43 260.417 183.838 258.419 185.255L75.5366 315.138C72.1343 317.551 67.5808 316.475 65.3853 312.73L-52.6988 111.467C-53.5247 110.051 -53.9313 108.417 -53.8628 106.741ZM260.807 178.767C260.867 177.313 260.516 175.897 259.793 174.664L141.713 -26.5987C139.808 -29.8471 135.854 -30.782 132.905 -28.6856L-49.9812 101.193C-51.7144 102.426 -52.8015 104.517 -52.8913 106.784C-52.947 108.238 -52.596 109.654 -51.8771 110.882L66.2027 312.15C68.1071 315.393 72.0573 316.333 75.0102 314.237L257.897 184.358C259.63 183.13 260.717 181.038 260.807 178.767Z" fill="#562929"/>
<path opacity="0.8" d="M-55.5619 93.823C-55.4549 91.1648 -54.1582 88.771 -52.0825 87.4159L129.212 -31.1361C132.593 -33.3458 136.975 -32.1182 138.982 -28.3976L246.765 171.114C247.476 172.431 247.822 173.933 247.762 175.458C247.655 178.111 246.354 180.51 244.283 181.865L62.9886 300.412C59.612 302.622 55.2253 301.394 53.2182 297.674L-54.569 98.1621C-55.2794 96.8495 -55.6218 95.3433 -55.5619 93.823ZM246.791 175.406C246.842 174.093 246.547 172.795 245.931 171.657L138.148 -27.8547C136.41 -31.0653 132.627 -32.1276 129.708 -30.2201L-51.5861 88.3319C-53.3793 89.5028 -54.5048 91.5756 -54.5947 93.8702C-54.6461 95.1875 -54.3508 96.4812 -53.7345 97.6191L54.0527 297.131C55.7903 300.341 59.5735 301.404 62.4922 299.491L243.787 180.939C245.58 179.768 246.701 177.7 246.791 175.406Z" fill="#562929"/>
<path opacity="0.8" d="M-57.2736 80.905C-57.1666 78.2421 -55.7842 75.8011 -53.6573 74.531L126.049 -32.6895C129.405 -34.6914 133.62 -33.3174 135.439 -29.6205L232.925 168.135C233.524 169.353 233.811 170.717 233.755 172.091C233.648 174.754 232.262 177.195 230.139 178.465L50.4366 285.686C47.0814 287.688 42.8702 286.314 41.0471 282.617L-56.439 84.8616C-57.0382 83.6435 -57.3249 82.2742 -57.2736 80.905ZM232.788 172.044C232.835 170.864 232.587 169.688 232.073 168.645L134.583 -29.1153C133.017 -32.2929 129.396 -33.4732 126.507 -31.7546L-53.1908 75.4706C-55.0481 76.5801 -56.2079 78.6292 -56.3021 80.9522C-56.3492 82.1326 -56.1009 83.3083 -55.5874 84.3564L41.903 282.112C43.4694 285.284 47.0899 286.47 49.9744 284.746L229.677 177.526C231.534 176.416 232.694 174.367 232.788 172.044Z" fill="#562929"/>
<path opacity="0.8" d="M-58.9941 67.9823C-58.8871 65.2674 -57.4406 62.8406 -55.228 61.646L122.887 -34.2476C126.22 -36.0417 130.26 -34.5167 131.895 -30.8481L219.089 165.155C219.581 166.265 219.816 167.502 219.769 168.725C219.662 171.44 218.22 173.871 215.999 175.061L37.8843 270.955C34.5504 272.749 30.5104 271.228 28.8799 267.555L-58.3136 71.5564C-58.8058 70.4469 -59.0412 69.2098 -58.9941 67.9823ZM218.794 168.678C218.836 167.629 218.631 166.572 218.207 165.623L131.018 -30.376C129.623 -33.5157 126.165 -34.8189 123.31 -33.2844L-54.7958 62.6092C-56.6917 63.629 -57.9285 65.7065 -58.0183 68.0295C-58.0611 69.0777 -57.86 70.1353 -57.4363 71.0843L29.753 267.088C31.1481 270.228 34.6061 271.531 37.4606 269.996L215.571 174.107C217.467 173.083 218.699 171.005 218.794 168.678Z" fill="#562929"/>
</g>
</svg>
