<svg width="1265" height="800" viewBox="0 0 1265 800" fill="none" xmlns="http://www.w3.org/2000/svg">
<g opacity="0.9">
<path opacity="0.8" d="M76.6261 427.821C76.8524 423.049 78.503 418.447 81.4079 414.514L547.613 -216.015C551.697 -221.545 557.818 -225.237 564.854 -226.414C571.89 -227.591 578.992 -226.12 584.849 -222.267L1253.55 217.552C1261.11 222.52 1265.38 230.68 1264.97 239.366C1264.75 244.138 1263.1 248.74 1260.19 252.673L793.986 883.202C789.902 888.732 783.781 892.424 776.745 893.601C769.709 894.787 762.607 893.307 756.75 889.454L88.0572 449.626C80.5025 444.659 76.23 436.507 76.6261 427.821ZM1262.84 239.259C1263.21 231.268 1259.28 223.759 1252.33 219.193L583.623 -220.626C578.238 -224.175 571.702 -225.531 565.232 -224.443C558.761 -223.355 553.131 -219.957 549.377 -214.874L83.1622 415.656C80.4836 419.277 78.9651 423.504 78.7671 427.892C78.3992 435.892 82.3322 443.392 89.2739 447.967L757.976 887.777C763.371 891.327 769.898 892.674 776.377 891.594C782.848 890.506 788.478 887.108 792.241 882.025L1258.45 251.495C1261.13 247.883 1262.64 243.647 1262.84 239.259Z" fill="#562929"/>
<path opacity="0.8" d="M73.0704 403.42C73.2874 398.657 74.9662 394.082 77.9277 390.185L540.625 -218.949C544.68 -224.291 550.707 -227.823 557.583 -228.893C564.458 -229.964 571.372 -228.447 577.04 -224.613L1223.05 211.889C1230.25 216.749 1234.31 224.642 1233.93 232.99C1233.71 237.752 1232.04 242.336 1229.08 246.233L766.38 855.368C758.005 866.4 741.66 868.942 729.965 861.04L83.9451 424.53C76.7488 419.669 72.6743 411.776 73.0704 403.42ZM1231.78 232.9C1232.14 225.231 1228.41 217.989 1221.8 213.521L575.786 -222.972C570.589 -226.485 564.241 -227.886 557.932 -226.905C551.612 -225.924 546.085 -222.677 542.36 -217.772L79.6632 391.362C76.9468 394.938 75.4095 399.139 75.202 403.509C74.8436 411.179 78.5785 418.421 85.1901 422.88L731.2 859.39C741.943 866.64 756.939 864.313 764.626 854.19L1227.32 245.056C1230.04 241.48 1231.59 237.279 1231.78 232.9Z" fill="#562929"/>
<path opacity="0.8" d="M69.4958 379.028C69.7127 374.266 71.4198 369.708 74.438 365.856L533.626 -221.874C541.954 -232.532 557.922 -234.806 569.221 -226.958L1192.54 206.226C1199.39 210.979 1203.24 218.604 1202.88 226.622C1202.66 231.384 1200.95 235.942 1197.94 239.794L738.755 827.525C734.718 832.688 728.795 836.06 722.07 837.014C715.345 837.977 708.63 836.407 703.16 832.608L79.8234 399.425C72.9855 394.671 69.1185 387.046 69.4958 379.028ZM1200.73 226.542C1201.06 219.202 1197.53 212.21 1191.27 207.858L567.948 -225.326C557.601 -232.523 542.973 -230.427 535.343 -220.671L76.1545 367.06C73.391 370.591 71.8254 374.765 71.6273 379.126C71.2878 386.466 74.8247 393.449 81.0967 397.801L704.405 830.994C709.422 834.481 715.572 835.908 721.731 835.034C727.889 834.16 733.313 831.065 737.01 826.339L1196.2 238.608C1198.96 235.077 1200.53 230.903 1200.73 226.542Z" fill="#562929"/>
<path opacity="0.8" d="M65.9212 354.636C66.1382 349.874 67.8736 345.343 70.9483 341.526L526.618 -224.8C530.627 -229.776 536.446 -232.987 543.011 -233.834C549.575 -234.681 556.102 -233.067 561.384 -229.286L1162.01 200.589C1168.5 205.236 1172.16 212.593 1171.8 220.272C1171.57 225.034 1169.85 229.565 1166.77 233.382L711.092 799.717C702.82 809.991 687.22 812.016 676.327 804.212L75.7113 374.319C69.2223 369.682 65.5628 362.324 65.9212 354.636ZM1169.68 220.183C1170 213.164 1166.65 206.44 1160.73 202.194L560.101 -227.68C555.272 -231.132 549.311 -232.612 543.312 -231.836C537.314 -231.06 531.995 -228.126 528.335 -223.578L72.646 342.757C69.8448 346.244 68.2509 350.382 68.0528 354.734C67.7321 361.753 71.0709 368.478 77.0034 372.723L677.628 802.598C687.588 809.724 701.839 807.886 709.394 798.495L1165.07 232.16C1167.88 228.673 1169.47 224.535 1169.68 220.183Z" fill="#562929"/>
<path opacity="0.8" d="M62.3372 330.245C62.5636 325.482 64.3273 320.969 67.4492 317.197L519.62 -227.725C523.6 -232.523 529.325 -235.573 535.73 -236.304C542.143 -237.045 548.472 -235.377 553.565 -231.622L1131.49 194.935C1137.63 199.465 1141.09 206.556 1140.75 213.904C1140.53 218.667 1138.76 223.179 1135.64 226.952L683.467 771.883C679.486 776.681 673.761 779.731 667.348 780.462C660.934 781.202 654.606 779.544 649.522 775.789L71.5896 349.223C65.4591 344.692 61.9977 337.602 62.3372 330.245ZM1138.62 213.815C1138.93 207.109 1135.77 200.643 1130.18 196.513L552.254 -230.044C547.613 -233.468 541.841 -234.985 536.003 -234.307C530.155 -233.638 524.94 -230.855 521.309 -226.485L69.1374 318.455C66.2891 321.888 64.6763 325.999 64.4782 330.343C64.167 337.04 67.3265 343.506 72.9195 347.644L650.852 774.202C655.492 777.626 661.264 779.133 667.103 778.465C672.95 777.796 678.166 775.013 681.797 770.643L1133.97 225.712C1136.81 222.27 1138.42 218.158 1138.62 213.815Z" fill="#562929"/>
<path opacity="0.8" d="M58.7438 305.853C58.9607 301.082 60.7716 296.596 63.9594 292.877L512.622 -230.659C520.78 -240.184 535.645 -241.664 545.746 -233.968L1100.99 189.281C1106.78 193.686 1110.03 200.518 1109.71 207.537C1109.49 212.308 1107.69 216.794 1104.5 220.513L655.832 744.04C651.88 748.659 646.249 751.54 639.996 752.164C633.734 752.789 627.594 751.085 622.708 747.348L67.4774 324.118C61.6864 319.703 58.4231 312.881 58.7438 305.853ZM1107.58 207.456C1107.87 201.071 1104.91 194.864 1099.65 190.85L544.407 -232.398C535.22 -239.399 521.714 -238.052 514.291 -229.393L65.6194 294.152C62.7239 297.532 61.0828 301.608 60.8847 305.942C60.5924 312.328 63.5539 318.535 68.8167 322.548L624.057 745.797C628.508 749.195 634.092 750.746 639.77 750.176C645.457 749.605 650.578 746.983 654.162 742.791L1102.83 219.255C1105.74 215.875 1107.38 211.791 1107.58 207.456Z" fill="#562929"/>
<path opacity="0.8" d="M55.1597 281.461C55.3767 276.69 57.2158 272.231 60.4697 268.547L505.624 -233.584C509.557 -238.017 515.074 -240.737 521.177 -241.254C527.279 -241.771 533.23 -240.006 537.927 -236.304L1070.47 183.626C1076 187.988 1078.99 194.382 1078.68 201.178C1078.46 205.958 1076.62 210.417 1073.36 214.092L628.207 716.223C620.095 725.374 605.608 726.586 595.903 718.943L63.3558 299.012C57.8289 294.651 54.8391 288.257 55.1597 281.461ZM1076.54 201.098C1076.82 194.935 1074.12 189.138 1069.11 185.187L536.56 -234.753C532.296 -238.115 526.901 -239.702 521.375 -239.239C515.838 -238.775 510.839 -236.304 507.274 -232.282L62.1108 269.84C59.1587 273.176 57.4894 277.216 57.2913 281.541C57.0083 287.704 59.7246 293.51 64.7328 297.452L597.28 717.392C606.08 724.33 619.209 723.224 626.566 714.93L1071.72 212.798C1074.67 209.472 1076.34 205.423 1076.54 201.098Z" fill="#562929"/>
<path opacity="0.8" d="M51.5569 257.069C51.7738 252.289 53.6601 247.848 56.9895 244.218L498.625 -236.51C502.53 -240.755 507.953 -243.314 513.895 -243.716C519.847 -244.117 525.6 -242.307 530.099 -238.623L1039.94 177.99C1045.13 182.226 1047.92 188.362 1047.63 194.828C1047.4 199.608 1045.54 204.049 1042.21 207.679L600.553 688.407C596.658 692.661 591.225 695.22 585.283 695.622C579.341 696.014 573.579 694.213 569.08 690.529L59.2437 273.907C54.0563 269.671 51.2551 263.535 51.5569 257.069ZM1045.51 194.739C1045.78 188.888 1043.25 183.341 1038.57 179.515L528.712 -237.107C524.638 -240.443 519.441 -242.075 514.056 -241.709C508.68 -241.343 503.775 -239.034 500.248 -235.19L58.6023 245.538C55.5936 248.82 53.8959 252.833 53.6979 257.158C53.4244 263.009 55.9615 268.556 60.6395 272.382L570.485 689.004C574.56 692.331 579.766 693.963 585.142 693.606C590.518 693.249 595.413 690.931 598.95 687.096L1040.6 206.359C1043.61 203.077 1045.31 199.055 1045.51 194.739Z" fill="#562929"/>
<path opacity="0.8" d="M47.9539 232.677C48.1708 227.951 50.1421 223.411 53.4997 219.889L491.637 -239.444C495.513 -243.511 500.842 -245.91 506.633 -246.195C512.424 -246.48 517.989 -244.625 522.299 -240.969L1009.45 172.336C1014.29 176.438 1016.9 182.315 1016.62 188.46C1016.4 193.187 1014.43 197.726 1011.07 201.249L572.937 660.581C569.061 664.639 563.741 667.038 557.941 667.333C552.15 667.618 546.585 665.763 542.275 662.107L55.122 248.793C50.2835 244.691 47.671 238.813 47.9539 232.677ZM1014.48 188.371C1014.73 182.833 1012.38 177.535 1008.02 173.834L520.856 -239.471C516.97 -242.77 511.962 -244.438 506.737 -244.179C501.521 -243.921 496.72 -241.763 493.221 -238.097L55.0842 221.244C52.0567 224.419 50.2835 228.513 50.0855 232.767C49.8308 238.305 52.1887 243.603 56.5461 247.304L543.709 660.608C547.594 663.899 552.603 665.576 557.828 665.317C563.043 665.058 567.844 662.9 571.343 659.235L1009.48 199.902C1012.51 196.727 1014.29 192.634 1014.48 188.371Z" fill="#562929"/>
<path opacity="0.8" d="M44.3322 208.286C44.5491 203.55 46.5675 199.028 50.01 195.559L484.638 -242.369C488.486 -246.248 493.712 -248.487 499.352 -248.656C504.982 -248.835 510.358 -246.926 514.471 -243.296L978.941 166.69C983.449 170.668 985.873 176.278 985.609 182.101C985.392 186.837 983.373 191.359 979.931 194.828L545.303 632.756C537.352 640.765 523.968 641.184 515.47 633.684L51.0003 223.697C46.492 219.719 44.0681 214.1 44.3322 208.286ZM983.468 182.012C983.704 176.786 981.525 171.738 977.479 168.162L513.009 -241.825C509.311 -245.089 504.483 -246.801 499.418 -246.641C494.353 -246.48 489.656 -244.474 486.195 -240.987L51.5757 196.941C48.4821 200.054 46.6712 204.112 46.4732 208.375C46.2374 213.601 48.4161 218.649 52.4622 222.225L516.932 632.212C524.562 638.954 536.597 638.58 543.737 631.383L978.365 193.446C981.459 190.333 983.27 186.275 983.468 182.012Z" fill="#562929"/>
<path opacity="0.8" d="M40.7105 183.885C40.9274 179.132 42.993 174.637 46.5204 171.23L477.64 -245.303C485.544 -252.937 498.55 -253.08 506.642 -245.633L948.42 161.045C952.589 164.889 954.843 170.24 954.588 175.743C954.371 180.496 952.306 185 948.778 188.407L517.659 604.94C509.764 612.574 496.749 612.725 488.656 605.27L46.8788 198.583C42.71 194.739 40.4653 189.388 40.7105 183.885ZM952.457 175.653C952.683 170.73 950.674 165.932 946.939 162.49L505.171 -244.188C497.918 -250.859 486.261 -250.726 479.187 -243.894L48.0577 172.639C44.8981 175.689 43.0495 179.72 42.8515 183.974C42.6251 188.906 44.6341 193.695 48.3784 197.138L490.146 603.816C497.399 610.487 509.057 610.353 516.131 603.522L947.25 186.989C950.41 183.939 952.258 179.907 952.457 175.653Z" fill="#562929"/>
<path opacity="0.8" d="M37.0793 159.493C37.3057 154.713 39.4184 150.245 43.0401 146.892L470.651 -248.237C478.498 -255.488 491.146 -255.363 498.833 -247.961L917.918 155.409C921.766 159.11 923.832 164.202 923.596 169.384C923.379 174.164 921.257 178.641 917.635 181.985L490.024 577.114C482.177 584.365 469.529 584.24 461.842 576.838L42.7572 173.477C38.9091 169.776 36.8436 164.675 37.0793 159.493ZM921.455 169.295C921.672 164.666 919.823 160.126 916.39 156.818L497.315 -246.552C490.448 -253.16 479.159 -253.267 472.16 -246.792L44.5398 148.336C41.3047 151.324 39.4184 155.319 39.2203 159.582C39.0128 164.202 40.8614 168.751 44.2945 172.059L463.37 575.429C470.236 582.037 481.526 582.144 488.534 575.661L916.145 180.532C919.37 177.553 921.257 173.558 921.455 169.295Z" fill="#562929"/>
<path opacity="0.8" d="M33.4387 135.102C33.665 130.295 35.8343 125.853 39.5598 122.571L463.662 -251.162C467.445 -254.489 472.368 -256.237 477.536 -256.068C482.705 -255.907 487.487 -253.847 491.024 -250.288L887.407 149.763C890.991 153.375 892.83 158.084 892.603 163.025C892.377 167.832 890.208 172.282 886.482 175.564L462.38 549.289C454.589 556.156 442.309 555.764 435.028 548.415L38.6355 148.363C35.0609 144.751 33.2123 140.042 33.4387 135.102ZM890.472 162.936C890.67 158.539 889.038 154.356 885.85 151.137L489.458 -248.906C486.327 -252.072 482.064 -253.9 477.47 -254.052C472.877 -254.204 468.491 -252.652 465.134 -249.691L41.0217 124.034C37.7018 126.959 35.7777 130.91 35.5797 135.191C35.3816 139.579 37.0133 143.77 40.2012 146.981L436.594 547.033C443.073 553.57 453.986 553.918 460.927 547.809L885.03 174.075C888.34 171.167 890.264 167.208 890.472 162.936Z" fill="#562929"/>
<path opacity="0.8" d="M29.7886 110.71C30.015 105.876 32.2503 101.444 36.089 98.2329L456.674 -254.097C464.417 -260.58 476.32 -259.92 483.205 -252.616L856.905 144.118C860.159 147.578 861.847 152.029 861.63 156.657C861.404 161.491 859.168 165.923 855.339 169.134L434.736 521.473C426.992 527.956 415.09 527.287 408.204 519.983L34.5139 123.249C31.2505 119.789 29.5717 115.338 29.7886 110.71ZM859.489 156.568C859.678 152.466 858.188 148.524 855.301 145.456L481.601 -251.278C475.499 -257.753 464.955 -258.342 458.088 -252.598L37.5037 99.7401C34.1083 102.585 32.1277 106.509 31.9296 110.799C31.741 114.892 33.2312 118.843 36.1173 121.911L409.808 518.645C415.91 525.12 426.445 525.709 433.321 519.956L853.915 167.627C857.31 164.782 859.291 160.858 859.489 156.568Z" fill="#562929"/>
<path opacity="0.8" d="M26.1197 86.318C26.3461 81.511 28.704 76.9894 32.5993 73.9036L449.685 -257.031C453.42 -259.992 458.145 -261.401 462.993 -261.008C467.85 -260.616 472.245 -258.458 475.386 -254.944L826.384 138.482C829.336 141.79 830.855 145.991 830.657 150.298C830.44 155.097 828.072 159.627 824.177 162.722L407.091 493.647C399.395 499.756 387.87 498.811 381.39 491.56L30.3923 98.1348C27.4402 94.8261 25.9217 90.6345 26.1197 86.318ZM828.525 150.209C828.704 146.401 827.365 142.691 824.762 139.775L473.754 -253.642C470.991 -256.745 467.105 -258.645 462.823 -258.993C458.532 -259.341 454.363 -258.101 451.071 -255.488L33.9763 75.4465C30.5337 78.1755 28.4588 82.1709 28.2607 86.4072C28.0815 90.2153 29.4208 93.9164 32.0239 96.8417L383.031 490.267C388.747 496.671 398.924 497.5 405.714 492.113L822.8 161.188C826.243 158.45 828.327 154.445 828.525 150.209Z" fill="#562929"/>
<path opacity="0.8" d="M22.4414 61.9173C22.6583 57.0746 25.1011 52.5708 29.1284 49.5653L442.705 -259.965C446.412 -262.739 451.033 -263.978 455.73 -263.47C460.427 -262.962 464.634 -260.759 467.577 -257.263L795.892 132.845C798.542 135.993 799.9 139.935 799.711 143.94C799.485 148.782 797.052 153.286 793.034 156.292L379.447 465.831C371.808 471.547 360.65 470.335 354.576 463.128L26.2612 73.0206C23.6204 69.8724 22.2622 65.9305 22.4414 61.9173ZM797.57 143.85C797.731 140.328 796.542 136.858 794.213 134.094L465.898 -256.005C463.313 -259.073 459.616 -261.017 455.485 -261.463C451.354 -261.909 447.289 -260.821 444.035 -258.386L30.4583 51.1438C26.9214 53.7926 24.7804 57.7434 24.5824 62.0064C24.422 65.5292 25.6104 68.9895 27.94 71.7631L356.246 461.871C361.584 468.212 371.393 469.282 378.118 464.243L791.694 154.713C795.231 152.073 797.372 148.113 797.57 143.85Z" fill="#562929"/>
<path opacity="0.8" d="M18.7536 37.5255C18.98 32.6293 21.4982 28.1523 25.6576 25.2271L435.716 -262.899C443.309 -268.232 454.099 -266.743 459.758 -259.581L765.371 127.209C767.729 130.187 768.936 133.88 768.757 137.581C768.53 142.477 766.012 146.954 761.853 149.879L351.803 438.014C344.211 443.348 333.421 441.858 327.762 434.706L22.1396 47.9065C19.7817 44.9188 18.5838 41.2355 18.7536 37.5255ZM766.625 137.501C766.776 134.254 765.72 131.026 763.664 128.413L458.041 -258.377C453.09 -264.647 443.648 -265.949 436.99 -261.276L26.9308 26.8502C23.2902 29.4098 21.0832 33.3339 20.8852 37.6147C20.7343 40.861 21.7906 44.0805 23.8561 46.7025L329.479 433.493C334.43 439.762 343.871 441.064 350.521 436.391L760.589 148.256C764.23 145.705 766.427 141.781 766.625 137.501Z" fill="#562929"/>
<path opacity="0.8" d="M15.047 13.1248C15.2733 8.18399 17.8765 3.71591 22.1867 0.897705L428.737 -265.833C436.282 -270.783 446.695 -269.017 451.948 -261.9L734.878 121.581C736.982 124.435 738.01 127.771 737.849 131.231C737.623 136.181 735.02 140.64 730.719 143.467L324.15 410.198C316.604 415.148 306.192 413.382 300.948 406.265L18.018 22.7834C15.9147 19.9295 14.8867 16.594 15.047 13.1248ZM735.708 131.142C735.85 128.127 734.954 125.211 733.124 122.732L450.194 -260.75C445.62 -266.957 436.546 -268.491 429.963 -264.174L23.4034 2.55652C19.6496 5.01801 17.386 8.9064 17.188 13.214C17.0465 16.2284 17.9425 19.1358 19.7817 21.624L302.702 405.106C307.277 411.313 316.35 412.847 322.933 408.53L729.493 141.799C733.237 139.347 735.51 135.449 735.708 131.142Z" fill="#562929"/>
<path opacity="0.8" d="M11.3215 -11.267C11.5479 -16.2077 14.3114 -20.7561 18.7159 -23.4316L421.758 -268.767C429.256 -273.334 439.291 -271.291 444.13 -264.219L704.358 115.945C706.187 118.62 707.083 121.706 706.932 124.872C706.706 129.813 703.943 134.361 699.538 137.037L296.496 382.373C288.998 386.93 278.963 384.896 274.124 377.824L13.8869 -2.33969C12.0666 -5.0152 11.1706 -8.10095 11.3215 -11.267ZM704.801 124.783C704.933 122.036 704.16 119.361 702.566 117.033L442.338 -263.131C438.14 -269.267 429.426 -271.033 422.927 -267.073L19.876 -21.7461C16.0562 -19.4184 13.6606 -15.4675 13.4625 -11.1867C13.3399 -8.43985 14.1133 -5.76434 15.6978 -3.44556L275.926 376.727C280.123 382.854 288.828 384.629 295.336 380.669L698.387 135.342C702.207 133.024 704.603 129.073 704.801 124.783Z" fill="#562929"/>
<path opacity="0.8" d="M7.57713 -35.6676C7.81292 -40.6887 10.6707 -45.2103 15.245 -47.7699L414.788 -271.701C422.239 -275.875 431.897 -273.557 436.32 -266.529L673.856 110.326C675.421 112.815 676.185 115.651 676.053 118.531C675.817 123.543 672.95 128.074 668.385 130.633L268.843 354.556C261.401 358.73 251.734 356.411 247.31 349.384L9.76527 -27.4716C8.19962 -29.9509 7.44509 -32.7959 7.57713 -35.6676ZM673.912 118.433C674.025 115.954 673.375 113.501 672.016 111.352L434.481 -265.503C430.652 -271.568 422.314 -273.574 415.882 -269.971L16.3391 -46.0397C12.3873 -43.8279 9.90674 -39.9128 9.70868 -35.5784C9.5955 -33.0902 10.2463 -30.6466 11.6044 -28.4972L249.149 348.358C252.979 354.422 261.316 356.429 267.749 352.817L667.291 128.885C671.243 126.674 673.714 122.767 673.912 118.433Z" fill="#562929"/>
<path opacity="0.8" d="M3.80458 -60.0684C4.04037 -65.0983 7.08678 -69.7091 11.7743 -72.1082L407.818 -274.636C415.212 -278.417 424.502 -275.822 428.511 -268.839L643.354 104.699C644.674 107 645.306 109.577 645.184 112.172C644.948 117.202 641.892 121.813 637.214 124.212L241.18 326.74C233.785 330.521 224.505 327.926 220.487 320.943L5.64374 -52.5948C4.32331 -54.8957 3.6914 -57.482 3.80458 -60.0684ZM643.052 112.083C643.156 109.854 642.609 107.633 641.477 105.662L426.624 -267.884C423.173 -273.887 415.193 -276.116 408.827 -272.87L12.8023 -70.3334C8.70902 -68.2376 6.15305 -64.367 5.94555 -59.9792C5.84181 -57.7496 6.38884 -55.5289 7.52064 -53.549L222.373 319.988C225.825 325.982 233.804 328.22 240.161 324.965L636.195 122.437C640.289 120.342 642.845 116.471 643.052 112.083Z" fill="#562929"/>
<path opacity="0.8" d="M0.0130014 -84.478C0.248792 -89.606 3.43668 -94.1901 8.31283 -96.4464L400.848 -277.579C408.195 -280.968 417.098 -278.087 420.701 -271.158L612.861 99.0713C613.946 101.167 614.465 103.504 614.361 105.814C614.125 110.942 610.947 115.535 606.052 117.782L213.517 298.914C206.17 302.303 197.266 299.432 193.673 292.493L1.51263 -77.7267C0.427993 -79.8226 -0.0907465 -82.1592 0.0130014 -84.478ZM612.211 105.724C612.305 103.744 611.852 101.747 610.918 99.9542L418.768 -270.266C415.693 -276.196 408.072 -278.658 401.781 -275.759L9.26543 -94.6271C5.08722 -92.7007 2.36148 -88.7766 2.16341 -84.3888C2.0691 -82.4089 2.51238 -80.4112 3.44611 -78.6186L195.597 291.61C198.671 297.541 206.292 300.002 212.583 297.104L605.109 115.98C609.287 114.045 612.003 110.121 612.211 105.724Z" fill="#562929"/>
</g>
</svg>
