<svg width="1059" height="801" viewBox="0 0 1059 801" fill="none" xmlns="http://www.w3.org/2000/svg">
<g opacity="0.8">
<path opacity="0.8" d="M64.1479 502.485C64.3374 498.56 65.7192 494.774 68.1511 491.538L458.437 -27.1839C461.856 -31.7328 466.98 -34.7703 472.87 -35.7388C478.76 -36.7073 484.706 -35.4967 489.609 -32.3271L1049.42 329.502C1055.74 333.588 1059.32 340.302 1058.98 347.448C1058.79 351.373 1057.41 355.159 1054.97 358.395L664.689 877.117C661.27 881.666 656.146 884.703 650.256 885.672C644.365 886.648 638.42 885.43 633.517 882.26L73.7176 520.424C67.3931 516.337 63.8163 509.631 64.1479 502.485ZM1057.19 347.36C1057.5 340.786 1054.21 334.608 1048.39 330.852L488.583 -30.9771C484.074 -33.8972 478.603 -35.0124 473.186 -34.1173C467.77 -33.2222 463.056 -30.4269 459.913 -26.2448L69.6197 492.477C67.3773 495.456 66.1061 498.934 65.9403 502.544C65.6323 509.125 68.9248 515.295 74.7361 519.059L634.543 880.881C639.059 883.801 644.523 884.909 649.948 884.021C655.364 883.126 660.078 880.33 663.228 876.148L1053.51 357.426C1055.76 354.455 1057.03 350.97 1057.19 347.36Z" fill="#461717"/>
<path opacity="0.8" d="M61.1713 482.411C61.3529 478.493 62.7583 474.729 65.2376 471.523L452.586 -29.5978C455.981 -33.9926 461.027 -36.8981 466.783 -37.7785C472.539 -38.6589 478.326 -37.4116 483.072 -34.2568L1023.88 324.843C1029.91 328.841 1033.31 335.335 1032.99 342.202C1032.8 346.12 1031.41 349.891 1028.93 353.097L641.578 854.218C634.567 863.294 620.884 865.385 611.093 858.884L70.2751 499.778C64.2506 495.779 60.8397 489.286 61.1713 482.411ZM1031.19 342.129C1031.49 335.819 1028.37 329.861 1022.83 326.185L482.021 -32.9068C477.671 -35.7975 472.357 -36.9494 467.075 -36.1424C461.785 -35.3353 457.158 -32.6646 454.039 -28.6293L66.6904 472.491C64.4164 475.434 63.1294 478.889 62.9557 482.484C62.6557 488.794 65.7824 494.752 71.3173 498.42L612.127 857.527C621.12 863.492 633.675 861.577 640.11 853.25L1027.46 352.129C1029.73 349.187 1031.03 345.731 1031.19 342.129Z" fill="#461717"/>
<path opacity="0.8" d="M58.1787 462.345C58.3603 458.427 59.7894 454.677 62.316 451.508L446.727 -32.0042C453.699 -40.7719 467.067 -42.6428 476.526 -36.1863L998.339 320.184C1004.07 324.094 1007.3 330.368 1006.99 336.963C1006.81 340.881 1005.38 344.631 1002.86 347.8L618.452 831.312C615.072 835.56 610.114 838.334 604.484 839.119C598.854 839.911 593.233 838.62 588.653 835.494L66.8245 479.124C61.1001 475.214 57.8629 468.94 58.1787 462.345ZM1005.19 336.897C1005.48 330.859 1002.52 325.107 997.273 321.527L475.46 -34.8436C466.798 -40.7646 454.552 -39.0404 448.164 -31.0138L63.7531 452.498C61.4396 455.404 60.1289 458.837 59.9631 462.425C59.6789 468.464 62.6398 474.208 67.8904 477.789L589.695 834.166C593.896 837.035 599.044 838.209 604.2 837.49C609.356 836.771 613.896 834.225 616.991 830.336L1001.4 346.824C1003.72 343.919 1005.03 340.485 1005.19 336.897Z" fill="#461717"/>
<path opacity="0.8" d="M55.1863 442.278C55.3679 438.36 56.8207 434.633 59.3947 431.493L440.861 -34.4108C444.217 -38.5048 449.088 -41.1461 454.584 -41.8431C460.079 -42.5401 465.543 -41.2121 469.965 -38.1013L972.78 315.547C978.213 319.369 981.276 325.422 980.976 331.74C980.787 335.657 979.342 339.385 976.768 342.525L595.293 808.436C588.369 816.888 575.309 818.553 566.19 812.133L63.382 458.471C57.9498 454.655 54.8862 448.602 55.1863 442.278ZM979.2 331.666C979.468 325.892 976.665 320.36 971.707 316.867L468.891 -36.7806C464.848 -39.62 459.858 -40.8379 454.836 -40.1996C449.815 -39.5613 445.362 -37.1475 442.298 -33.4056L60.8159 432.505C58.4709 435.374 57.1365 438.778 56.9707 442.359C56.7023 448.133 59.4973 453.665 64.4637 457.157L567.28 810.805C575.617 816.668 587.548 815.156 593.872 807.43L975.346 341.52C977.699 338.651 979.026 335.247 979.2 331.666Z" fill="#461717"/>
<path opacity="0.8" d="M52.1858 422.211C52.3753 418.294 53.8518 414.581 56.4653 411.478L435.002 -36.8172C438.334 -40.7645 443.127 -43.2737 448.488 -43.8753C453.857 -44.4843 459.155 -43.1123 463.419 -40.0235L947.23 310.895C952.37 314.622 955.267 320.455 954.983 326.501C954.802 330.419 953.317 334.131 950.704 337.235L572.167 785.537C568.835 789.484 564.042 791.993 558.673 792.595C553.304 793.204 548.006 791.839 543.75 788.751L59.9315 437.824C54.7993 434.097 51.9016 428.264 52.1858 422.211ZM953.199 326.428C953.459 320.91 950.814 315.591 946.132 312.194L462.321 -38.7248C458.437 -41.5422 453.605 -42.7895 448.717 -42.2319C443.822 -41.6816 439.455 -39.3925 436.416 -35.7974L57.8786 412.512C55.4941 415.337 54.144 418.719 53.9781 422.292C53.7176 427.802 56.3627 433.122 61.0448 436.526L544.863 787.445C548.748 790.262 553.58 791.502 558.468 790.952C563.363 790.401 567.729 788.112 570.769 784.517L949.306 336.215C951.683 333.383 953.033 330.001 953.199 326.428Z" fill="#461717"/>
<path opacity="0.8" d="M49.1776 402.145C49.3592 398.22 50.8752 394.529 53.544 391.47L429.144 -39.231C435.974 -47.0669 448.417 -48.2848 456.873 -41.9531L921.695 306.244C926.543 309.868 929.267 315.488 928.998 321.262C928.817 325.188 927.309 328.878 924.64 331.938L549.032 762.631C545.724 766.432 541.01 768.802 535.775 769.315C530.533 769.829 525.393 768.427 521.303 765.353L56.4891 417.171C51.6411 413.539 48.9092 407.927 49.1776 402.145ZM927.214 321.196C927.459 315.943 924.98 310.837 920.574 307.535L455.752 -40.6618C448.062 -46.4213 436.755 -45.3134 430.541 -38.1892L54.9336 392.519C52.5096 395.3 51.1358 398.653 50.97 402.218C50.7252 407.472 53.2045 412.578 57.6103 415.88L522.432 764.077C526.158 766.872 530.833 768.149 535.586 767.679C540.347 767.209 544.634 765.052 547.635 761.604L923.242 330.903C925.674 328.123 927.048 324.762 927.214 321.196Z" fill="#461717"/>
<path opacity="0.8" d="M46.1772 382.078C46.3588 378.153 47.8985 374.485 50.6225 371.454L423.285 -41.6376C426.578 -45.2841 431.197 -47.5219 436.305 -47.9474C441.414 -48.373 446.396 -46.9202 450.328 -43.8754L896.152 301.592C900.779 305.18 903.282 310.44 903.022 316.031C902.84 319.964 901.3 323.632 898.568 326.655L525.906 739.747C519.115 747.275 506.988 748.273 498.863 741.985L53.0386 396.517C48.4117 392.93 45.9088 387.669 46.1772 382.078ZM901.229 315.965C901.466 310.895 899.2 306.126 895.007 302.876L449.183 -42.5988C445.614 -45.3648 441.098 -46.6708 436.471 -46.2893C431.836 -45.9077 427.651 -43.8754 424.667 -40.5664L51.9964 372.518C49.525 375.262 48.1275 378.586 47.9617 382.144C47.7248 387.214 49.9988 391.991 54.1914 395.233L500.016 740.708C507.382 746.416 518.373 745.507 524.532 738.683L897.194 325.591C899.666 322.854 901.063 319.524 901.229 315.965Z" fill="#461717"/>
<path opacity="0.8" d="M43.161 362.012C43.3426 358.079 44.9218 354.425 47.709 351.439L417.426 -44.0442C420.695 -47.5366 425.235 -49.6423 430.21 -49.9724C435.192 -50.3026 440.008 -48.8132 443.774 -45.783L870.594 296.955C874.936 300.44 877.273 305.488 877.029 310.807C876.839 314.74 875.276 318.394 872.489 321.38L502.755 716.863C499.495 720.363 494.947 722.469 489.972 722.799C484.998 723.122 480.174 721.639 476.407 718.609L49.596 375.864C45.2534 372.379 42.9084 367.331 43.161 362.012ZM875.252 310.734C875.481 305.921 873.357 301.357 869.441 298.21L442.614 -44.5358C439.203 -47.2798 434.852 -48.6224 430.344 -48.3216C425.843 -48.0208 421.737 -46.1205 418.784 -42.9583L49.0591 352.525C46.5404 355.225 45.1192 358.527 44.9533 362.085C44.7244 366.898 46.8483 371.462 50.7646 374.609L477.584 717.355C480.995 720.091 485.353 721.434 489.854 721.141C494.354 720.847 498.452 718.939 501.413 715.785L871.139 320.294C873.665 317.594 875.086 314.285 875.252 310.734Z" fill="#461717"/>
<path opacity="0.8" d="M40.1448 341.945C40.3264 338.057 41.9766 334.322 44.7875 331.424L411.576 -46.458C414.821 -49.8037 419.282 -51.7773 424.13 -52.0121C428.978 -52.2469 433.636 -50.7208 437.245 -47.7126L845.067 292.303C849.117 295.678 851.304 300.513 851.068 305.569C850.886 309.457 849.236 313.192 846.425 316.09L479.637 693.972C476.392 697.31 471.938 699.284 467.083 699.526C462.235 699.761 457.576 698.235 453.968 695.227L46.1456 355.203C42.0951 351.828 39.908 346.993 40.1448 341.945ZM849.275 305.495C849.488 300.939 847.514 296.581 843.867 293.536L436.037 -46.48C432.784 -49.1947 428.591 -50.5667 424.217 -50.3539C419.85 -50.1412 415.831 -48.3656 412.902 -45.3501L46.114 332.539C43.5795 335.151 42.0951 338.519 41.9293 342.019C41.7161 346.575 43.69 350.933 47.3378 353.978L455.168 693.994C458.421 696.701 462.614 698.081 466.988 697.868C471.354 697.655 475.373 695.88 478.302 692.864L845.091 314.982C847.625 312.37 849.117 309.002 849.275 305.495Z" fill="#461717"/>
<path opacity="0.8" d="M37.1128 321.879C37.2944 317.983 38.9841 314.263 41.866 311.409L405.717 -48.8645C408.938 -52.0561 413.313 -53.8977 418.034 -54.0371C422.748 -54.1838 427.249 -52.6137 430.691 -49.6276L819.524 287.659C823.298 290.931 825.327 295.546 825.106 300.337C824.925 304.233 823.235 307.953 820.353 310.807L456.502 671.081C449.846 677.669 438.642 678.014 431.528 671.844L42.6951 334.557C38.9209 331.285 36.8917 326.662 37.1128 321.879ZM823.314 300.264C823.511 295.965 821.688 291.812 818.3 288.87L429.467 -48.417C426.372 -51.1023 422.33 -52.511 418.09 -52.3789C413.85 -52.2469 409.917 -50.5961 407.02 -47.7273L43.1767 312.546C40.5869 315.107 39.071 318.445 38.9051 321.952C38.7078 326.251 40.5317 330.404 43.9189 333.346L432.752 670.633C439.14 676.18 449.214 675.872 455.192 669.951L819.042 309.67C821.632 307.109 823.148 303.771 823.314 300.264Z" fill="#461717"/>
<path opacity="0.8" d="M34.081 301.805C34.2626 297.894 35.9918 294.196 38.9448 291.394L399.858 -51.2783C406.475 -57.5588 417.363 -57.6761 424.138 -51.5498L793.974 283.015C797.464 286.177 799.351 290.579 799.137 295.106C798.956 299.017 797.227 302.722 794.274 305.525L433.36 648.197C426.751 654.477 415.855 654.602 409.081 648.468L39.2448 313.896C35.7549 310.734 33.8757 306.332 34.081 301.805ZM797.353 295.033C797.542 290.983 795.861 287.036 792.734 284.204L422.906 -50.3612C416.834 -55.8492 407.075 -55.7392 401.153 -50.1191L40.2318 292.553C37.5867 295.062 36.0391 298.379 35.8733 301.878C35.6838 305.936 37.3656 309.876 40.5002 312.708L410.328 647.272C416.4 652.76 426.159 652.65 432.081 647.03L792.995 304.358C795.64 301.849 797.187 298.533 797.353 295.033Z" fill="#461717"/>
<path opacity="0.8" d="M31.0411 281.738C31.2306 277.806 32.9993 274.13 36.0312 271.371L394.008 -53.6923C400.577 -59.6572 411.165 -59.5545 417.6 -53.4648L768.439 278.378C771.66 281.423 773.389 285.612 773.192 289.875C773.01 293.808 771.234 297.491 768.202 300.242L410.225 625.305C403.656 631.27 393.068 631.168 386.633 625.078L35.7944 293.243C32.5729 290.198 30.8437 286.001 31.0411 281.738ZM771.4 289.802C771.581 285.994 770.034 282.259 767.16 279.537L416.329 -52.3056C410.581 -57.7422 401.13 -57.8303 395.271 -52.5037L37.2867 272.56C34.5784 275.018 32.9993 278.305 32.8335 281.812C32.6598 285.612 34.2073 289.354 37.0814 292.076L387.912 623.919C393.66 629.355 403.111 629.443 408.978 624.109L766.954 299.046C769.655 296.596 771.234 293.309 771.4 289.802Z" fill="#461717"/>
<path opacity="0.8" d="M27.9933 261.672C28.1828 257.717 29.9988 254.063 33.1176 251.363L388.157 -56.0987C391.323 -58.8354 395.445 -60.2734 399.771 -60.134C404.098 -60.002 408.101 -58.3071 411.062 -55.3797L742.896 273.734C745.896 276.705 747.436 280.579 747.247 284.644C747.057 288.598 745.241 292.259 742.122 294.96L387.083 602.414C380.561 608.064 370.281 607.741 364.185 601.695L32.3438 272.582C29.3514 269.61 27.8038 265.736 27.9933 261.672ZM745.462 284.57C745.628 280.953 744.262 277.512 741.593 274.864L409.752 -54.2425C407.13 -56.8471 403.561 -58.3512 399.716 -58.4759C395.871 -58.6006 392.199 -57.324 389.389 -54.8881L34.3415 252.567C31.5622 254.973 29.9514 258.223 29.7856 261.745C29.6198 265.355 30.9858 268.803 33.6545 271.445L365.496 600.558C370.921 605.936 380.056 606.222 385.867 601.196L740.906 293.734C743.678 291.342 745.288 288.085 745.462 284.57Z" fill="#461717"/>
<path opacity="0.8" d="M24.9376 241.605C25.1271 237.629 26.9984 233.982 30.212 231.341L382.306 -58.5125C388.788 -63.8465 398.753 -63.3035 404.517 -57.2946L717.361 269.089C720.085 271.936 721.499 275.597 721.317 279.405C721.128 283.382 719.256 287.028 716.051 289.67L363.941 579.53C357.458 584.864 347.494 584.314 341.73 578.305L28.8934 251.921C26.1615 249.074 24.756 245.413 24.9376 241.605ZM719.525 279.332C719.683 275.957 718.435 272.714 716.019 270.19L403.174 -56.194C398.066 -61.5207 389.239 -62.0049 383.49 -57.2799L31.3963 232.581C28.5539 234.921 26.8958 238.15 26.73 241.679C26.572 245.046 27.8196 248.297 30.2357 250.82L343.072 577.205C348.181 582.531 357 583.015 362.756 578.283L714.858 288.43C717.701 286.089 719.359 282.861 719.525 279.332Z" fill="#461717"/>
<path opacity="0.8" d="M21.8663 221.539C22.0558 217.584 24.0297 213.864 27.2906 211.326L376.455 -60.9265C379.582 -63.3624 383.538 -64.5216 387.596 -64.1988C391.663 -63.876 395.342 -62.1005 397.971 -59.2097L691.811 264.452C694.282 267.174 695.553 270.63 695.388 274.174C695.206 278.121 693.224 281.848 689.963 284.394L340.798 556.639C334.355 561.665 324.707 560.887 319.283 554.922L25.443 231.26C22.9717 228.538 21.7005 225.09 21.8663 221.539ZM693.603 274.1C693.753 270.968 692.632 267.915 690.453 265.516L396.605 -58.1385C394.292 -60.6918 391.039 -62.2545 387.454 -62.5407C383.862 -62.8268 380.372 -61.807 377.616 -59.6573L28.4434 212.595C25.5615 214.84 23.8244 218.127 23.6586 221.612C23.5086 224.745 24.6298 227.79 26.809 230.196L320.656 553.858C325.441 559.126 333.961 559.808 339.646 555.377L688.81 283.132C691.692 280.88 693.437 277.585 693.603 274.1Z" fill="#461717"/>
<path opacity="0.8" d="M18.7869 201.465C18.9685 197.481 21.0135 193.776 24.385 191.303L370.613 -63.3402C373.716 -65.622 377.585 -66.6419 381.517 -66.2237C385.449 -65.8055 388.97 -63.9932 391.434 -61.1171L666.284 259.816C668.503 262.406 669.64 265.648 669.482 268.943C669.292 272.927 667.255 276.632 663.891 279.104L317.656 533.755C311.26 538.458 301.92 537.46 296.835 531.532L21.9847 210.599C19.7739 208.009 18.6369 204.766 18.7869 201.465ZM667.689 268.869C667.824 265.971 666.829 263.117 664.878 260.843L390.028 -60.0826C387.865 -62.6065 384.77 -64.206 381.311 -64.5729C377.853 -64.9397 374.45 -64.0446 371.726 -62.0416L25.4983 192.602C22.5374 194.781 20.745 198.031 20.5792 201.538C20.445 204.436 21.4399 207.283 23.3901 209.565L298.232 530.498C302.701 535.714 310.913 536.595 316.543 532.449L662.77 277.806C665.731 275.634 667.523 272.376 667.689 268.869Z" fill="#461717"/>
<path opacity="0.8" d="M15.6997 181.398C15.8892 177.37 17.9973 173.687 21.4793 171.281L364.762 -65.7541C371.118 -70.1416 380.151 -68.9163 384.888 -63.0247L640.733 255.179C642.707 257.629 643.718 260.667 643.568 263.711C643.378 267.739 641.27 271.423 637.788 273.829L294.514 510.871C288.158 515.259 279.125 514.033 274.387 508.149L18.5342 189.938C16.5603 187.481 15.5576 184.45 15.6997 181.398ZM641.783 263.645C641.91 260.975 641.025 258.319 639.304 256.169L383.451 -62.0343C379.306 -67.1921 371.402 -68.2633 365.828 -64.4188L22.5453 172.616C19.4975 174.722 17.6499 177.95 17.4841 181.472C17.3578 184.142 18.2421 186.791 19.9713 188.948L275.824 507.151C279.97 512.309 287.873 513.38 293.44 509.536L636.73 272.494C639.778 270.395 641.618 267.167 641.783 263.645Z" fill="#461717"/>
<path opacity="0.8" d="M12.5967 161.324C12.7861 157.26 14.9654 153.584 18.5737 151.265L358.919 -68.1681C365.236 -72.2401 373.952 -70.7874 378.35 -64.9325L615.206 250.549C616.967 252.897 617.828 255.641 617.694 258.487C617.504 262.559 615.325 266.228 611.724 268.554L271.363 487.987C265.047 492.059 256.33 490.606 251.94 484.752L15.0838 169.27C13.3231 166.922 12.4624 164.178 12.5967 161.324ZM615.901 258.414C616.02 255.934 615.27 253.535 613.738 251.495L376.882 -63.986C373.052 -69.0925 365.457 -70.3545 359.945 -66.8034L19.5923 152.63C16.4498 154.655 14.5548 157.854 14.389 161.398C14.2705 163.878 15.0206 166.269 16.5603 168.316L253.408 483.798C257.238 488.904 264.834 490.166 270.345 486.615L610.698 267.182C613.833 265.164 615.735 261.958 615.901 258.414Z" fill="#461717"/>
<path opacity="0.8" d="M9.47787 141.258C9.66737 137.193 11.9808 133.451 15.6681 131.25L353.076 -70.582C359.353 -74.3385 367.754 -72.6583 371.805 -66.8401L589.656 245.912C591.188 248.113 591.938 250.652 591.811 253.256C591.622 257.321 589.308 261.063 585.621 263.264L248.213 465.096C241.936 468.845 233.535 467.172 229.484 461.354L11.6255 148.602C10.1016 146.401 9.35154 143.862 9.47787 141.258ZM590.027 253.183C590.138 250.923 589.49 248.722 588.156 246.807L370.305 -65.945C366.791 -70.9928 359.495 -72.4455 354.055 -69.1879L16.6393 132.637C13.4415 134.552 11.436 137.802 11.2702 141.324C11.1676 143.583 11.815 145.785 13.1415 147.692L230.992 460.451C234.506 465.492 241.794 466.952 247.242 463.694L584.658 261.87C587.856 259.962 589.861 256.712 590.027 253.183Z" fill="#461717"/>
<path opacity="0.8" d="M6.34325 121.184C6.54064 117.053 8.93304 113.333 12.7625 111.228L347.241 -72.9957C353.479 -76.4294 361.564 -74.5218 365.267 -68.7403L564.121 241.29C565.432 243.337 566.071 245.67 565.961 248.04C565.763 252.163 563.363 255.89 559.542 257.996L225.063 442.212C218.833 445.646 210.74 443.738 207.037 437.957L8.17505 127.927C6.86436 125.887 6.23271 123.546 6.34325 121.184ZM564.168 247.959C564.263 245.919 563.718 243.902 562.581 242.133L363.728 -67.8965C360.522 -72.8856 353.542 -74.5364 348.157 -71.5723L13.6784 112.651C10.3701 114.471 8.29349 117.692 8.12768 121.257C8.03293 123.304 8.57774 125.315 9.71472 127.083L208.576 437.113C211.782 442.102 218.762 443.753 224.147 440.781L558.626 256.558C561.934 254.738 564.003 251.525 564.168 247.959Z" fill="#461717"/>
<path opacity="0.8" d="M3.18507 101.11C3.38246 96.972 5.93278 93.1788 9.85696 91.2052L341.406 -75.4095C347.597 -78.5204 355.374 -76.3853 358.73 -70.6405L538.586 236.66C539.692 238.553 540.221 240.673 540.118 242.809C539.921 246.947 537.363 250.74 533.446 252.713L201.905 419.328C195.714 422.439 187.945 420.304 184.582 414.559L4.72474 107.258C3.61934 105.366 3.09032 103.238 3.18507 101.11ZM538.334 242.735C538.421 240.901 537.963 239.074 537.015 237.453L357.151 -69.8554C354.261 -74.7932 347.581 -76.6274 342.251 -73.9568L10.7176 92.6653C7.29085 94.3894 5.15111 97.5737 4.9774 101.183C4.89055 103.018 5.3485 104.845 6.29599 106.473L186.161 413.774C189.05 418.704 195.73 420.546 201.052 417.868L532.594 251.253C536.02 249.529 538.16 246.345 538.334 242.735Z" fill="#461717"/>
<path opacity="0.8" d="M0.0108842 81.0288C0.208277 76.81 2.87703 73.0388 6.95912 71.1826L335.571 -77.8308C341.722 -80.6188 349.176 -78.249 352.192 -72.5482L513.059 232.03C513.967 233.755 514.402 235.677 514.315 237.577C514.117 241.796 511.457 245.574 507.359 247.423L178.746 396.437C172.596 399.225 165.142 396.862 162.134 391.154L1.2663 86.5829C0.358296 84.8587 -0.0759688 82.9364 0.0108842 81.0288ZM512.515 237.504C512.594 235.875 512.215 234.232 511.433 232.757L350.573 -71.8145C347.999 -76.6936 341.62 -78.7185 336.353 -76.334L7.75659 72.6793C4.25879 74.2641 1.97692 77.4924 1.81111 81.1022C1.73215 82.731 2.10325 84.3744 2.88493 85.8492L163.745 390.428C166.319 395.307 172.698 397.332 177.965 394.947L506.569 245.941C510.067 244.349 512.341 241.121 512.515 237.504Z" fill="#461717"/>
</g>
</svg>
