<svg width="1440" height="295" viewBox="0 0 1440 295" fill="none" xmlns="http://www.w3.org/2000/svg">
<g opacity="0.3">
<path d="M944.84 361C900.661 361 858.144 348.573 822.507 324.83C808.58 315.546 794.962 304.449 781.795 293.714C747.907 266.055 715.878 239.943 676.774 239.943C676.745 239.943 676.745 239.943 676.717 239.943C646.916 239.967 619.117 256.214 592.277 271.954C581.958 277.998 571.329 284.236 560.587 289.531C533.352 303.022 502.733 307.253 478.712 300.87C461.006 296.156 447.22 285.663 438.846 270.576C424.721 245.093 427.879 210.422 448.206 167.507C450.011 163.711 451.872 159.891 453.732 156.071C467.012 128.774 480.742 100.535 477.838 70.7479C474.258 34.0705 445.077 6.62894 417.785 -4.29935C385.532 -17.2102 349.133 -14.3814 321.052 -10.4888C123.696 16.9044 -54.4609 153.967 -143.863 347.219L-151.73 344.535C-107.663 249.275 -40.3358 165.065 42.9205 101.067C126.318 36.9477 222.008 -4.08176 319.727 -17.6454C349.021 -21.7072 387.026 -24.6085 421.394 -10.8756C457.426 3.53419 482.913 35.3277 486.296 70.1193C489.398 101.671 475.244 130.757 461.57 158.851C459.709 162.671 457.877 166.443 456.073 170.239C436.647 211.196 433.433 243.884 446.515 267.457C453.958 280.851 465.63 289.773 481.25 293.931C503.072 299.734 531.124 295.745 556.358 283.245C566.79 278.071 577.334 271.906 587.512 265.958C615.452 249.614 644.323 232.714 676.717 232.69C676.745 232.69 676.745 232.69 676.774 232.69C719.262 232.69 754.025 261.05 787.632 288.467C800.629 299.081 814.077 310.034 827.695 319.1C870.465 347.581 923.554 359.066 977.15 351.45C1036.22 343.06 1090.4 311.799 1125.82 265.692C1158.13 223.599 1176.99 171.012 1195.2 120.143C1211.75 73.9394 1228.89 26.1403 1256.16 -14.3814C1312.99 -98.8337 1415.39 -145.351 1511 -130.144L1509.45 -123.011C1417.37 -137.663 1318.52 -92.5476 1263.49 -10.7548C1236.7 29.0416 1219.7 76.4297 1203.29 122.27C1184.88 173.624 1165.85 226.718 1132.89 269.681C1096.18 317.48 1039.94 349.878 978.56 358.606C967.254 360.226 956.005 361 944.84 361Z" fill="#242325"/>
<path d="M944.925 357.253C900.492 357.253 856.819 344.68 820.196 320.648C817.489 318.859 814.782 317.021 812.076 315.135C801.503 307.713 791.015 299.444 780.893 291.465C746.976 264.749 714.948 239.483 676.153 239.483C675.702 239.483 675.279 239.483 674.828 239.483C661.211 239.653 647.452 243.013 631.466 250.001C618.018 255.9 604.541 263.734 591.516 271.325C581.112 277.394 570.342 283.68 559.487 288.999C532.421 302.297 502.057 306.528 478.205 300.314C460.584 295.721 446.769 285.445 438.226 270.624C423.819 245.625 426.131 211.099 445.105 168.014C446.825 164.146 448.573 160.278 450.349 156.385C462.811 129.064 475.667 100.825 472.34 71.2315C471.495 63.9299 469.634 56.7008 466.758 49.7376C457.116 26.3579 436.421 6.53226 411.414 -3.3322C378.934 -16.1463 342.592 -13.2692 314.568 -9.30407C120.059 17.9924 -55.6732 153.242 -143.976 343.737L-151.842 341.054C-108.283 247.099 -41.8583 164.074 40.2703 100.897C122.512 37.6488 216.904 -2.92119 313.271 -16.4123C342.48 -20.5225 380.457 -23.4963 415.022 -9.86016C442.06 0.802155 464.418 22.1993 474.793 47.3682C477.895 54.8633 479.924 62.6727 480.827 70.5787C484.379 101.889 471.128 130.974 458.3 159.093C456.524 162.961 454.776 166.806 453.084 170.65C434.984 211.752 432.559 244.343 445.895 267.481C453.479 280.634 465.207 289.386 480.742 293.424C502.395 299.081 530.279 295.092 555.343 282.761C565.887 277.563 576.545 271.374 586.807 265.378C600.03 257.665 613.732 249.686 627.66 243.594C644.605 236.171 659.998 232.472 674.744 232.279C717.57 231.65 752.643 259.357 786.645 286.17C796.682 294.076 807.085 302.273 817.461 309.574C820.083 311.412 822.705 313.201 825.355 314.942C873.566 346.566 934.521 357.518 992.601 344.97C1044 333.921 1089.84 305.464 1121.73 264.797C1154.04 223.623 1172.9 173.309 1191.11 124.64L1192.02 122.222C1209.21 76.3572 1226.98 28.9207 1254.75 -11.2625C1311.81 -94.0708 1413.73 -140.25 1508.41 -126.227L1506.97 -119.07C1415.73 -132.61 1317.31 -87.7846 1262.02 -7.56328C1234.76 31.9187 1217.11 78.9684 1200.05 124.446L1199.15 126.864C1180.74 176.017 1161.71 226.839 1128.72 268.859C1095.68 311.001 1048.06 340.546 994.631 352.006C978.194 355.512 961.503 357.253 944.925 357.253Z" fill="#2B2225"/>
<path d="M944.784 353.577C900.04 353.577 855.551 340.788 817.94 316.465C815.233 314.724 812.527 312.911 809.848 311.073C799.811 304.183 789.859 296.591 780.217 289.265C745.51 262.839 712.721 237.888 673.052 239.024C659.576 239.362 645.93 242.796 630.085 249.807C616.918 255.634 603.695 263.298 590.924 270.721C580.379 276.838 569.496 283.172 558.529 288.516C531.66 301.644 501.493 305.875 477.838 299.806C460.076 295.261 446.599 285.493 437.775 270.745C423.001 246.06 424.495 211.703 442.173 168.595C443.865 164.484 445.613 160.35 447.361 156.192C458.864 129.04 470.762 100.97 467.012 71.7875C466.053 64.5101 464.08 57.281 461.119 50.3904C451.195 27.1557 430.303 7.4751 405.211 -2.26847C372.478 -14.9859 336.221 -12.0362 308.252 -8.02274C116.422 19.0804 -56.8855 152.517 -144.089 340.231L-151.955 337.548C-108.931 244.923 -43.3807 163.034 37.6201 100.728C118.705 38.3257 211.83 -1.73656 306.843 -15.1793C335.967 -19.3378 373.859 -22.4084 408.679 -8.86894C435.773 1.64831 458.328 22.8762 469.042 47.9001C472.228 55.3468 474.37 63.1319 475.385 70.9897C479.361 101.84 467.125 130.733 455.283 158.658C453.535 162.792 451.787 166.902 450.124 170.988C433.236 212.139 431.629 244.585 445.274 267.433C452.999 280.368 464.784 288.902 480.235 292.868C501.718 298.356 529.433 294.367 554.328 282.205C565.013 276.983 575.784 270.745 586.187 264.701C599.156 257.157 612.576 249.372 626.194 243.352C642.969 235.929 658.194 232.158 672.77 231.771C715.794 230.441 751.403 257.617 785.827 283.825C795.385 291.103 805.253 298.622 815.149 305.416C817.771 307.205 820.393 308.97 823.043 310.662C871.565 342.045 931.956 353.432 988.738 341.948C1039.66 331.769 1085.44 304.013 1117.67 263.782C1150.01 223.478 1169.49 173.696 1188.29 125.559L1188.8 124.229C1206.65 78.6782 1225.09 31.556 1253.37 -8.31287C1281.67 -48.3993 1320.47 -80.4105 1365.58 -100.865C1410.86 -121.367 1459.35 -128.838 1505.81 -122.455L1504.49 -115.299C1412.72 -127.919 1316.97 -84.4481 1260.58 -4.56534C1232.78 34.6266 1214.49 81.3377 1196.81 126.526L1196.3 127.855C1177.3 176.452 1157.65 226.742 1124.63 267.892C1091.22 309.598 1043.63 338.418 990.655 349.008C975.487 352.078 960.121 353.577 944.784 353.577Z" fill="#322225"/>
<path d="M943.797 350.048C898.997 350.048 854.648 337.137 815.628 312.282C812.921 310.566 810.243 308.801 807.565 307.012C798.148 300.677 788.787 293.811 779.765 287.186C744.523 261.34 711.17 236.945 671.191 238.565C657.996 239.121 644.069 242.723 628.647 249.59C615.762 255.344 602.821 262.815 590.303 270.068C579.646 276.233 568.594 282.616 557.486 288.008C530.814 300.943 500.872 305.174 477.387 299.299C459.709 294.898 446.205 285.3 437.211 270.842C421.902 246.229 422.522 212.961 439.1 169.151C440.707 164.896 442.398 160.592 444.09 156.288C454.719 129.209 465.715 101.236 461.542 72.3679C460.471 65.0904 458.384 57.9097 455.368 51.0432C445.161 27.9295 424.044 8.39395 398.924 -1.20456C365.965 -13.8494 329.736 -10.8031 301.852 -6.76541C112.785 20.1684 -58.0979 151.791 -144.202 336.726L-152.068 334.042C-109.552 242.747 -44.9032 162.018 34.9416 100.559C114.899 39.027 206.698 -0.575951 300.386 -13.9462C329.426 -18.1772 367.29 -21.2961 402.307 -7.8534C429.458 2.51879 452.238 23.5775 463.234 48.4562C466.504 55.8788 468.76 63.5914 469.916 71.4491C474.314 101.961 463.008 130.757 452.069 158.585C450.377 162.865 448.714 167.144 447.107 171.375C431.29 213.227 430.472 244.633 444.626 267.433C452.52 280.126 464.305 288.491 479.699 292.336C501.042 297.655 528.531 293.69 553.285 281.698C564.111 276.451 574.994 270.141 585.538 264.072C598.254 256.722 611.392 249.13 624.7 243.183C641.249 235.808 656.305 231.94 670.74 231.336C714.159 229.474 750.275 256.045 785.235 281.698C794.201 288.274 803.505 295.092 812.752 301.33C815.374 303.095 817.996 304.811 820.646 306.48C870.127 337.983 928.403 349.54 984.819 339.023C1035.34 329.593 1081.07 302.539 1113.55 262.863C1145.92 223.43 1165.99 174.18 1185.42 126.574C1204 81.1202 1223.14 34.3123 1251.96 -5.2664C1310.34 -86.0196 1408.97 -130.482 1503.22 -118.587L1501.98 -111.406C1411.05 -122.915 1315.73 -79.7334 1259.12 -1.44633C1230.81 37.4554 1211.84 83.8522 1193.48 128.75C1173.77 177.033 1153.5 226.766 1120.46 267.022C1086.77 308.196 1039.23 336.266 986.623 346.107C972.414 348.718 958.091 350.048 943.797 350.048Z" fill="#392125"/>
<path d="M943.797 346.445C898.715 346.445 853.521 333.317 813.316 308.099C810.638 306.431 807.931 304.69 805.253 302.95C796.513 297.195 787.829 291.054 779.399 285.107C743.593 259.768 709.732 235.808 669.274 238.105C656.192 238.831 642.405 242.53 627.124 249.396C614.522 255.078 601.863 262.38 589.598 269.44C578.8 275.653 567.635 282.084 556.386 287.5C529.884 300.242 500.168 304.449 476.88 298.767C459.315 294.487 445.754 285.107 436.591 270.914C420.971 246.688 420.774 213.565 435.999 169.659C437.521 165.234 439.156 160.785 440.763 156.313C450.518 129.33 460.64 101.405 456.073 72.8514C454.888 65.5982 452.689 58.4416 449.588 51.5993C439.072 28.6306 417.757 9.24017 392.58 -0.237457C359.396 -12.7856 323.223 -9.6909 295.396 -5.5807C109.176 21.2564 -59.3102 151.066 -144.315 333.22L-152.181 330.512C-110.2 240.547 -46.3975 160.955 32.2914 100.366C111.093 39.6798 201.595 0.584564 293.958 -12.7373C322.913 -17.0167 360.721 -20.2082 395.963 -6.8863C423.142 3.34083 446.148 24.2303 457.454 48.964C460.809 56.314 463.177 64.0266 464.446 71.8602C469.267 102.034 458.892 130.708 448.855 158.464C447.248 162.913 445.641 167.338 444.118 171.738C429.57 213.686 429.542 244.972 444.006 267.409C452.041 279.86 463.882 288.056 479.191 291.804C500.393 296.978 527.685 293.013 552.242 281.19C563.209 275.919 574.233 269.56 584.89 263.419C597.323 256.263 610.208 248.84 623.205 242.989C639.558 235.639 654.444 231.674 668.738 230.876C712.552 228.434 749.288 254.425 784.784 279.522C793.129 285.421 801.757 291.538 810.384 297.195C813.006 298.912 815.628 300.604 818.278 302.249C868.125 333.51 925.866 345.502 980.9 336.049C1031 327.442 1076.62 301.112 1109.44 261.896C1141.8 223.333 1162.41 174.881 1182.34 128.025L1182.54 127.541C1201.43 83.2478 1220.97 37.4554 1250.52 -2.2442C1309.36 -81.305 1407.53 -125.477 1500.6 -114.743L1499.47 -107.562C1409.62 -117.91 1314.71 -75.043 1257.65 1.64839C1228.61 40.6711 1209.24 86.0766 1190.49 130.007L1190.3 130.491C1170.17 177.806 1149.36 226.742 1116.32 266.103C1082.29 306.794 1034.78 334.163 982.592 343.133C969.764 345.357 956.795 346.445 943.797 346.445Z" fill="#402026"/>
<path d="M943.882 342.891C898.631 342.891 852.506 329.497 811.061 303.917C808.382 302.273 805.704 300.58 803.025 298.888C795.047 293.762 787.096 288.346 779.399 283.1C742.916 258.245 708.492 234.745 667.47 237.622C654.5 238.516 640.855 242.312 625.715 249.179C613.422 254.764 601.045 261.872 589.034 268.738C578.095 275.024 566.761 281.504 555.343 286.968C515.702 305.899 461.457 308.97 436.027 270.987C420.069 247.148 419.054 214.194 432.954 170.19C434.391 165.597 435.914 161.003 437.465 156.361C446.374 129.451 455.593 101.623 450.631 73.3833C449.334 66.13 447.05 59.0218 443.836 52.2279C433.038 29.3801 411.526 10.1589 386.265 0.777969C353.052 -11.601 316.823 -8.45789 288.968 -4.34769C105.342 22.7554 -60.72 150.752 -144.427 329.714L-152.265 327.006C-110.849 238.444 -47.92 160.06 29.6976 100.341C107.315 40.6227 196.464 1.96267 287.558 -11.4801C316.57 -15.7595 354.406 -18.9993 389.648 -5.84669C417.306 4.40461 439.917 24.5929 451.702 49.52C455.142 56.8216 457.595 64.4859 459.005 72.2953C464.249 102.106 454.776 130.708 445.613 158.343C444.09 162.961 442.568 167.531 441.13 172.076C427.85 214.121 428.612 245.286 443.385 267.36C465.968 301.064 515.11 297.872 551.227 280.61C562.335 275.29 573.528 268.883 584.326 262.694C596.478 255.731 609.08 248.502 621.739 242.747C637.894 235.422 652.611 231.36 666.765 230.393C711.114 227.298 748.499 252.781 784.643 277.418C792.284 282.616 800.178 288.008 808.072 293.061C810.694 294.729 813.316 296.397 815.966 298.017C866.236 329.037 923.413 341.489 977.037 333.075C1026.66 325.29 1072.25 299.661 1105.35 260.929C1137.69 223.26 1158.72 175.848 1179.05 129.983L1179.69 128.508C1198.11 87.1403 1218.94 40.26 1249.11 0.777969C1308.2 -76.6387 1405.92 -120.449 1498 -110.898L1496.99 -103.693C1408.09 -112.929 1313.56 -70.3767 1256.18 4.74309C1226.52 43.5723 1205.86 90.0659 1187.59 131.071L1186.94 132.546C1166.42 178.846 1145.19 226.742 1112.17 265.208C1077.77 305.44 1030.32 332.059 978.56 340.183C967.113 341.996 955.526 342.891 943.882 342.891Z" fill="#471F26"/>
<path d="M944.135 339.385C898.856 339.385 851.801 325.725 808.777 299.71C806.099 298.09 803.42 296.446 800.742 294.778C793.637 290.305 786.532 285.638 779.653 281.141C742.437 256.698 707.279 233.608 665.609 237.138C652.752 238.226 639.219 242.07 624.277 248.937C612.294 254.449 600.199 261.34 588.499 268.037C577.39 274.372 565.916 280.924 554.328 286.436C515.139 305.005 461.26 308.099 435.519 271.035C419.223 247.607 417.419 214.774 429.937 170.698C431.29 165.887 432.756 161.051 434.222 156.192C442.286 129.427 450.631 101.744 445.218 73.8669C443.808 66.6861 441.44 59.6021 438.113 52.784C426.864 29.7428 405.69 11.126 379.977 1.7451C353.898 -7.82922 323.872 -9.32823 282.568 -3.16295C101.705 23.8918 -61.9604 150.099 -144.54 326.208L-152.378 323.501C-111.469 236.268 -49.4424 159.045 27.0474 100.172C103.509 41.3238 191.361 3.1474 281.13 -10.2712C310.085 -14.599 347.865 -17.8871 383.304 -4.87957C411.019 5.22666 433.828 25.2457 445.923 50.0278C449.475 57.3536 452.069 64.9937 453.563 72.7064C459.287 102.106 450.716 130.539 442.427 158.029C440.961 162.865 439.523 167.652 438.169 172.439C426.187 214.581 427.681 245.625 442.793 267.336C465.771 300.411 513.334 297.582 550.24 280.102C561.517 274.759 572.851 268.279 583.819 262.017C595.688 255.247 607.981 248.236 620.301 242.554C636.259 235.228 650.835 231.118 664.819 229.933C709.789 226.162 746.243 250.073 784.812 275.411C791.635 279.908 798.712 284.55 805.76 288.951C808.382 290.595 811.032 292.215 813.655 293.81C864.573 324.589 921.242 337.499 973.175 330.125C1022.35 323.162 1067.85 298.235 1101.29 259.986C1133.6 223.188 1155.03 176.815 1175.72 131.966L1176.85 129.5C1199.54 80.5641 1219.17 40.2358 1247.7 3.82438C1307.07 -71.924 1404.29 -115.444 1495.41 -107.03L1494.51 -99.825C1406.51 -107.949 1312.37 -65.6862 1254.75 7.86203C1226.67 43.6932 1207.24 83.6588 1184.74 132.183L1183.61 134.649C1162.69 179.958 1141.07 226.79 1108.08 264.362C1073.32 304.11 1025.9 330.029 974.585 337.306C964.548 338.684 954.37 339.385 944.135 339.385Z" fill="#4E1F26"/>
<path d="M943.374 336.024C898.236 336.024 851.434 322.243 806.465 295.527C803.787 293.931 801.137 292.336 798.458 290.716C792.34 286.968 786.278 283.124 780.245 279.328C742.127 255.223 706.18 232.448 663.748 236.679C651.005 237.936 637.612 241.901 622.811 248.743C611.167 254.159 599.353 260.856 587.963 267.36C576.686 273.767 565.013 280.392 553.257 285.928C513.25 304.739 461.119 307.471 434.927 271.132C418.067 247.752 415.502 216.031 426.864 171.254C428.133 166.298 429.486 161.293 430.839 156.264C438.085 129.572 445.556 101.985 439.748 74.4229C438.226 67.2663 435.745 60.2064 432.333 53.4125C420.802 30.4922 399.403 12.0447 373.634 2.78465C339.632 -9.52175 301.683 -5.79841 276.112 -1.92999C98.0395 25.028 -63.2009 149.422 -144.625 322.678L-152.463 319.971C-69.9675 144.393 93.7258 18.3308 274.674 -9.06238C301.317 -13.1 340.873 -16.9443 376.933 -3.88837C404.703 6.07279 427.71 25.9226 440.115 50.5596C443.78 57.837 446.458 65.4288 448.066 73.1414C454.212 102.179 446.515 130.515 439.072 157.908C437.718 162.913 436.365 167.869 435.125 172.802C424.411 215.016 426.695 245.939 442.117 267.312C465.405 299.589 512.658 296.736 549.169 279.57C560.615 274.178 572.118 267.626 583.255 261.316C594.814 254.739 606.797 247.945 618.779 242.36C634.568 235.059 648.946 230.852 662.761 229.474C708.464 224.953 745.764 248.526 785.235 273.501C791.241 277.297 797.246 281.093 803.336 284.84C805.958 286.436 808.608 288.032 811.258 289.603C863.529 320.648 918.141 333.655 969.256 327.175C1017.24 321.107 1063.87 296.276 1097.17 259.043C1129.45 223.139 1151.25 177.806 1172.31 133.972L1173.97 130.491C1196.3 84.2632 1217.16 43.0403 1246.26 6.84648C1306.85 -68.4184 1401.3 -110.608 1492.82 -103.186L1492.03 -95.9567C1403.55 -103.089 1312.06 -62.1322 1253.28 10.9567C1224.64 46.5703 1203.97 87.4062 1181.84 133.247L1180.17 136.729C1158.89 180.998 1136.87 226.79 1103.91 263.467C1069.29 302.176 1020.68 328.022 970.525 334.356C961.559 335.468 952.509 336.024 943.374 336.024Z" fill="#551E26"/>
<path d="M943.515 332.664C898.518 332.664 850.842 318.593 804.181 291.369C801.531 289.821 798.853 288.25 796.203 286.678C791.184 283.68 786.222 280.658 781.288 277.636C742.155 253.772 705.193 231.263 661.915 236.195C649.285 237.646 636.033 241.659 621.373 248.526C610.067 253.821 598.592 260.325 587.484 266.635C576.037 273.115 564.167 279.836 552.213 285.421C512.657 303.868 460.865 306.625 434.391 271.229C411.78 241.031 417.56 200.026 423.847 171.81C425.003 166.685 426.243 161.511 427.484 156.313C433.912 129.717 440.538 102.227 434.307 74.9549C432.672 67.8225 430.078 60.7626 426.582 54.0413C414.769 31.266 393.172 12.9635 367.347 3.82441C333.147 -8.36111 295.255 -4.5894 269.711 -0.67263C94.3459 26.1887 -64.4698 148.745 -144.766 319.197L-152.604 316.489C-71.2081 143.716 90.0605 19.4673 268.245 -7.82919C294.832 -11.891 334.36 -15.8078 370.589 -2.89697C398.416 6.94332 421.648 26.6239 434.335 51.0916C438.085 58.3207 440.876 65.8883 442.624 73.5526C449.165 102.251 442.37 130.467 435.773 157.763C434.532 162.913 433.292 168.063 432.164 173.14C426.131 200.122 420.548 239.266 441.524 267.264C465.094 298.743 512.065 295.841 548.182 279.014C559.826 273.574 571.498 266.949 582.832 260.542C594.081 254.159 605.725 247.583 617.341 242.119C632.932 234.841 647.142 230.538 660.816 228.966C707.42 223.647 745.679 246.979 786.194 271.688C791.099 274.686 796.062 277.708 801.024 280.682C803.646 282.254 806.296 283.801 808.946 285.348C861.894 316.247 915.998 329.666 965.394 324.202C1012.93 318.931 1059.48 294.826 1093.11 258.052C1125.37 223.019 1147.5 178.725 1168.92 135.907L1171.15 131.434C1193.06 87.8899 1215.19 45.8209 1244.88 9.84463C1305.66 -63.752 1399.69 -105.603 1490.19 -99.3656L1489.52 -92.1365C1401.95 -98.1567 1310.85 -57.49 1251.79 14.0274C1222.55 49.4234 1200.64 91.1297 1178.91 134.287L1176.68 138.735C1155.03 182.013 1132.67 226.742 1099.74 262.501C1064.75 300.75 1016.17 325.846 966.465 331.358C958.909 332.229 951.268 332.664 943.515 332.664Z" fill="#5D1D26"/>
<path d="M942.895 329.376C898.208 329.376 850.87 315.232 801.898 287.162L801.559 286.968C799.022 285.517 796.484 284.043 793.919 282.592C790.197 280.416 786.504 278.264 782.839 276.088C742.493 252.37 704.432 229.957 660.055 235.712C647.565 237.332 634.426 241.466 619.907 248.308C608.939 253.506 597.803 259.793 587.004 265.885C575.36 272.462 563.322 279.255 551.142 284.889C512.037 302.974 460.583 305.778 433.799 271.277C410.737 241.587 415.332 200.582 420.774 172.318C421.789 167.023 422.917 161.704 424.044 156.337C429.655 129.838 435.463 102.421 428.837 75.4625C427.089 68.3301 424.383 61.3186 420.83 54.6214C408.735 31.9912 386.941 13.8338 361.031 4.81555C334.839 -4.37193 303.77 -5.75005 263.283 0.536125C90.7372 27.3007 -65.6538 148.044 -144.85 315.691L-152.688 312.959C-72.4204 143.039 86.3953 20.6035 261.817 -6.59628C303.967 -13.1242 336.503 -11.6252 364.245 -1.88164C392.129 7.81358 415.558 27.3249 428.555 51.6234C432.39 58.8283 435.294 66.3475 437.154 73.9877C444.118 102.348 438.141 130.467 432.39 157.642C431.262 162.961 430.134 168.256 429.119 173.503C423.903 200.557 419.449 239.701 440.848 267.263C466.307 300.048 514.011 293.81 547.138 278.506C558.98 273.018 570.849 266.32 582.352 259.817C593.263 253.651 604.569 247.293 615.819 241.949C631.212 234.696 645.281 230.296 658.758 228.555C706.405 222.366 745.848 245.552 787.575 270.116C791.24 272.268 794.934 274.444 798.627 276.596C801.165 278.047 803.674 279.521 806.211 280.948L806.55 281.141C861.02 312.355 913.15 325.87 961.475 321.252C1008.53 316.779 1054.99 293.399 1089 257.109C1121.19 222.97 1143.69 179.716 1165.46 137.865L1168.28 132.425C1190.58 89.8724 1213.08 48.6979 1243.47 12.8909C1304.51 -59.0617 1398.03 -100.55 1487.57 -95.4973L1487.01 -88.2682C1400.37 -93.2488 1309.64 -52.8238 1250.32 17.1461C1220.43 52.3971 1198.11 93.1847 1176.03 135.399L1173.21 140.839C1151.22 183.101 1128.49 226.79 1095.62 261.678C1060.27 299.444 1011.72 323.791 962.461 328.481C955.977 329.061 949.464 329.376 942.895 329.376Z" fill="#641C26"/>
<path d="M942.923 326.112C898.715 326.112 850.588 311.629 799.614 282.979L785.066 274.759C743.311 251.016 703.868 228.603 658.25 235.228C645.873 237.041 632.876 241.224 618.497 248.066C607.896 253.144 597.098 259.212 586.638 265.087C574.768 271.76 562.504 278.651 550.127 284.357C514.293 300.798 462.191 307.229 433.292 271.349C409.778 242.167 413.162 201.162 417.785 172.85C418.659 167.41 419.674 161.922 420.689 156.409C425.51 129.983 430.473 102.662 423.48 75.9945C421.62 68.8863 418.828 61.8989 415.163 55.2259C402.786 32.7166 380.767 14.7285 354.8 5.80692C328.411 -3.30804 297.341 -4.61363 256.94 1.74508C87.1003 28.413 -66.8943 147.367 -144.963 312.185L-152.801 309.453C-73.6608 142.362 82.7584 21.74 255.389 -5.36314C297.426 -11.9636 329.99 -10.5372 357.902 -0.890289C385.842 8.68404 409.496 28.0261 422.776 52.1554C426.695 59.312 429.711 66.807 431.713 74.4229C439.072 102.445 433.969 130.442 429.035 157.546C428.048 163.034 427.033 168.474 426.159 173.89C421.761 200.993 418.406 240.16 440.256 267.263C465.997 299.226 513.391 293.013 546.152 277.998C558.19 272.462 570.314 265.644 582.014 259.067C592.587 253.12 603.526 246.978 614.381 241.78C629.605 234.527 643.477 230.054 656.812 228.12C705.757 220.963 746.553 244.174 789.746 268.738L804.266 276.935C859.61 308.051 911.205 322.002 957.668 318.302C1004.24 314.627 1050.65 291.973 1084.96 256.166C1117.08 222.898 1139.94 180.684 1162.02 139.848L1165.48 133.416C1187.22 93.4991 1211.07 51.5509 1242.12 15.9132C1303.38 -54.3953 1396.45 -95.6181 1485.01 -91.6288L1484.55 -84.3755C1398.82 -88.2198 1308.48 -48.1333 1248.88 20.2651C1218.32 55.3468 1194.69 96.9081 1173.15 136.487L1169.69 142.918C1147.36 184.165 1124.29 226.814 1091.48 260.808C1055.73 298.09 1007.23 321.711 958.43 325.556C953.298 325.918 948.139 326.112 942.923 326.112Z" fill="#6B1C27"/>
<path d="M942.275 322.945C898.631 322.945 851.04 308.438 797.302 278.796L788.083 273.719C744.608 249.759 703.558 227.105 656.361 234.745C644.097 236.727 631.212 241.031 617.031 247.849C606.825 252.781 596.365 258.632 586.272 264.29C574.176 271.059 561.687 278.071 549.056 283.825C513.644 299.927 461.909 306.359 432.7 271.422C408.707 242.723 410.934 201.718 414.712 173.382C415.445 167.773 416.319 162.139 417.193 156.458C421.225 130.128 425.37 102.88 418.011 76.5023C416.037 69.4182 413.133 62.4551 409.384 55.8304C396.725 33.4661 374.508 15.5989 348.457 6.8224C321.898 -2.22002 290.772 -3.42889 250.483 2.95399C83.435 29.5252 -68.1349 146.666 -145.076 308.68L-152.914 305.948C-74.8732 141.661 79.0931 22.8522 248.961 -4.15423C290.885 -10.8272 323.477 -9.4733 351.558 0.0768509C379.555 9.5303 403.406 28.679 416.996 52.6631C420.999 59.7714 424.129 67.2181 426.243 74.8098C433.997 102.493 429.711 130.394 425.595 157.376C424.721 163.01 423.875 168.619 423.142 174.18C419.533 201.331 417.334 240.523 439.607 267.167C465.63 298.308 512.714 292.142 545.109 277.394C557.401 271.785 569.722 264.87 581.648 258.197C591.854 252.467 602.427 246.568 612.886 241.514C627.914 234.285 641.616 229.74 654.811 227.612C705.306 219.416 747.738 242.82 792.678 267.602L801.898 272.679C859.047 304.207 908.724 318.157 953.75 315.329C999.847 312.427 1046.17 290.522 1080.85 255.175C1112.9 222.777 1136.08 181.578 1158.46 141.733L1162.61 134.359C1184.71 95.3849 1208.93 54.3798 1240.68 18.9112C1302.17 -49.7774 1394.76 -90.6859 1482.38 -87.8087L1482.07 -80.5555C1397.27 -83.3117 1307.27 -43.5154 1247.42 23.3357C1216.15 58.2724 1192.16 98.8907 1170.25 137.527L1166.11 144.877C1143.47 185.132 1120.06 226.742 1087.33 259.865C1051.19 296.688 1002.72 319.536 954.398 322.558C950.366 322.824 946.335 322.945 942.275 322.945Z" fill="#721B27"/>
<path d="M941.232 319.85C898.039 319.85 852.477 305.682 795.018 274.614C792.396 273.187 789.746 271.785 787.124 270.382C738.152 244.126 699.977 226.162 654.529 234.285C642.405 236.461 629.662 240.837 615.593 247.655C605.782 252.443 595.716 258.076 585.99 263.492C573.669 270.382 560.925 277.491 548.041 283.317C513.024 299.105 461.683 305.488 432.192 271.495C408.002 243.618 408.538 204.716 411.724 173.914C412.316 168.16 413.021 162.357 413.754 156.53C416.996 130.273 420.351 103.122 412.598 77.0341C410.483 69.9501 407.495 63.0353 403.66 56.4348C390.719 34.2156 368.305 16.4934 342.17 7.83783C315.442 -1.10789 284.288 -2.26842 244.112 4.187C79.798 30.6373 -69.3472 145.964 -145.189 305.174L-153.026 302.442C-76.1137 140.96 75.4562 23.9643 242.533 -2.9212C284.344 -9.64257 316.993 -8.36117 345.243 1.09227C373.296 10.4007 397.373 29.4043 411.244 53.2192C415.333 60.2791 418.547 67.7016 420.802 75.2692C428.922 102.614 425.51 130.442 422.184 157.328C421.479 163.131 420.746 168.885 420.182 174.591C417.137 204.087 416.545 241.297 439.015 267.191C465.32 297.51 512.065 291.369 544.122 276.91C556.668 271.253 569.242 264.217 581.394 257.423C591.234 251.935 601.383 246.253 611.449 241.345C626.307 234.14 639.84 229.498 652.837 227.177C705.108 217.845 751.093 242.481 791.635 264.217C794.285 265.619 796.936 267.046 799.586 268.472C859.498 300.87 905.848 314.41 949.915 312.379C995.505 310.275 1041.74 289.072 1076.82 254.232C1108.79 222.704 1132.24 182.545 1154.94 143.692L1159.82 135.351C1181.25 98.9874 1206.85 57.2569 1239.32 21.9576C1301.97 -46.1266 1391.88 -85.7537 1479.82 -83.9404L1479.62 -76.6871C1394.36 -78.452 1306.99 -39.8404 1245.98 26.4546C1213.98 61.222 1188.63 102.59 1167.37 138.615L1162.5 146.956C1139.57 186.196 1115.84 226.79 1083.19 258.995C1046.65 295.334 998.239 317.432 950.366 319.656C947.321 319.777 944.276 319.85 941.232 319.85Z" fill="#791A27"/>
<path d="M940.949 316.755C887.55 316.755 836.181 293.448 792.735 270.431C790.113 269.029 787.491 267.675 784.84 266.321C740.266 243.11 699.582 224.638 652.668 233.826C640.657 236.171 628.055 240.644 614.127 247.462C604.71 252.104 595.068 257.472 585.736 262.67C573.133 269.681 560.136 276.935 546.969 282.834C510.684 299.057 461.345 304.618 431.628 271.615C406.959 244.222 406.395 205.32 408.679 174.494C409.102 168.595 409.665 162.647 410.229 156.651C412.71 130.467 415.248 103.412 407.128 77.6144C404.901 70.5546 401.799 63.6398 397.88 57.0876C384.46 34.6992 362.441 17.5814 335.826 8.90166C308.929 0.0284882 277.718 -1.0595 237.655 5.46845C76.161 31.7495 -70.5878 145.239 -145.273 301.668L-153.111 298.912C-77.3261 140.259 71.7909 25.0765 236.104 -1.68812C277.803 -8.48202 310.451 -7.27315 338.899 2.08359C367.431 11.4161 391.086 29.7428 405.465 53.7511C409.637 60.7626 412.964 68.1368 415.361 75.7044C423.875 102.735 421.253 130.442 418.716 157.231C418.152 163.179 417.588 169.102 417.165 174.953C414.994 204.523 415.445 241.708 438.367 267.191C464.897 296.639 509.866 291.272 543.107 276.403C555.907 270.648 568.763 263.492 581.197 256.577C590.613 251.33 600.368 245.915 609.982 241.176C624.643 233.971 638.035 229.256 650.863 226.766C700.851 216.998 743.142 236.099 789.295 260.131C791.945 261.509 794.595 262.887 797.246 264.29C841.059 287.5 892.992 311.025 946.053 309.453C990.993 308.124 1037.17 287.669 1072.76 253.289C1104.73 222.39 1128.66 183.005 1151.78 144.949L1157 136.366C1183.95 92.3869 1208.03 56.6283 1237.94 25.0281C1300.31 -40.8558 1388.81 -80.0477 1475.08 -80.0477C1475.79 -80.0477 1476.52 -80.0477 1477.22 -80.0477L1477.14 -72.7944C1392.64 -73.4231 1305.78 -35.1499 1244.51 29.5977C1215.05 60.7384 1191.2 96.1586 1164.5 139.751L1159.28 148.334C1135.91 186.8 1111.75 226.573 1079.07 258.149C1041.97 294.004 993.587 315.353 946.335 316.755C944.53 316.731 942.726 316.755 940.949 316.755Z" fill="#801927"/>
<path d="M940.076 313.757C886.536 313.757 834.828 289.265 790.451 266.248C787.857 264.894 785.207 263.564 782.585 262.235C742.465 241.95 699.272 223.019 650.835 233.318C638.966 235.833 626.476 240.402 612.689 247.22C603.723 251.693 594.504 256.795 585.595 261.751C572.71 268.908 559.403 276.282 545.926 282.278C510.064 298.163 461.063 303.723 431.093 271.664C405.944 244.754 404.28 205.877 405.662 175.002C405.916 168.957 406.339 162.72 406.733 156.699C408.453 130.612 410.201 103.63 401.715 78.098C399.375 71.0623 396.161 64.1717 392.157 57.6679C378.455 35.4245 356.238 18.4519 329.539 9.86883C302.811 1.18907 270.67 0.149429 231.255 6.65321C72.524 32.8375 -71.8001 144.538 -145.386 298.163L-153.224 295.406C-78.5384 139.557 68.1539 26.1645 229.648 -0.455017C270.642 -7.22474 304.305 -6.06422 332.527 3.0991C361.144 12.2866 384.996 30.4681 399.657 54.3073C403.914 61.2704 407.354 68.6204 409.863 76.1396C418.744 102.856 416.94 130.443 415.191 157.135C414.797 163.131 414.402 169.32 414.12 175.292C412.823 204.91 414.317 242.119 437.718 267.143C464.502 295.793 509.19 290.426 542.064 275.847C555.174 270.02 568.312 262.718 581.027 255.682C590.021 250.678 599.325 245.528 608.488 240.958C622.98 233.778 636.175 228.966 648.834 226.283C700.344 215.33 745.285 234.938 786.899 255.997C789.549 257.327 792.227 258.68 794.849 260.059C838.803 282.882 890.088 307.205 942.134 306.504C986.567 305.948 1032.66 286.195 1068.61 252.322C1100.5 222.269 1124.69 183.923 1148.09 146.835L1154.09 137.309C1177.72 100.221 1204.05 61.3188 1236.48 28.002C1299.57 -36.8181 1388.55 -75.7682 1474.55 -76.2276L1474.6 -68.9743C1391.09 -68.5391 1304.48 -30.5319 1242.99 32.6683C1211.02 65.5015 1184.94 104.041 1161.54 140.791L1155.53 150.292C1131.88 187.768 1107.43 226.5 1074.87 257.206C1037.34 292.553 989.02 313.177 942.246 313.757C941.542 313.757 940.809 313.757 940.076 313.757Z" fill="#871927"/>
<path d="M940.865 310.832C939.963 310.832 939.06 310.832 938.158 310.807C886.451 309.889 837.704 287.234 788.195 262.065C785.602 260.736 782.98 259.454 780.358 258.173C734.063 235.47 694 222.487 649.031 232.835C637.274 235.543 624.925 240.185 611.279 247.003C602.765 251.282 594.025 256.142 585.538 260.832C572.344 268.134 558.726 275.677 544.883 281.77C509.415 297.34 460.753 302.901 430.557 271.736C404.929 245.31 402.166 206.457 402.645 175.534C402.73 169.344 402.984 162.961 403.209 156.796C404.168 130.781 405.154 103.871 396.302 78.6057C393.82 71.57 390.522 64.7036 386.434 58.2481C372.478 36.1498 350.036 19.3222 323.251 10.86C296.355 2.277 264.157 1.28572 224.855 7.86203C68.8869 33.9255 -73.0125 143.813 -145.499 294.657L-153.308 291.901C-79.7508 138.808 64.5169 27.2525 223.22 0.753807C264.101 -6.06428 297.792 -4.97627 326.184 4.09033C354.885 13.1569 378.906 31.1692 393.849 54.8149C398.191 61.7297 401.743 69.0314 404.365 76.5506C413.613 102.953 412.598 130.467 411.639 157.062C411.413 163.203 411.188 169.538 411.075 175.655C410.624 205.32 413.161 242.53 437.042 267.118C464.051 294.971 508.456 289.628 541.02 275.339C554.469 269.415 567.917 261.969 580.943 254.764C589.485 250.025 598.31 245.141 606.994 240.789C621.316 233.632 634.342 228.749 646.832 225.871C694.62 214.871 736.432 228.313 784.558 251.911C787.209 253.216 789.887 254.522 792.537 255.852C841.059 280.489 888.706 302.684 938.356 303.578C981.661 304.376 1027.65 285.324 1064.58 251.379C1096.35 222.196 1120.8 184.866 1144.45 148.769C1146.74 145.263 1149.02 141.782 1151.33 138.3C1175.24 102.203 1201.94 64.22 1235.18 31.0483C1298.48 -32.1519 1387 -70.7877 1472.04 -72.3593L1472.21 -65.106C1389.57 -63.607 1303.35 -25.8899 1241.61 35.763C1208.85 68.4511 1182.43 106.071 1158.72 141.854C1156.43 145.312 1154.15 148.817 1151.87 152.299C1127.96 188.759 1103.26 226.476 1070.81 256.311C1032.92 291.054 985.721 310.807 940.865 310.832Z" fill="#8E1827"/>
<path d="M937.679 307.882C936.495 307.882 935.339 307.882 934.155 307.833C884.026 306.721 836.83 283.221 791.184 260.494L785.884 257.858C783.29 256.577 780.668 255.32 778.074 254.087C739.11 235.591 696.284 220.141 647.142 232.351C635.526 235.228 623.29 239.967 609.785 246.785C601.778 250.871 593.517 255.441 585.51 259.841C571.977 267.312 557.993 275.049 543.812 281.238C508.739 296.494 460.443 302.031 429.993 271.809C403.886 245.866 400.023 207.013 399.6 176.066C399.516 169.731 399.572 163.203 399.628 156.893C399.854 130.95 400.08 104.137 390.832 79.1134C388.238 72.0777 384.827 65.2597 380.654 58.8284C366.416 36.8752 343.777 20.1926 316.908 11.8513C289.814 3.34082 257.588 2.42207 218.399 9.04672C65.2782 34.9893 -74.2248 143.063 -145.611 291.151L-153.421 288.371C-80.9631 138.083 60.9081 28.3405 216.792 1.98687C257.532 -4.90375 291.252 -3.88829 319.84 5.0816C348.598 14.0273 372.844 31.8704 388.069 55.3468C392.495 62.1891 396.132 69.4666 398.924 76.9616C408.538 103.049 408.312 130.467 408.115 156.965C408.058 163.227 408.002 169.731 408.087 175.993C408.51 205.707 412.09 242.917 436.421 267.07C470.705 301.112 524.386 281.577 540.005 274.783C553.82 268.763 567.607 261.122 580.971 253.748C589.034 249.3 597.352 244.706 605.5 240.547C619.653 233.391 632.509 228.434 644.802 225.388C696.904 212.453 741.591 228.507 782.162 247.752C784.812 249.009 787.491 250.291 790.141 251.596L795.441 254.232C840.157 276.499 886.423 299.516 934.38 300.58C977.799 301.475 1023.75 283.245 1060.46 250.388C1092.1 222.051 1116.79 185.737 1140.67 150.631C1143.27 146.835 1145.83 143.039 1148.43 139.243C1171.46 105.781 1199.57 67.1213 1233.71 34.0464C1298.14 -28.4527 1384.04 -65.8313 1469.33 -68.515L1469.64 -61.2617C1387.85 -58.6989 1302.03 -21.272 1240.03 38.8577C1206.39 71.4975 1178.51 109.771 1155.7 142.942C1153.14 146.714 1150.54 150.51 1147.95 154.306C1123.81 189.798 1098.86 226.476 1066.52 255.441C1029.2 288.878 982.423 307.882 937.679 307.882Z" fill="#951728"/>
<path d="M936.326 305.029C934.268 305.029 932.21 304.981 930.151 304.908C883.913 303.046 840.411 281.625 798.345 260.905C793.44 258.487 788.534 256.069 783.628 253.7C781.034 252.443 778.44 251.234 775.818 250.049C724.703 226.573 685.655 221.133 645.309 231.892C633.806 234.962 621.739 239.774 608.347 246.616C600.848 250.46 593.123 254.739 585.651 258.85C571.752 266.514 557.373 274.444 542.768 280.779C497.856 300.145 455.48 296.833 429.458 271.954C402.984 246.64 397.993 209.576 396.584 176.67C396.302 170.19 396.161 163.542 396.048 157.086C395.54 131.216 394.976 104.476 385.419 79.7178C382.712 72.6822 379.16 65.8883 374.931 59.5054C360.411 37.6972 337.574 21.1597 310.621 12.9393C283.329 4.50132 251.075 3.67928 211.999 10.3523C61.6412 36.0773 -75.4371 142.338 -145.724 287.645L-153.534 284.865C-82.1754 137.357 57.243 29.4284 210.364 3.21992C250.991 -3.74323 284.711 -2.80032 313.496 6.09704C342.339 14.8977 366.783 32.5957 382.289 55.9029C386.8 62.6968 390.55 69.9259 393.454 77.421C403.435 103.218 403.999 130.539 404.534 156.941C404.675 163.348 404.788 169.973 405.07 176.38C406.423 208.004 411.132 243.497 435.773 267.094C459.117 289.41 497.687 292.094 538.99 274.299C553.2 268.158 567.382 260.324 581.112 252.757C588.64 248.598 596.421 244.319 604.034 240.402C617.99 233.246 630.677 228.217 642.828 224.977C685.542 213.589 726.508 219.174 779.822 243.666C782.5 244.875 785.151 246.132 787.801 247.414C792.707 249.807 797.64 252.225 802.546 254.643C843.737 274.928 886.338 295.914 930.518 297.679C973.372 299.42 1019.27 281.818 1056.38 249.469C1087.87 221.979 1112.79 186.68 1136.9 152.541C1139.8 148.431 1142.68 144.345 1145.58 140.259C1168.84 107.715 1197.34 70.0226 1232.3 37.1169C1296.92 -23.7623 1382.38 -60.8266 1466.71 -64.6224L1467.16 -57.3692C1385.03 -53.6942 1301.69 -17.4761 1238.56 42.0008C1204.08 74.4713 1175.86 111.826 1152.8 144.054C1149.89 148.116 1147.02 152.202 1144.11 156.312C1119.75 190.814 1094.58 226.476 1062.38 254.57C1025.39 286.823 979.772 305.029 936.326 305.029Z" fill="#9C1628"/>
<path d="M934.86 302.2C931.927 302.2 928.995 302.128 926.063 301.934C883.152 299.444 842.835 279.618 803.843 260.445C796.456 256.819 788.816 253.071 781.316 249.493C778.75 248.26 776.157 247.099 773.535 245.939C724.506 224.179 684.386 219.682 643.448 231.36C632.086 234.6 620.132 239.508 606.881 246.35C599.945 249.952 592.784 253.893 585.877 257.713C571.554 265.595 556.753 273.767 541.697 280.223C497.264 299.202 455.114 296.107 428.894 271.978C401.94 247.148 395.907 210.108 393.539 177.154C393.059 170.553 392.749 163.759 392.411 157.159C391.17 131.361 389.873 104.669 379.921 80.1773C377.073 73.1658 373.436 66.396 369.123 60.0615C354.349 38.4226 331.315 22.0302 304.249 13.9065C276.732 5.56521 244.45 4.79152 205.514 11.5371C58.0041 37.1412 -76.6495 141.588 -145.837 284.14L-153.647 281.359C-83.3878 136.608 53.6341 30.4923 203.935 4.42887C244.422 -2.58263 278.17 -1.73643 307.153 7.06422C336.08 15.744 360.721 33.2728 376.51 56.4107C381.105 63.1563 384.968 70.3612 387.984 77.8079C398.332 103.315 399.657 130.539 400.925 156.869C401.235 163.421 401.574 170.19 402.025 176.718C404.28 208.391 409.976 243.908 435.124 267.046C458.638 288.685 497.094 291.199 537.975 273.743C552.636 267.457 567.241 259.406 581.366 251.621C588.33 247.776 595.519 243.811 602.567 240.16C616.382 233.028 628.872 227.902 640.826 224.493C684.104 212.163 726.254 216.781 777.454 239.508C780.132 240.692 782.81 241.901 785.461 243.158C793.017 246.761 800.685 250.508 808.1 254.159C846.246 272.921 885.718 292.312 926.683 294.705C969.059 297.147 1014.85 280.319 1052.34 248.478C1083.69 221.834 1108.84 187.526 1133.15 154.354C1136.36 149.954 1139.57 145.578 1142.82 141.202C1164.92 111.439 1194.92 73.0449 1230.98 40.0908C1295.8 -19.1685 1380.77 -55.9426 1464.17 -60.8023L1464.73 -53.5732C1383.45 -48.8344 1300.5 -12.8823 1237.13 45.0472C1201.77 77.3727 1173.21 113.76 1149.95 145.07C1146.74 149.422 1143.52 153.822 1140.31 158.198C1115.75 191.733 1090.35 226.379 1058.29 253.603C1021.61 284.792 977.122 302.2 934.86 302.2Z" fill="#A31628"/>
<path d="M933.365 299.42C929.559 299.42 925.809 299.275 922.06 298.985C881.996 295.914 844.442 277.346 808.157 259.382C798.655 254.667 788.816 249.807 779.089 245.31C776.523 244.126 773.929 242.989 771.336 241.877C724.337 221.737 683.145 218.256 641.672 230.876C630.479 234.285 618.638 239.266 605.5 246.132C599.184 249.445 592.643 253.047 586.328 256.529C571.554 264.677 556.273 273.066 540.71 279.691C496.784 298.283 454.804 295.406 428.414 272.051C400.954 247.704 393.877 210.688 390.578 177.686C389.902 170.964 389.366 164.025 388.859 157.304C386.885 131.579 384.855 104.959 374.564 80.7092C371.576 73.6977 367.854 66.9521 363.456 60.6659C348.4 39.172 325.169 22.9247 298.018 14.8977C270.304 6.62899 237.993 5.92785 199.171 12.7459C54.3954 38.2049 -77.8618 140.839 -145.95 280.634L-153.759 277.829C-84.6001 135.858 49.9971 31.5803 197.507 5.66189C237.852 -1.42215 271.629 -0.624287 300.809 8.07965C329.821 16.6385 354.659 33.998 370.73 56.9668C375.382 63.6398 379.357 70.8205 382.515 78.2672C393.229 103.484 395.287 130.636 397.317 156.869C397.824 163.542 398.36 170.432 399.008 177.105C402.166 208.826 408.848 244.343 434.476 267.046C468.619 297.292 517.507 281.456 536.932 273.235C552.072 266.804 567.156 258.511 581.732 250.484C588.076 246.979 594.645 243.376 601.073 239.991C614.719 232.859 627.068 227.661 638.825 224.082C682.61 210.76 725.915 214.363 775.085 235.422C777.764 236.558 780.442 237.743 783.093 238.976C792.904 243.521 802.8 248.405 812.358 253.144C847.854 270.697 884.59 288.878 922.793 291.804C964.661 295.019 1010.36 278.893 1048.23 247.559C1079.44 221.737 1104.76 188.42 1129.26 156.216C1132.81 151.525 1136.36 146.859 1139.94 142.217C1162.27 113.301 1192.61 75.922 1229.54 43.1614C1294.53 -14.478 1379.05 -50.962 1461.52 -56.9097L1462.22 -49.6806C1381.79 -43.878 1299.21 -8.19186 1235.63 48.1903C1199.18 80.5399 1169.12 117.556 1147.02 146.206C1143.47 150.848 1139.91 155.515 1136.36 160.181C1111.61 192.724 1086.03 226.403 1054.12 252.781C1017.83 282.761 974.416 299.42 933.365 299.42Z" fill="#AA1528"/>
<path d="M931.787 296.688C927.163 296.688 922.567 296.47 918 296.035C880.417 292.457 845.316 274.879 811.371 257.883C800.065 252.225 788.393 246.374 776.805 241.127C774.24 239.967 771.674 238.879 769.08 237.791C723.434 218.957 682.384 216.587 639.84 230.368C628.788 233.947 617.087 239.024 604.062 245.915C598.395 248.937 592.672 252.08 586.892 255.247C571.611 263.661 555.794 272.389 539.667 279.159C495.544 297.631 454.832 295.068 427.907 272.099C399.911 248.236 391.819 211.244 387.618 178.193C386.744 171.351 386.011 164.267 385.278 157.449C382.6 131.772 379.808 105.225 369.179 81.2168C366.078 74.2053 362.244 67.484 357.761 61.2462C342.451 39.8973 319.022 23.795 291.759 15.889C263.847 7.69276 231.481 7.06414 192.799 13.9548C50.7866 39.2445 -79.0459 140.089 -146.063 277.128L-153.872 274.323C-85.8124 135.109 46.3602 32.6199 191.051 6.8949C231.227 -0.261673 265.06 0.463661 294.437 9.07088C323.533 17.5089 348.57 34.7233 364.922 57.4986C369.659 64.1233 373.747 71.2557 377.045 78.6782C388.097 103.629 390.945 130.66 393.68 156.844C394.385 163.638 395.118 170.674 395.992 177.468C400.051 209.261 407.72 244.754 433.856 267.022C468.252 296.349 516.717 280.755 535.946 272.703C551.65 266.103 567.241 257.52 582.324 249.203C588.132 246.011 593.884 242.82 599.607 239.798C613.112 232.665 625.264 227.395 636.823 223.647C681.679 209.116 724.872 211.558 772.717 231.311C775.395 232.424 778.074 233.56 780.724 234.745C792.481 240.064 804.238 245.939 815.628 251.645C848.812 268.255 883.124 285.445 918.93 288.854C960.262 292.819 1005.91 277.394 1044.17 246.592C1075.21 221.616 1100.72 189.267 1125.37 158.005C1129.28 153.049 1133.17 148.092 1137.12 143.16C1170.53 101.478 1198.61 71.57 1228.16 46.1593C1293.29 -9.88437 1377.39 -46.054 1458.9 -53.0656L1459.74 -45.8606C1380.15 -38.9942 1297.91 -3.59819 1234.14 51.2608C1204.96 76.3571 1177.19 105.951 1144.09 147.246C1140.17 152.154 1136.28 157.086 1132.39 162.043C1107.46 193.643 1081.69 226.307 1049.98 251.862C1014.06 280.755 971.709 296.688 931.787 296.688Z" fill="#B11428"/>
<path d="M930.151 294.004C924.682 294.004 919.268 293.714 913.94 293.085C878.557 289.048 845.598 272.268 813.739 256.021C800.939 249.493 787.716 242.772 774.521 236.945C771.984 235.833 769.39 234.769 766.824 233.729C722.504 216.104 681.566 214.895 637.979 229.885C627.096 233.632 615.537 238.806 602.596 245.697C597.662 248.357 592.671 251.113 587.653 253.869C571.78 262.621 555.399 271.664 538.624 278.651C494.98 296.76 454.437 294.391 427.371 272.196C398.867 248.816 389.761 211.824 384.601 178.749C383.53 171.786 382.571 164.581 381.641 157.642C378.258 132.038 374.733 105.54 363.738 81.7729C360.495 74.7614 356.548 68.0884 352.009 61.8989C336.221 40.405 313.186 24.8589 285.444 16.9528C257.701 8.94999 224.376 8.36972 186.399 15.212C47.1777 40.3083 -80.2583 139.316 -146.147 273.622L-153.957 270.818C-86.9966 134.359 42.7513 33.6837 184.622 8.12795C224.094 1.01973 258.913 1.67252 288.094 10.0863C317.697 18.5243 342.282 35.1102 359.142 58.0547C363.963 64.631 368.136 71.715 371.576 79.1376C382.994 103.823 386.547 130.781 390.014 156.869C390.917 163.783 391.875 170.94 392.947 177.831C397.909 209.672 406.564 245.165 433.179 266.998C467.801 295.382 515.843 280.078 534.902 272.172C551.227 265.378 567.41 256.456 583.057 247.825C588.104 245.044 593.122 242.264 598.113 239.604C611.477 232.472 623.459 227.104 634.821 223.212C680.072 207.642 724.421 208.947 770.349 227.201C773.196 228.313 775.818 229.426 778.384 230.538C791.804 236.461 805.168 243.255 818.081 249.831C850.645 266.417 881.404 282.084 915.096 285.929C955.892 290.595 1001.48 275.919 1040.14 245.649C1071.01 221.471 1096.66 190.137 1121.47 159.818C1125.76 154.572 1130.05 149.349 1134.33 144.175C1167.54 104.306 1196.92 74.157 1226.81 49.2299C1293.06 -6.01595 1374.57 -40.9526 1456.33 -49.173L1457.32 -41.968C1377.39 -33.9411 1297.63 0.294411 1232.73 54.4281C1203.21 79.0409 1174.14 108.9 1141.24 148.382C1136.95 153.556 1132.7 158.754 1128.41 163.977C1103.35 194.61 1077.41 226.307 1045.86 251.016C1010.28 278.772 968.974 294.004 930.151 294.004Z" fill="#B81328"/>
<path d="M928.46 291.344C922.173 291.344 915.998 290.933 909.88 290.135C876.414 285.663 845.401 269.512 815.374 253.917C801.334 246.616 786.786 239.048 772.21 232.786C769.757 231.747 767.248 230.731 764.541 229.691C721.489 213.251 680.693 213.178 636.118 229.426C625.376 233.342 613.958 238.589 601.158 245.528C597.013 247.776 592.812 250.097 588.612 252.418C572.118 261.533 555.061 270.963 537.553 278.168C494.388 295.89 454.014 293.762 426.807 272.292C397.768 249.396 387.646 212.429 381.556 179.305C380.259 172.221 379.075 164.92 377.948 157.836C373.859 132.28 369.63 105.854 358.268 82.3048C354.885 75.2933 350.853 68.6445 346.229 62.5034C330.159 41.1787 306.956 25.7776 279.1 17.9682C251.132 10.0622 217.75 9.55445 179.942 16.4451C43.5408 41.348 -81.4423 138.542 -146.26 270.116L-154.041 267.288C-88.1806 133.561 39.1426 34.7233 178.194 9.33684C217.497 2.15609 252.344 2.73635 281.75 11.0535C311.467 19.3705 336.221 35.8113 353.363 58.5624C358.24 65.0662 362.526 72.1261 366.106 79.5244C377.863 103.944 382.177 130.829 386.349 156.844C387.477 163.88 388.633 171.158 389.93 178.169C395.794 210.083 405.436 245.576 432.531 266.949C457.059 286.291 493.993 287.984 533.887 271.615C550.916 264.604 567.748 255.296 584.016 246.302C588.245 243.956 592.446 241.635 596.647 239.363C609.842 232.23 621.683 226.79 632.819 222.728C679.057 205.852 723.293 205.973 767.981 223.043C770.828 224.131 773.45 225.17 776.016 226.282C790.902 232.665 805.591 240.305 819.801 247.704C850.447 263.661 879.402 278.724 911.205 282.955C951.466 288.346 996.971 274.372 1036.05 244.633C1066.75 221.278 1092.55 190.886 1117.47 161.486C1122.12 155.998 1126.8 150.51 1131.48 145.07C1164.92 106.434 1194.75 76.9132 1225.4 52.1554C1291.77 -1.47055 1372.85 -36.117 1453.68 -45.4012L1454.81 -38.2205C1375.73 -29.1539 1296.3 4.81563 1231.2 57.4261C1200.92 81.8938 1171.41 111.1 1138.28 149.374C1133.63 154.789 1128.97 160.253 1124.32 165.742C1099.12 195.456 1073.04 226.162 1041.66 250.049C1006.53 276.789 966.211 291.344 928.46 291.344Z" fill="#BF1329"/>
<path d="M480.742 289.628C459.963 289.628 441.412 283.874 426.272 272.389C396.781 250.049 385.926 214.701 378.568 179.837C377.045 172.657 375.664 165.234 374.311 158.053C369.518 132.546 364.555 106.168 352.883 82.8368C349.359 75.8253 345.214 69.2006 340.534 63.1079C324.21 41.9283 300.809 26.6722 272.841 18.9837C244.647 11.1502 211.238 10.715 173.571 17.6781C39.9601 42.3635 -82.6265 137.768 -146.373 266.611L-154.154 263.782C-89.3649 132.788 35.5337 35.763 171.766 10.5699C210.927 3.31666 245.775 3.82438 275.407 12.0689C305.207 20.2651 330.159 36.5367 347.555 59.1186C352.517 65.574 356.915 72.5855 360.608 79.9838C372.703 104.137 377.75 130.95 382.628 156.917C383.981 164.074 385.362 171.448 386.857 178.58C393.933 212.163 404.309 246.108 431.854 266.973C465.63 292.553 509.613 280.561 532.844 271.132C550.663 263.879 568.256 254.111 585.257 244.682C588.583 242.844 591.854 241.007 595.124 239.218C608.206 232.085 619.85 226.548 630.79 222.342C677.986 204.136 722.081 203.048 765.584 218.981C768.375 219.996 771.082 221.06 773.648 222.124C789.831 228.869 805.648 237.307 820.929 245.455C849.855 260.881 877.203 275.46 907.314 280.078C947.18 286.195 992.601 272.945 1031.93 243.739C1062.38 221.302 1088.21 191.95 1113.19 163.566C1118.32 157.715 1123.48 151.888 1128.64 146.11C1162.27 108.707 1192.58 79.8388 1223.99 55.2501C1290.5 3.21994 1371.13 -31.1123 1451.03 -41.4603L1452.3 -34.2795C1374.03 -24.1491 1294.95 9.55447 1229.68 60.6176C1198.64 84.8919 1168.64 113.47 1135.32 150.534C1130.16 156.288 1125.06 162.115 1119.92 167.942C1094.69 196.641 1068.58 226.307 1037.46 249.227C996.181 279.86 948.224 293.69 905.82 287.21C874.102 282.35 844.781 266.732 816.446 251.621C801.334 243.569 785.714 235.228 769.926 228.652C767.501 227.636 764.936 226.645 762.257 225.678C720.474 210.374 679.79 211.413 634.229 228.99C623.685 233.052 612.379 238.42 599.664 245.359C596.421 247.148 593.123 248.961 589.824 250.799C572.597 260.349 554.779 270.237 536.453 277.708C516.83 285.639 497.997 289.628 480.742 289.628Z" fill="#C61229"/>
<path d="M479.7 288.951C459.203 288.951 440.849 283.438 425.737 272.438C395.739 250.581 383.869 215.258 375.552 180.345C373.804 173.068 372.197 165.524 370.618 158.247C365.148 132.788 359.453 106.458 347.414 83.3445C343.777 76.333 339.492 69.7325 334.755 63.6881C318.178 42.6778 294.579 27.5668 266.498 19.975C238.051 12.214 204.613 11.8513 167.115 18.887C36.3522 43.4031 -83.838 136.97 -146.485 263.105L-154.266 260.252C-122.774 196.883 -76.5639 140.404 -20.6274 96.9565C35.2245 53.5577 99.5345 24.1094 165.339 11.7788C204.303 4.47716 239.207 4.91235 269.092 13.036C299.006 21.1113 324.155 37.2378 341.804 59.6021C346.822 65.985 351.333 72.9723 355.168 80.3465C367.629 104.258 373.381 131.023 378.963 156.893C380.514 164.146 382.149 171.641 383.869 178.846C391.904 212.501 403.182 246.447 431.235 266.853C465.208 291.562 508.852 279.739 531.858 270.503C550.607 262.96 568.99 252.684 586.808 242.772L593.687 238.927C606.656 231.771 618.16 226.162 628.817 221.81C676.944 202.226 720.898 199.905 763.245 214.75C766.036 215.717 768.743 216.732 771.308 217.772C788.619 224.808 805.366 233.995 821.578 242.868C848.982 257.883 874.836 272.075 903.481 277.007C942.811 283.825 988.147 271.301 1027.9 242.651C1058.18 220.988 1084.12 192.555 1109.18 165.065C1114.71 158.996 1120.26 152.928 1125.82 146.956C1159.17 111.27 1190.83 82.2082 1222.61 58.1514C1289.23 7.71696 1369.41 -26.3251 1448.44 -37.7128L1449.85 -30.5562C1372.37 -19.3861 1293.65 14.0515 1228.22 63.5914C1196.81 87.3822 1165.46 116.129 1132.44 151.477C1126.89 157.449 1121.39 163.493 1115.86 169.538C1090.52 197.318 1064.3 226.065 1033.34 248.212C991.615 278.264 943.685 291.369 901.817 284.115C871.65 278.893 843.879 263.685 817.039 248.961C801.053 240.209 784.531 231.142 767.699 224.3C765.275 223.309 762.709 222.366 760.059 221.423C719.488 207.182 678.945 209.382 632.454 228.313C622.107 232.52 610.942 237.96 598.283 244.972L591.404 248.792C573.36 258.85 554.724 269.246 535.439 277.031C515.788 285.034 496.983 288.951 479.7 288.951Z" fill="#CE1129"/>
<path d="M478.6 288.298C458.413 288.298 440.256 283.027 425.201 272.51C394.667 251.161 381.839 215.838 372.535 180.877C370.561 173.503 368.729 165.863 366.924 158.488C360.75 133.054 354.378 106.773 341.973 83.8522C338.195 76.8407 333.825 70.2644 329.004 64.2925C312.172 43.4515 288.376 28.4613 260.183 20.9663C231.51 13.302 198.044 12.9877 160.687 20.0959C32.7151 44.3944 -85.0505 136.173 -146.626 259.599L-154.407 256.746C-123.45 194.682 -78.1148 139.364 -23.3342 96.7631C31.39 54.2105 94.4031 25.2457 158.854 13.0119C197.649 5.63769 232.581 6.00036 262.692 14.0515C292.718 22.0301 318.036 37.9631 335.968 60.1582C341.071 66.4685 345.666 73.4317 349.642 80.8058C362.442 104.476 368.926 131.192 375.185 157.014C376.961 164.364 378.822 171.955 380.739 179.257C389.705 212.961 401.941 246.906 430.501 266.877C462.924 289.531 502.903 281.093 530.759 270.02C550.607 262.114 569.976 251.21 588.725 240.668L592.108 238.758C605.19 231.432 616.186 225.92 626.73 221.423C676.408 200.098 719.009 196.689 760.792 210.688C763.583 211.607 766.29 212.598 768.855 213.613C787.153 220.818 804.718 230.731 821.691 240.33C847.685 255.005 872.242 268.883 899.505 274.154C938.3 281.649 983.551 269.851 1023.73 241.756C1053.84 220.843 1079.89 193.328 1105.07 166.709C1111.02 160.447 1116.94 154.161 1122.91 147.995C1156.44 113.47 1188.55 85.1095 1221.14 61.2462C1288.81 11.7063 1366.48 -21.1511 1445.73 -33.7718L1447.28 -26.6394C1370.6 -14.4297 1292.25 18.7661 1226.64 66.7829C1194.41 90.3802 1162.61 118.45 1129.43 152.662C1123.48 158.803 1117.56 165.065 1111.64 171.303C1086.18 198.212 1059.84 226.041 1029.06 247.414C986.258 277.346 939.597 289.362 897.645 281.238C868.887 275.677 842.526 260.784 817.039 246.398C800.32 236.969 783.037 227.201 765.303 220.214C762.878 219.247 760.313 218.328 757.691 217.458C718.276 204.257 677.874 207.593 630.48 227.927C620.246 232.327 609.504 237.694 596.704 244.851L593.321 246.761C574.318 257.447 554.667 268.472 534.283 276.62C514.773 284.405 495.939 288.298 478.6 288.298Z" fill="#D51029"/>
<path d="M477.162 287.839C459.484 287.839 441.328 283.753 424.693 272.583C393.624 251.741 379.837 216.442 369.574 181.409C367.404 174.01 365.345 166.346 363.315 158.948C356.436 133.489 349.303 107.184 336.588 84.4082C332.584 77.3242 328.13 70.7721 323.308 64.9211C306.223 44.2251 282.23 29.4042 253.923 22.0059C224.997 14.4141 191.474 14.1965 154.315 21.3289C29.1625 45.4098 -86.1784 135.375 -146.71 256.118L-154.492 253.24C-124.043 192.482 -79.6092 138.324 -25.9564 96.5696C27.64 54.8632 89.3281 26.382 152.454 14.2449C191.051 6.82233 226.012 7.08829 256.376 15.0427C286.487 22.9004 312.031 38.6884 330.216 60.69C335.291 66.8553 339.999 73.7701 344.2 81.2168C357.338 104.742 364.556 131.458 371.548 157.28C373.55 164.654 375.608 172.294 377.751 179.62C387.647 213.396 400.813 247.365 429.881 266.852C462.445 288.709 502.198 280.344 529.772 269.488C550.889 261.147 572.034 249.154 590.67 238.565C603.724 231.19 614.55 225.605 624.757 220.987C675.28 198.164 717.768 193.57 758.452 206.578C761.186 207.448 763.893 208.391 766.543 209.406C785.743 216.756 803.956 227.37 821.577 237.622C846.304 252.032 869.676 265.644 895.699 271.229C934.494 279.521 978.532 268.714 1019.72 240.813C1049.64 220.649 1075.77 194.029 1101.06 168.28C1107.41 161.801 1113.75 155.345 1120.15 148.987C1153.79 115.646 1186.41 87.9382 1219.82 64.2925C1287.56 16.3725 1364.79 -16.1947 1443.17 -29.9034L1444.86 -22.7952C1367.83 -9.35248 1291.88 22.707 1225.2 69.8775C1192.13 93.2573 1159.87 120.699 1126.55 153.725C1120.18 160.06 1113.86 166.491 1107.52 172.947C1081.95 198.986 1055.53 225.896 1024.94 246.519C981.662 275.846 935.029 287.137 893.641 278.264C866.124 272.389 841.059 257.762 816.813 243.618C799.502 233.536 781.599 223.091 763.075 216.007C760.594 215.064 758.057 214.169 755.491 213.347C717.232 201.138 676.943 205.586 628.704 227.37C618.723 231.867 608.122 237.356 595.322 244.585C576.432 255.32 555.005 267.481 533.296 276.04C517.366 282.374 497.603 287.839 477.162 287.839Z" fill="#DC1029"/>
<path d="M476.175 287.21C456.75 287.21 439.213 282.35 424.158 272.679C392.524 252.346 377.779 217.047 366.558 181.941C364.161 174.446 361.849 166.709 359.622 159.214C352.066 133.803 344.228 107.522 331.146 84.916C327.002 77.832 322.434 71.304 317.557 65.5014C300.218 44.9746 276.027 30.2746 247.58 22.9972C218.399 15.4779 184.849 15.3329 147.887 22.5378C23.6929 46.7879 -86.4885 132.788 -146.823 252.612L-154.577 249.735C-124.635 190.306 -81.0753 137.261 -28.6066 96.3762C23.862 55.516 84.2531 27.5426 146.026 15.4779C184.426 7.98288 219.442 8.1763 250.033 16.0582C280.285 23.795 305.997 39.4379 324.436 61.2461C329.596 67.3631 334.417 74.2295 338.759 81.6762C352.235 104.959 360.186 131.627 367.855 157.4C370.082 164.871 372.366 172.584 374.762 180.007C385.589 213.855 399.685 247.825 429.289 266.852C461.994 287.887 501.465 279.618 528.841 268.956C549.507 260.905 570.032 249.42 589.289 238.371C602.314 230.925 612.972 225.243 622.868 220.552C674.209 196.181 716.556 190.427 756.168 202.443C758.903 203.265 761.637 204.184 764.26 205.151C784.249 212.55 803.026 223.865 821.155 234.793C843.682 248.381 866.998 262.404 891.921 268.255C930.152 277.249 974.134 267.143 1015.72 239.798C1045.44 220.359 1071.68 194.61 1097.03 169.707C1103.68 163.179 1110.56 156.433 1117.39 149.881C1151.16 117.677 1184.23 90.6461 1218.49 67.2422C1286.27 20.9179 1363.07 -11.3592 1440.6 -26.1075L1442.43 -19.0235C1366.17 -4.51694 1290.55 27.2766 1223.76 72.8997C1189.87 96.0619 1157.14 122.827 1123.67 154.717C1116.88 161.221 1110.03 167.942 1103.4 174.446C1077.75 199.639 1051.24 225.678 1020.85 245.528C977.123 274.251 930.518 284.816 889.666 275.218C863.304 269.028 839.396 254.619 816.277 240.692C798.487 229.957 780.076 218.884 760.876 211.776C758.423 210.857 755.858 210.011 753.32 209.237C715.625 197.801 676.661 203.217 626.928 226.839C617.257 231.432 606.769 236.993 593.941 244.343C574.402 255.562 553.539 267.215 532.281 275.508C512.348 283.317 493.514 287.21 476.175 287.21Z" fill="#E30F29"/>
<path d="M474.99 286.557C455.902 286.557 438.591 281.939 423.62 272.728C391.451 252.902 375.747 217.627 363.539 182.448C360.917 174.881 358.38 167.047 355.927 159.48C347.695 134.093 339.152 107.836 325.732 85.4479C321.446 78.3639 316.766 71.8601 311.832 66.13C294.014 45.4823 270.274 31.3143 241.291 24.0368C212.252 16.711 177.742 16.6143 141.485 23.795C20.139 47.8034 -87.6741 132.038 -146.937 249.13L-154.691 246.253C-125.285 188.13 -82.5992 136.245 -31.2583 96.207C20.0826 56.1689 79.1486 28.7031 139.596 16.7352C177.263 9.28848 213.267 9.40937 243.688 17.0737C274.052 24.6896 299.962 40.1633 318.627 61.8022C323.843 67.8466 328.776 74.6889 333.259 82.1114C347.102 105.177 355.73 131.796 364.103 157.546C366.556 165.089 369.094 172.898 371.687 180.393C383.444 214.339 398.5 248.308 428.583 266.852C454.944 283.1 488.325 283.632 527.768 268.448C548.434 260.494 568.819 249.203 587.765 238.202C596.73 233.004 608.6 226.258 620.836 220.165C656.389 202.443 703.613 183.947 753.77 198.381C756.448 199.155 759.183 200.026 761.89 200.993C782.528 208.439 801.699 220.383 820.223 231.916C841.791 245.359 864.092 259.261 888.057 265.402C925.752 275.049 969.65 265.644 1011.66 238.927C1041.18 220.214 1067.48 195.335 1092.94 171.254C1100.02 164.557 1107.32 157.642 1114.59 150.969C1148 120.336 1182.51 93.2089 1217.14 70.3611C1284.94 25.6567 1361.32 -6.33025 1438.01 -22.1424L1439.98 -15.0825C1364.45 0.48785 1289.17 32.0154 1222.29 76.1154C1188.01 98.7214 1153.87 125.559 1120.77 155.926C1113.55 162.574 1106.25 169.465 1099.2 176.138C1073.49 200.485 1046.9 225.654 1016.71 244.778C972.497 272.897 925.949 282.713 885.632 272.389C860.286 265.91 837.393 251.621 815.232 237.815C797.104 226.5 778.327 214.822 758.591 207.714C756.082 206.819 753.544 205.997 751.063 205.296C714.44 194.755 675.588 201.283 625.065 226.476C613.055 232.472 601.354 239.121 592.501 244.271C573.245 255.465 552.494 266.949 531.236 275.121C511.303 282.737 492.413 286.557 474.99 286.557Z" fill="#EA0E2A"/>
<path d="M473.666 286.098C455.03 286.098 438.142 281.673 423.114 272.8C392.411 254.667 375.89 223.792 360.581 182.98C357.846 175.582 355.167 167.966 352.574 160.568C343.58 134.915 334.276 108.392 320.32 85.9557C315.893 78.8716 311.129 72.392 306.082 66.7103C288.01 46.2318 264.101 32.2088 234.977 25.0281C205.543 17.7506 171.005 17.7506 135.058 25.0039C16.7007 48.5771 -88.7723 131.047 -147.049 245.6L-154.802 242.699C-95.4542 126.042 12.1897 42.0249 133.141 17.9199C170.47 10.3765 206.501 10.4248 237.317 18.0408C268.218 25.6567 293.62 40.5501 312.82 62.31C318.092 68.306 323.139 75.0999 327.763 82.5224C342.114 105.612 351.53 132.473 360.665 158.464C363.259 165.814 365.909 173.43 368.644 180.756C383.446 220.141 399.178 249.856 427.936 266.828C454.381 282.423 487.622 282.785 526.755 267.916C548.464 259.648 569.976 247.583 586.272 238.009C596.506 232.013 607.502 225.654 618.808 219.73C654.839 200.872 702.459 180.949 751.347 194.247C754.025 194.972 756.76 195.819 759.467 196.762C780.753 204.16 800.291 216.781 819.181 228.99C839.819 242.312 861.133 256.093 884.14 262.476C921.271 272.8 965.084 264.072 1007.54 237.96C1036.87 219.972 1063.23 195.915 1088.74 172.657C1096.24 165.814 1103.99 158.73 1111.72 151.912C1145.55 122.077 1180.51 95.6509 1215.7 73.3591C1283.11 30.3472 1359.06 -1.34966 1435.33 -18.2982L1437.44 -11.2866C1362.25 5.42007 1287.31 36.6817 1220.75 79.1618C1185.93 101.236 1151.28 127.396 1117.78 156.941C1110.11 163.711 1102.36 170.771 1094.89 177.589C1069.12 201.089 1042.45 225.412 1012.48 243.811C967.79 271.301 921.271 280.392 881.518 269.343C857.158 262.573 835.251 248.429 814.078 234.745C795.639 222.825 776.552 210.494 756.281 203.459C753.771 202.588 751.234 201.815 748.781 201.138C703.417 188.807 659.83 206.723 623.206 225.896C612.069 231.722 601.158 238.033 591.037 243.98C574.431 253.748 552.496 266.03 530.166 274.541C509.923 282.254 491.033 286.098 473.666 286.098Z" fill="#F10D2A"/>
<path d="M472.425 285.469C454.127 285.469 437.464 281.262 422.578 272.873C391.255 255.199 373.944 224.348 357.563 183.488C354.546 175.921 351.586 168.087 348.738 160.519C339.096 135.012 329.144 108.61 314.878 86.4634C310.31 79.4036 305.433 72.9482 300.33 67.2906C282.032 46.9814 257.926 33.1035 228.661 26.0194C199.001 18.8387 164.436 18.887 128.629 26.2128C13.063 49.6409 -90.0418 130.346 -147.191 242.095L-154.944 239.169C-96.7237 125.341 8.552 43.0888 126.656 19.153C163.843 11.5612 199.903 11.5129 230.917 19.0563C261.958 26.5755 287.53 41.2997 306.983 62.8661C312.34 68.8138 317.472 75.5835 322.236 82.9577C336.869 105.733 346.962 132.449 356.745 158.295C359.593 165.839 362.553 173.624 365.542 181.143C381.359 220.601 397.908 250.267 427.202 266.828C453.732 281.794 486.86 281.988 525.683 267.409C548.407 258.85 570.285 246.422 584.749 237.839C595.096 231.674 605.81 225.315 616.777 219.319C655.431 198.067 701.387 177.976 748.95 190.161C751.628 190.862 754.391 191.66 757.098 192.555C778.948 199.881 798.74 213.154 817.883 225.992C837.647 239.242 858.088 252.95 880.248 259.575C916.787 270.576 960.544 262.549 1003.48 237.017C1032.61 219.706 1059.03 196.496 1084.6 174.035C1092.55 167.072 1100.75 159.842 1108.9 152.903C1142.68 124.277 1178.14 98.5281 1214.32 76.4055C1282.8 34.3607 1356.27 3.82439 1432.68 -14.4055L1434.93 -7.41819C1359.49 10.5699 1286.89 40.7436 1219.22 82.3049C1183.39 104.21 1148.29 129.717 1114.82 158.053C1106.7 164.944 1098.52 172.125 1090.6 179.088C1064.78 201.791 1038.05 225.267 1008.28 242.965C963.053 269.851 916.59 278.192 877.429 266.417C853.943 259.406 832.939 245.31 812.639 231.698C793.975 219.174 774.662 206.239 753.996 199.324C751.515 198.502 748.978 197.753 746.497 197.124C702.232 185.761 658.363 205.079 621.316 225.436C610.462 231.36 599.832 237.694 589.542 243.787C574.796 252.564 552.467 265.257 529.066 274.057C508.823 281.649 489.877 285.469 472.425 285.469Z" fill="#F80D2A"/>
<path d="M471.1 284.913C454.409 284.913 437.831 281.456 422.071 272.945C381.556 251.064 362.92 205.03 344.904 160.495C331.428 127.203 317.5 92.7737 294.607 67.9191C241.518 10.2555 156.372 20.4101 122.23 27.4458C9.51085 50.7046 -91.2538 129.645 -147.275 238.613L-155 235.663C-97.9076 124.664 4.99983 44.1767 120.284 20.3859C195.787 4.79138 261.733 20.4826 301.26 63.3979C325.028 89.2196 339.209 124.229 352.911 158.102C371.266 203.459 388.605 246.277 426.61 266.804C477.753 294.415 540.541 263.371 583.339 237.597L588.33 234.599C636.485 205.562 691.04 172.656 746.638 186.027C772.435 192.24 794.877 207.835 816.558 222.922C835.505 236.098 855.099 249.735 876.442 256.625C912.446 268.23 956.146 260.905 999.48 236.026C1028.41 219.392 1054.88 197.003 1080.48 175.316C1088.85 168.232 1097.51 160.882 1106.17 153.846C1201.71 75.9702 1313.76 19.1045 1430.14 -10.5614L1432.54 -3.59824C1317.42 25.7534 1206.56 82.0146 1111.97 159.117C1103.4 166.104 1094.75 173.43 1086.4 180.49C1060.52 202.395 1033.76 225.049 1004.19 242.07C958.542 268.303 912.107 275.871 873.482 263.419C850.842 256.118 830.712 242.119 811.23 228.555C790.197 213.928 768.46 198.792 744.354 192.99C692.618 180.562 642.095 211.026 593.207 240.523L588.217 243.521C556.104 262.839 513.221 284.913 471.1 284.913Z" fill="#FF0C2A"/>
</g>
</svg>
