<?xml version="1.0" encoding="UTF-8"?>

<svg version="1.1" xmlns="http://www.w3.org/2000/svg" xmlns:xlink="http://www.w3.org/1999/xlink">

	<symbol viewBox="0 0 43 37" id="a-icon-1" xmlns="http://www.w3.org/2000/svg">
		<path d="M21.2706 21.4476C16.9824 21.4476 13.4948 17.8244 13.4948 13.3694C13.4948 8.91453 16.9824 5.29126 21.2706 5.29126C25.5588 5.29126 29.0465 8.91453 29.0465 13.3694C29.043 17.8207 25.5553 21.4476 21.2706 21.4476ZM21.2706 6.75669C17.7618 6.75669 14.9053 9.72418 14.9053 13.3694C14.9053 17.0147 17.7618 19.9822 21.2706 19.9822C24.7795 19.9822 27.6359 17.0147 27.6359 13.3694C27.6324 9.72418 24.7795 6.75669 21.2706 6.75669Z"/>
		<path d="M7.93356 37H0.704271C0.46447 37 0.238778 36.8718 0.111824 36.663C-0.0186555 36.4541 -0.0362896 36.1867 0.0659784 35.9596C0.0906638 35.9046 2.54158 30.3579 2.73906 27.6799C2.80606 26.753 2.52746 25.2582 2.23476 23.6756C1.67405 20.6678 0.975815 16.9273 2.09724 14.2455C3.68415 10.4391 6.78041 1.94324 6.81214 1.85531C6.82978 1.80769 6.85093 1.76373 6.87562 1.72343C7.0061 1.50728 8.21215 -0.386794 9.82728 0.0711533C10.8288 0.353249 11.9643 1.22153 11.6752 3.74573C11.4883 5.37236 10.0918 10.7761 8.66002 13.9634C9.00209 14.5643 9.35121 15.3446 9.79555 16.3448C10.2505 17.3706 10.8182 18.6418 11.6082 20.2538C14.5069 26.1778 11.654 31.7464 10.388 32.622C9.91193 32.9518 9.09378 34.8861 8.61065 36.4834C8.51191 36.7912 8.24037 37 7.93356 37ZM1.7869 35.5346H7.42223C7.8172 34.3256 8.66002 32.0578 9.60159 31.4021C10.254 30.9514 12.987 26.3097 10.3457 20.9169C9.54517 19.2793 8.97036 17.9934 8.51191 16.9566C7.44339 14.5533 7.13658 13.9231 6.37486 13.7363C6.23733 14.3554 6.6993 16.2385 6.87915 16.9786C7.00258 17.4805 7.09779 17.8798 7.13306 18.1509C7.15421 18.3158 7.18595 18.5209 7.21769 18.7517C7.4187 20.1292 7.71845 22.2102 7.50333 23.4375C7.4328 23.8368 7.06253 24.0969 6.68167 24.0236C6.29728 23.9503 6.0469 23.5693 6.11743 23.17C6.29375 22.1845 5.99048 20.0926 5.82473 18.9679C5.78947 18.7261 5.75773 18.5173 5.73657 18.3451C5.71189 18.1546 5.61314 17.7552 5.51087 17.3339C4.9819 15.1651 4.63631 13.4396 5.37334 12.6299C5.54614 12.4431 5.93052 12.1426 6.56882 12.2745C6.99199 12.3588 7.33759 12.5017 7.63734 12.7215C8.89982 9.65508 10.1059 4.96937 10.2646 3.56255C10.4691 1.7674 9.77792 1.56956 9.44643 1.47431C8.98446 1.34608 8.35322 2.04583 8.09579 2.43783C7.78193 3.30244 4.90432 11.1718 3.3844 14.817C2.4393 17.0811 3.0917 20.5762 3.61362 23.3825C3.94158 25.1373 4.2237 26.6577 4.14259 27.7788C3.98038 30.0026 2.53452 33.7248 1.7869 35.5346Z"/>
		<path d="M42.2957 36.9999H35.0629C34.7561 36.9999 34.481 36.7911 34.3893 36.487C33.9062 34.886 33.0916 32.9553 32.612 32.6256C31.346 31.75 28.4931 26.1813 31.3918 20.2573C32.1818 18.6454 32.7495 17.3704 33.2044 16.3483C33.6523 15.3445 33.9979 14.5641 34.3435 13.967C32.9117 10.776 31.5153 5.37588 31.3283 3.74925C31.0392 1.22871 32.1747 0.360452 33.1762 0.0746933C34.7914 -0.383254 35.9939 1.51082 36.1279 1.72697C36.1526 1.76727 36.1737 1.81123 36.1914 1.85885C36.2231 1.94312 39.3158 10.4426 40.9063 14.2491C42.0242 16.9308 41.3259 20.6713 40.7652 23.6791C40.469 25.2618 40.1904 26.7602 40.2574 27.6871C40.4549 30.3651 42.9093 35.9118 42.934 35.9667C43.0363 36.1939 43.0186 36.4577 42.8882 36.6702C42.7612 36.8717 42.5355 36.9999 42.2957 36.9999ZM35.5778 35.5344H41.2131C40.4655 33.7283 39.0196 30.0061 38.8574 27.7897C38.7728 26.6649 39.0584 25.1482 39.3864 23.3934C39.9118 20.5871 40.5607 17.092 39.6156 14.8279C38.0957 11.1863 35.2181 3.31329 34.9042 2.44868C34.6468 2.05668 34.0155 1.35327 33.5536 1.48516C33.2221 1.58041 32.5274 1.77459 32.7354 3.5734C32.8976 4.98022 34.1037 9.66593 35.3662 12.7323C35.6659 12.5162 36.0115 12.3697 36.4347 12.2854C37.0765 12.1572 37.4609 12.4539 37.6302 12.6408C38.3672 13.4504 38.0216 15.1723 37.4926 17.3448C37.3904 17.7661 37.2916 18.1654 37.2669 18.3559C37.2458 18.5281 37.214 18.7369 37.1788 18.9787C37.0166 20.1035 36.7133 22.1954 36.8861 23.1809C36.9566 23.5802 36.7027 23.9612 36.3219 24.0345C35.9375 24.1078 35.5707 23.844 35.5002 23.4483C35.2815 22.221 35.5848 20.1401 35.7823 18.7626C35.8176 18.5318 35.8458 18.3266 35.8669 18.1618C35.9022 17.8907 36.0009 17.4913 36.1208 16.9894C36.3007 16.2494 36.7627 14.3626 36.6251 13.7472C35.8669 13.934 35.5601 14.5641 34.4881 16.9674C34.0261 18.0042 33.4548 19.2901 32.6543 20.9278C30.0165 26.3205 32.7495 30.9586 33.3984 31.4129C34.34 32.0577 35.1828 34.3255 35.5778 35.5344Z"/>
	</symbol>

	<symbol viewBox="0 0 43 34" id="a-icon-2" xmlns="http://www.w3.org/2000/svg">
		<path d="M21.8881 26.8277C17.032 26.8277 13.0802 22.5589 13.0802 17.3134C13.0802 12.0678 17.032 7.79907 21.8881 7.79907C26.7442 7.79907 30.696 12.0678 30.696 17.3134C30.696 22.5589 26.7442 26.8277 21.8881 26.8277ZM21.8881 9.33736C17.8188 9.33736 14.5043 12.9139 14.5043 17.3134C14.5043 21.7129 17.8152 25.2894 21.8881 25.2894C25.9609 25.2894 29.2719 21.7129 29.2719 17.3134C29.2719 12.9139 25.9609 9.33736 21.8881 9.33736Z"/>
		<path fill-rule="evenodd" clip-rule="evenodd" d="M23.1217 21.1345C21.9266 21.764 20.4443 21.5425 19.4514 20.47C18.2001 19.1183 18.2001 16.9269 19.4514 15.5752L21.7171 13.1278L23.9828 15.5752C24.299 15.9168 24.5353 16.312 24.6917 16.7337C25.1542 17.9809 24.918 19.4599 23.9828 20.47C23.7244 20.7492 23.4328 20.9707 23.1217 21.1345ZM19.9549 16.1191L21.7171 14.2155L23.4793 16.1191C23.9508 16.6284 24.1939 17.291 24.2085 17.9584H19.2257C19.2403 17.291 19.4834 16.6284 19.9549 16.1191Z"/>
		<path d="M14.6074 34H2.76271C1.23895 34 0 32.6617 0 31.0157V2.98428C0 1.33831 1.23895 0 2.76271 0H14.6074C16.1312 0 17.3701 1.33831 17.3701 2.98428V8.34137H15.9461V2.98428C15.9461 2.18822 15.3444 1.53829 14.6074 1.53829H2.76271C2.02575 1.53829 1.42407 2.18822 1.42407 2.98428V31.0119C1.42407 31.8079 2.02575 32.4579 2.76271 32.4579H14.6074C15.3444 32.4579 15.9461 31.8079 15.9461 31.0119V26.0586H17.3701V31.0157C17.3701 32.6578 16.1312 34 14.6074 34Z"/>
		<path d="M16.473 4.36877H0.75116V5.90706H16.473V4.36877Z"/>
		<path d="M16.6581 28.7584H0.75116V30.2967H16.6581V28.7584Z"/>
		<path d="M10.4812 2.18811H6.89252V3.7264H10.4812V2.18811Z"/>
		<path d="M40.2373 34H28.3926C26.8688 34 25.6299 32.6617 25.6299 31.0157V26.0586H27.0539V31.0157C27.0539 31.8118 27.6556 32.4617 28.3926 32.4617H40.2373C40.9743 32.4617 41.5759 31.8118 41.5759 31.0157V2.98428C41.5759 2.18822 40.9743 1.53829 40.2373 1.53829H28.3926C27.6556 1.53829 27.0539 2.18822 27.0539 2.98428V8.34137H25.6299V2.98428C25.6299 1.33831 26.8688 0 28.3926 0H40.2373C41.7611 0 43 1.33831 43 2.98428V31.0119C43 32.6578 41.7611 34 40.2373 34Z"/>
		<path d="M42.1026 4.36877H26.3808V5.90706H42.1026V4.36877Z"/>
		<path d="M42.2877 28.7584H26.3808V30.2967H42.2877V28.7584Z"/>
		<path d="M36.1075 2.18811H32.5189V3.7264H36.1075V2.18811Z"/>
		<path d="M12.895 10.6486H7.4942V12.1868H12.895V10.6486Z"/>
		<path d="M10.1928 16.229H4.82404V17.7673H10.1928V16.229Z"/>
		<path d="M12.5995 21.8015H9.50928V23.3398H12.5995V21.8015Z"/>
	</symbol>

	<symbol viewBox="0 0 43 46" id="a-icon-3" xmlns="http://www.w3.org/2000/svg">
		<path d="M30.015 46H24.994C24.6104 46 24.278 45.7286 24.1757 45.3396L23.4255 42.517C20.8767 43.0191 18.2085 43.0055 15.681 42.4808L14.9223 45.3351C14.82 45.7241 14.4833 45.9955 14.1039 45.9955H9.08293C8.8485 45.9955 8.62688 45.896 8.46492 45.715C8.30295 45.5341 8.21768 45.2944 8.23047 45.0456L8.499 39.2602C6.78556 37.9575 5.38753 36.3562 4.41999 34.583H0.852457C0.383606 34.583 0 34.1759 0 33.6784V26.2329C0 25.7308 0.383606 25.3282 0.852457 25.3282H3.23082C3.7636 23.2565 4.82066 21.3115 6.33377 19.6288C6.00984 18.1949 5.46851 15.9784 4.87179 14.3998C4.71835 13.9927 4.85902 13.5313 5.20852 13.2961C5.31508 13.2282 6.28687 12.6085 7.85539 12.6085C9.1426 12.6085 11.1075 13.0473 13.3367 15.0647C15.3442 14.3681 17.4626 14.0108 19.6491 14.0108C28.9196 14.0108 36.4639 20.4837 36.4639 28.4448C36.4639 32.6787 34.3412 36.6412 30.616 39.3914L30.876 45.0411C30.8888 45.2899 30.8035 45.5296 30.6416 45.7105C30.4711 45.896 30.2494 46 30.015 46ZM25.6419 44.1907H29.1199L28.877 38.9797C28.8642 38.6586 29.0091 38.3555 29.2649 38.1791C32.7471 35.7681 34.7461 32.2218 34.7461 28.4584C34.7461 21.4969 27.9691 15.8337 19.6363 15.8337C17.4711 15.8337 15.3826 16.2091 13.4177 16.9555C13.1193 17.0686 12.7869 16.9962 12.5524 16.77C10.9882 15.2411 9.35999 14.4314 7.84688 14.4314C7.4036 14.4314 7.02851 14.4993 6.74294 14.5852C7.29277 16.2453 7.77016 18.2356 8.08983 19.7192C8.15803 20.0268 8.0685 20.348 7.85539 20.5696C6.22719 22.2659 5.14459 24.2924 4.72688 26.4274C4.6459 26.8481 4.29638 27.1511 3.89147 27.1511H1.69641V32.7873H4.91016C5.22557 32.7873 5.51541 32.9727 5.66459 33.2713C6.57246 35.1077 8.01736 36.7678 9.83736 38.066C10.0846 38.2424 10.2295 38.5455 10.2124 38.8621L9.96522 44.1997H13.4433L14.2446 41.1826C14.3682 40.7167 14.8157 40.4363 15.2632 40.5494C18.038 41.2505 21.0301 41.2686 23.8304 40.5901C24.2737 40.4815 24.717 40.762 24.8406 41.2279L25.6419 44.1907Z"/>
		<path d="M36.1781 28.0965C35.82 28.0965 35.5899 28.0784 35.543 28.0784C35.0741 28.0422 34.7204 27.6125 34.7502 27.1149C34.7843 26.6173 35.1935 26.2464 35.6581 26.2735C35.7092 26.2735 40.6492 26.554 41.2118 23.8897C41.3695 23.1434 41.4036 22.1754 40.6748 21.7909C40.1633 21.5195 39.5879 21.6868 39.4686 21.8316C39.2043 22.1573 39.2299 22.492 39.2725 22.5508C39.2725 22.5508 39.281 22.5508 39.2938 22.5508C39.3321 22.5508 39.4216 22.5463 39.558 22.501C40.0056 22.3473 40.4872 22.6096 40.6279 23.0891C40.7728 23.564 40.5256 24.0752 40.0738 24.2244C38.9826 24.5954 38.2069 24.1204 37.8489 23.555C37.3289 22.7272 37.461 21.5376 38.1686 20.66C38.8676 19.787 40.304 19.5789 41.4335 20.176C42.7335 20.8636 43.2705 22.4015 42.8698 24.2878C42.141 27.7572 37.8318 28.0965 36.1781 28.0965Z"/>
		<path d="M29.3671 24.2923C25.4671 18.6788 17.1428 19.4523 17.0576 19.4659L16.8956 17.6656C17.275 17.6294 26.2726 16.7926 30.7395 23.2203L29.3671 24.2923Z"/>
		<path d="M31.1663 14.8823C27.0866 14.8823 23.7671 11.544 23.7671 7.44116C23.7671 3.33837 27.0866 0 31.1663 0C35.2459 0 38.5654 3.33837 38.5654 7.44116C38.5654 11.544 35.2459 14.8823 31.1663 14.8823ZM31.1663 1.1974C27.7428 1.1974 24.9547 3.99828 24.9547 7.44415C24.9547 10.887 27.7398 13.6909 31.1663 13.6909C34.5927 13.6909 37.3778 10.89 37.3778 7.44415C37.3778 3.99828 34.5927 1.1974 31.1663 1.1974Z"/>
	</symbol>

	<symbol viewBox="0 0 43 51" id="a-icon-4" xmlns="http://www.w3.org/2000/svg">
		<path d="M21.5 51C21.3775 51 21.255 50.974 21.141 50.9177C9.71514 45.4178 4.57878 37.9214 2.28094 32.599C-0.152061 26.9649 -0.012672 22.5952 0.00844783 22.1622V2.35374C0.00844783 2.06358 0.147841 1.79507 0.380159 1.63483C0.612477 1.4746 0.908153 1.43995 1.17004 1.54822C3.58615 2.5486 6.6612 3.0986 9.82917 3.0986C14.3446 3.0986 18.5263 2.00293 21.01 0.1624C21.3057 -0.0541332 21.7028 -0.0541332 21.9985 0.1624C24.4779 1.9986 28.6554 3.0986 33.1708 3.0986C36.343 3.0986 39.4181 2.5486 41.83 1.54822C42.0918 1.43995 42.3875 1.4746 42.6198 1.63483C42.8522 1.79507 42.9916 2.06358 42.9916 2.35374V22.1622C43.0127 22.5909 43.1521 26.9649 40.7191 32.599C38.4212 37.9171 33.2849 45.4135 21.8591 50.9177C21.745 50.974 21.6225 51 21.5 51ZM1.69804 3.5923V22.1881C1.69804 22.2055 1.69804 22.2228 1.69804 22.2401C1.69804 22.2791 1.49529 26.5491 3.86493 31.9884C6.0276 36.9557 10.8429 43.941 21.5 49.1725C32.1571 43.941 36.9724 36.9514 39.1351 31.9884C41.5089 26.5448 41.3062 22.2791 41.302 22.2358C41.302 22.2185 41.302 22.2011 41.302 22.1838V3.58797C38.907 4.39347 36.0727 4.83086 33.1708 4.83086C28.592 4.83086 24.292 3.7482 21.5042 1.912C18.7122 3.7482 14.408 4.83086 9.82917 4.83086C6.93153 4.83519 4.09302 4.3978 1.69804 3.5923Z"/>
		<path d="M21.8592 46.3746L21.1411 44.8069C38.0961 36.6479 37.5048 22.989 37.4963 22.8505L39.1817 22.7465C39.1901 22.8981 39.8364 37.7219 21.8592 46.3746Z"/>
		<path d="M16.7861 31.2217L11.5737 25.8777L12.7691 24.6521L16.7861 28.7706L30.2267 14.9904L31.4221 16.216L16.7861 31.2217Z"/>
	</symbol>

	<symbol viewBox="0 0 43 37" id="a-icon-5" xmlns="http://www.w3.org/2000/svg">
		<path d="M35.6904 33.1992C35.5399 33.1992 35.3834 33.1357 35.2691 33.0149L22.1906 19.2038C21.9559 18.9559 21.9559 18.5618 22.1906 18.314L26.5361 13.7251C26.7708 13.4772 27.1439 13.4772 27.3787 13.7251L40.4571 27.5362C40.6918 27.7841 40.6918 28.1781 40.4571 28.426C40.2224 28.6739 39.8492 28.6739 39.6145 28.426L26.9574 15.0598L23.4545 18.7589L36.1117 32.1251C36.3464 32.373 36.3464 32.767 36.1117 33.0149C35.9973 33.142 35.8408 33.1992 35.6904 33.1992Z"/>
		<path d="M36.6714 35.7097C36.1839 35.7097 35.7265 35.5126 35.3835 35.1504C35.0404 34.7881 34.8478 34.305 34.8478 33.7902C34.8478 33.2754 35.0344 32.7923 35.3835 32.4301L39.8974 27.6632C40.5835 26.9387 41.7812 26.9387 42.4674 27.6632C43.1776 28.4132 43.1776 29.6335 42.4674 30.3772L37.9534 35.144C37.6164 35.5063 37.1589 35.7097 36.6714 35.7097ZM41.1854 28.356C41.0169 28.356 40.8604 28.4259 40.74 28.5467L36.2261 33.3135C36.1057 33.4406 36.0395 33.6059 36.0395 33.7839C36.0395 33.9618 36.1057 34.1271 36.2261 34.2542C36.4608 34.5021 36.8761 34.5021 37.1108 34.2542L41.6248 29.4874C41.8715 29.2268 41.8715 28.8073 41.6248 28.5467C41.5104 28.4259 41.3539 28.356 41.1854 28.356Z"/>
		<path d="M26.2532 36.9999C24.0744 36.9999 22.0281 36.1037 20.4934 34.4767L14.4326 28.0764C11.2548 24.7205 11.2548 19.2609 14.4326 15.9051L21.2276 8.72939C22.335 7.55993 24.267 7.55993 25.3745 8.72939L27.0235 10.4709C28.1671 11.6785 28.1671 13.6424 27.0235 14.85L20.4994 21.7397C20.1202 22.1337 19.9156 22.6676 19.9156 23.2269C19.9156 23.7862 20.1202 24.3138 20.4994 24.7142L25.7536 30.2628C26.53 31.0827 27.7939 31.0827 28.5703 30.2628L29.6356 29.1378C29.8703 28.8899 30.2435 28.8899 30.4782 29.1378C30.7129 29.3857 30.7129 29.7797 30.4782 30.0276L29.4129 31.1526C28.1731 32.4619 26.1569 32.4619 24.911 31.1526L19.6568 25.604C19.0549 24.9684 18.7239 24.1231 18.7239 23.2269C18.7239 22.3308 19.0549 21.4855 19.6568 20.8499L26.1809 13.9602C26.861 13.242 26.861 12.0789 26.1809 11.3607L24.5318 9.6192C23.8758 8.92642 22.7263 8.92642 22.0702 9.6192L15.2752 16.7949C12.5608 19.6613 12.5608 24.3201 15.2752 27.1866L21.336 33.5869C24.0503 36.4533 28.462 36.4533 31.1764 33.5869L38.0075 26.373C38.2422 26.1252 38.6154 26.1252 38.8501 26.373C39.0848 26.6209 39.0848 27.015 38.8501 27.2629L32.019 34.4767C30.4782 36.1101 28.4319 36.9999 26.2532 36.9999Z"/>
		<path d="M17.9836 20.5895C17.8331 20.5895 17.6766 20.5259 17.5623 20.4052C17.3275 20.1573 17.3275 19.7632 17.5623 19.5154L25.9522 10.6554C26.1869 10.4075 26.5601 10.4075 26.7948 10.6554C27.0295 10.9033 27.0295 11.2973 26.7948 11.5452L18.4049 20.4052C18.2905 20.5323 18.1401 20.5895 17.9836 20.5895Z"/>
		<path d="M18.2725 13.0513C18.1221 13.0513 17.9656 12.9877 17.8512 12.867L11.6581 6.3269L3.55704 5.5642C3.29222 5.53877 3.06952 5.32904 3.02137 5.04938L2.2811 0.740159C2.251 0.549486 2.29915 0.346103 2.42554 0.206276C2.55193 0.0600926 2.72647 -0.0161814 2.91907 0.00288592L13.7827 0.994387C13.9211 1.0071 14.0535 1.07066 14.1498 1.17871L21.5346 8.97725C21.7694 9.22513 21.7694 9.61918 21.5346 9.86706C21.2999 10.1149 20.9267 10.1149 20.692 9.86706L13.4637 2.23377L3.59315 1.33124L4.11677 4.36296L11.9771 5.10658C12.1155 5.11929 12.2479 5.18286 12.3442 5.2909L18.6878 11.9899C18.9225 12.2378 18.9225 12.6318 18.6878 12.8797C18.5795 12.9941 18.423 13.0513 18.2725 13.0513Z"/>
		<path d="M27.6374 27.1167C27.0055 27.1167 26.4096 26.8561 25.9643 26.3857L20.9207 21.0596C20.686 20.8117 20.686 20.4177 20.9207 20.1698C21.1554 19.9219 21.5286 19.9219 21.7633 20.1698L26.8069 25.4959C27.2523 25.9663 28.0287 25.9663 28.474 25.4959C28.7088 25.2481 29.0819 25.2481 29.3166 25.4959C29.5514 25.7438 29.5514 26.1379 29.3166 26.3857C28.8652 26.8561 28.2694 27.1167 27.6374 27.1167Z"/>
		<path d="M3.19588 16.9282C1.43243 16.9282 0 15.4156 0 13.5533C0 11.4432 2.46161 8.31616 2.74448 7.97294C2.85884 7.83312 3.02134 7.75049 3.19588 7.75049C3.33431 7.75049 3.53895 7.83312 3.6533 7.97931C3.93617 8.33523 6.39176 11.4877 6.39176 13.5597C6.38574 15.4156 4.95331 16.9282 3.19588 16.9282ZM3.18986 9.39027C2.38336 10.5089 1.18567 12.4093 1.18567 13.5533C1.18567 14.7228 2.08243 15.6698 3.18986 15.6698C4.29126 15.6698 5.19406 14.7228 5.19406 13.5533C5.19406 12.4283 3.99635 10.5152 3.18986 9.39027Z"/>
	</symbol>

	<symbol viewBox="0 0 120 120" id="telegram" xmlns="http://www.w3.org/2000/svg">
		<path fill-rule="evenodd" clip-rule="evenodd" d="M60 120C93.1371 120 120 93.1371 120 60C120 26.8629 93.1371 0 60 0C26.8629 0 0 26.8629 0 60C0 93.1371 26.8629 120 60 120ZM49.0002 87.4999C50.4595 87.4999 51.1264 86.8506 51.9324 86.0659L52.0002 85.9999L59.2068 78.9924L74.1998 90.0695C76.9591 91.5919 78.9505 90.8037 79.6378 87.5078L89.4803 41.1262C90.488 37.0861 87.9403 35.2537 85.3006 36.4521L27.5056 58.7376C23.5606 60.32 23.5836 62.521 26.7865 63.5016L41.618 68.1308L75.9545 46.4683C77.5755 45.4853 79.0632 46.0138 77.8421 47.0975L50.0215 72.2035L50.0212 72.2034L50.0212 72.2038L50.0198 72.205L50.0211 72.2059L49.0002 87.4999Z"/>
	</symbol>

	<symbol viewBox="0 0 120 120" id="viber" xmlns="http://www.w3.org/2000/svg">
		<path fill-rule="evenodd" clip-rule="evenodd" d="M60 0C93.1371 0 120 26.8629 120 60C120 93.1371 93.1371 120 60 120C26.8629 120 0 93.1371 0 60C0 26.8629 26.8629 0 60 0ZM63.5943 24.4405C67.674 24.9497 70.971 25.9325 74.5883 27.697C78.146 29.4378 80.4231 31.0837 83.4355 34.0796C86.2581 36.9098 87.8236 39.0532 89.4839 42.3807C91.7966 47.0227 93.113 52.5409 93.3382 58.6157C93.4214 60.6879 93.3621 61.1498 92.8876 61.7418C91.9863 62.8906 90.0056 62.7009 89.3298 61.4103C89.1162 60.984 89.0569 60.617 88.9857 58.9591C88.8671 56.4131 88.6894 54.7671 88.3335 52.8014C86.9341 45.0925 83.2338 38.9348 77.3277 34.5178C72.406 30.8232 67.3181 29.0232 60.6532 28.6325C58.3998 28.5022 58.0084 28.4194 57.4985 28.0286C56.5495 27.2825 56.5023 25.53 57.4154 24.713C57.9728 24.2037 58.3641 24.1327 60.2973 24.1919C61.3054 24.2274 62.7878 24.3458 63.5943 24.4405ZM36.4818 25.7191C36.8969 25.8611 37.5373 26.1926 37.905 26.4295C40.1582 27.9216 46.432 35.9383 48.4839 39.9409C49.6578 42.2263 50.0492 43.9197 49.6817 45.1749C49.302 46.5249 48.6736 47.2354 45.8628 49.4972C44.7361 50.4089 43.6805 51.3444 43.5146 51.5931C43.0877 52.2089 42.7436 53.4168 42.7436 54.2694C42.7556 56.2469 44.0364 59.835 45.7205 62.5941C47.0249 64.7375 49.3613 67.4846 51.674 69.5925C54.3898 72.0794 56.7855 73.7726 59.4895 75.1108C62.9643 76.8396 65.0873 77.2778 66.641 76.5555C67.0323 76.3779 67.4473 76.141 67.5779 76.0346C67.6963 75.9279 68.6096 74.8147 69.6059 73.5833C71.527 71.1675 71.9658 70.7768 73.2823 70.3268C74.9546 69.7584 76.6623 69.9123 78.3819 70.7886C79.6865 71.4636 82.5328 73.228 84.371 74.5068C86.7903 76.2002 91.9611 80.4159 92.661 81.2568C93.8943 82.7725 94.1079 84.7143 93.2776 86.8579C92.3999 89.1195 88.9844 93.3589 86.6006 95.1708C84.4422 96.8049 82.9123 97.4323 80.8962 97.5272C79.2359 97.61 78.548 97.4679 76.4251 96.5916C59.7742 89.7353 46.4795 79.5042 35.9243 65.4479C30.4097 58.1061 26.2113 50.4919 23.3412 42.5935C21.6691 37.9871 21.5861 35.9858 22.9617 33.6293C23.5548 32.6347 26.0808 30.1715 27.9191 28.798C30.9789 26.5243 32.3902 25.6835 33.5169 25.4467C34.2877 25.2809 35.6278 25.4111 36.4818 25.7191ZM64.4115 33.0254C71.6104 34.0793 77.1844 37.4187 80.8371 42.8422C82.8889 45.8973 84.1697 49.4854 84.6085 53.3339C84.7626 54.7431 84.7626 57.3128 84.5967 57.7391C84.4424 58.1416 83.9443 58.6864 83.5173 58.9113C83.0548 59.1482 82.0706 59.1246 81.525 58.8403C80.6117 58.3785 80.339 57.6443 80.339 55.6549C80.339 52.5879 79.5443 49.3551 78.1688 46.8447C76.6033 43.979 74.3263 41.6107 71.5512 39.9646C69.1673 38.5436 65.645 37.4897 62.431 37.2293C61.2687 37.1344 60.6283 36.8976 60.1895 36.3885C59.5136 35.6187 59.4423 34.5766 60.0115 33.7122C60.6282 32.753 61.577 32.5991 64.4115 33.0254ZM66.9382 41.9663C69.2745 42.4636 71.0655 43.3517 72.5953 44.7846C74.5639 46.6436 75.6433 48.8936 76.1176 52.1264C76.4378 54.2343 76.3073 55.0631 75.5602 55.75C74.8605 56.3894 73.5679 56.4131 72.785 55.8092C72.2158 55.3829 72.0378 54.9329 71.9074 53.7133C71.7533 52.0909 71.4686 50.9541 70.9825 49.9002C69.9387 47.6621 68.1005 46.5016 64.9934 46.1227C63.5345 45.945 63.0956 45.7792 62.6214 45.2228C61.7556 44.1925 62.0876 42.5228 63.2854 41.907C63.7362 41.6821 63.926 41.6583 64.922 41.7176C65.5388 41.7531 66.4521 41.8596 66.9382 41.9663Z"/>
	</symbol>

	<symbol viewBox="0 0 120 120" id="phone" xmlns="http://www.w3.org/2000/svg">
		<path fill-rule="evenodd" clip-rule="evenodd" d="M60 0C26.8629 0 0 26.8629 0 60C0 93.1371 26.8629 120 60 120C93.1371 120 120 93.1371 120 60C120 26.8629 93.1371 0 60 0ZM44.1858 30.9061C43.7817 30.2388 43.1572 30.0612 42.4286 30.1225C42.2878 30.1408 42.1469 30.1408 41.9694 30C41.564 30.0941 41.158 30.1856 40.752 30.277C39.7845 30.4949 38.8167 30.7129 37.855 30.9674C36.153 31.4266 34.8366 32.4551 33.7835 33.8572C32.4427 35.6634 31.5549 37.6838 30.8447 39.7961C30.0549 42.1349 29.7916 44.5105 30.1712 46.9778C30.5018 49.1575 31.2366 51.1963 31.9835 53.2535C33.2141 56.6637 34.5733 60.0066 36.4775 63.1108C39.3979 67.8925 43.0102 72.0926 47.0572 75.9436C50.2532 78.9743 53.7063 81.6866 57.5023 83.9336C61.684 86.401 66.2269 88.0296 70.8372 89.45C73.225 90.1969 75.7108 90.399 78.2027 89.8418C80.9456 89.2296 83.5232 88.2316 85.8314 86.6152C86.664 86.0214 87.4906 85.2867 88.0722 84.4479C89.462 82.4274 89.86 80.0764 89.9947 77.6824C90.0437 76.8314 89.7559 76.213 89.0396 75.7906C88.5572 75.5016 88.0764 75.2077 87.5949 74.9135C86.7502 74.3972 85.9033 73.8797 85.0415 73.3844C84.2057 72.9036 83.3536 72.4496 82.5011 71.9954C80.7808 71.0789 79.0584 70.1612 77.4618 69.019C77.2909 68.8956 77.0906 68.8017 76.8923 68.7086C76.8347 68.6816 76.7774 68.6547 76.721 68.6272C75.821 68.1741 74.9638 68.2476 74.1801 68.9088C73.7944 69.2272 73.3965 69.5578 73.0658 69.9313C72.4705 70.6007 71.8832 71.2724 71.2965 71.9434C70.5255 72.8251 69.7556 73.7057 68.9698 74.5783C67.4821 76.2375 66.7351 76.4212 64.8188 75.3375C62.7861 74.1865 60.7717 72.9803 58.837 71.664C53.8165 68.266 49.843 63.8577 46.7327 58.6719C45.9442 57.3539 45.2261 56.0089 44.507 54.6622C44.4612 54.5763 44.4153 54.4904 44.3694 54.4045C43.8735 53.4677 44.0633 52.58 44.798 51.8698C45.3752 51.315 45.9754 50.781 46.576 50.2465C46.9565 49.9079 47.3372 49.5691 47.7123 49.2248C48.0141 48.9486 48.3188 48.674 48.6237 48.3993C49.4879 47.6205 50.3537 46.8403 51.1593 46.0166C51.9247 45.239 51.9492 44.2594 51.4349 43.2859L51.3965 43.2204C51.1576 42.8125 50.913 42.3947 50.6573 41.988C50.5512 41.8245 50.438 41.6641 50.3248 41.5039C50.1243 41.22 49.9238 40.9362 49.7634 40.6349C49.349 39.8915 48.9455 39.1426 48.5423 38.3943C47.9925 37.3738 47.4432 36.3543 46.8674 35.3511C46.0721 33.9636 45.2353 32.6072 44.3999 31.2533C44.3285 31.1376 44.2571 31.0219 44.1858 30.9061Z"/>
	</symbol>

	<symbol viewBox="0 0 18 18" id="footer-phone" xmlns="http://www.w3.org/2000/svg">
		<path d="M3.62 7.79C5.06 10.62 7.38 12.93 10.21 14.38L12.41 12.18C12.68 11.91 13.08 11.82 13.43 11.94C14.55 12.31 15.76 12.51 17 12.51C17.55 12.51 18 12.96 18 13.51V17C18 17.55 17.55 18 17 18C7.61 18 0 10.39 0 1C0 0.45 0.45 0 1 0H4.5C5.05 0 5.5 0.45 5.5 1C5.5 2.25 5.7 3.45 6.07 4.57C6.18 4.92 6.1 5.31 5.82 5.59L3.62 7.79Z"/>
	</symbol>


</svg>